/* XPM */
static char *dummy[]={
"64 64 223 2",
"Qt c None",
"#L c #2f3939",
"#H c #313b3b",
"#D c #323c3c",
"#z c #343e3e",
"#v c #353f3f",
"#r c #364040",
"#n c #384242",
"#k c #394343",
"#g c #3a4444",
"#d c #3c4646",
"## c #3d4747",
".7 c #3e4848",
".# c #505a5a",
"#0 c #515b5b",
"#1 c #525c5c",
".q c #535d5d",
"#5 c #545e5e",
"#6 c #555e5e",
".a c #565f5f",
"#8 c #566060",
"#9 c #586262",
"ad c #5b6464",
"af c #5d6666",
".l c #5d6767",
"ao c #606969",
".e c #616b6b",
"ar c #636c6c",
"as c #646d6d",
"aw c #666f6f",
"av c #677070",
"az c #6a7373",
"ag c #6c7676",
"aD c #6e7676",
"an c #6f7878",
"aH c #727a7a",
"aI c #747c7c",
"ae c #757d7d",
"aL c #767e7e",
".v c #767f7f",
"ap c #777f7f",
"aK c #787f7f",
"aZ c #7a8484",
"aP c #7b8383",
"a. c #7b8484",
"aY c #7b8585",
"a0 c #7b8686",
"#U c #7c8686",
"aG c #7d8484",
"ac c #7d8585",
"#T c #7d8787",
"#S c #7d8888",
"#Y c #7e8787",
"#Q c #7e8888",
"#O c #7e8989",
"#I c #7f8989",
"#E c #7f8a8a",
"aS c #808787",
"aQ c #808888",
"#A c #808a8a",
"#w c #808b8b",
"aM c #818888",
"#s c #818b8b",
"#o c #818c8c",
"#h c #828c8c",
"aR c #838b8b",
"#a c #838d8d",
".8 c #838e8e",
".b c #848c8c",
"a1 c #848d8d",
".4 c #848e8e",
".0 c #848f8f",
"aW c #858c8c",
".Y c #858f8f",
".W c #859090",
"aX c #868c8c",
".T c #869090",
"aA c #879292",
"aC c #889292",
"aJ c #889393",
".i c #899090",
"a2 c #899191",
".R c #899494",
"a3 c #8a9191",
"b. c #8a9292",
"b# c #8a9393",
"ba c #8b9393",
"bb c #8b9494",
"bc c #8c9494",
"bd c #8d9595",
"aq c #8e9494",
"aB c #8f9898",
"ax c #909696",
".P c #909a9a",
"a9 c #919797",
"be c #919898",
".M c #949d9d",
"at c #949e9e",
"au c #949f9f",
"bf c #959b9b",
"bg c #969c9c",
".B c #969f9f",
"ay c #989e9e",
".J c #98a0a0",
"a8 c #999e9e",
".3 c #99a1a1",
"ah c #99a3a3",
"aE c #9aa0a0",
".F c #9ba4a4",
"ai c #9ca5a5",
"bh c #9da3a3",
"bo c #9ea3a3",
"a# c #9ea8a8",
"bp c #9fa4a4",
"bq c #a0a5a5",
"br c #a1a6a6",
"bs c #a2a7a7",
"#7 c #a3adad",
"aa c #a4aeae",
"aj c #a5afaf",
"bn c #a9aeae",
"#2 c #a9b3b3",
"ak c #a9b4b4",
".c c #acb3b3",
"bt c #aeb2b2",
"al c #aeb8b8",
"ab c #b0b9b9",
"am c #b0baba",
"#Z c #b1bbbb",
".d c #b2b8b8",
"#3 c #b2bcbc",
"#4 c #b3bdbd",
"#W c #b4bebe",
"#X c #b5bfbf",
"#V c #b6c0c0",
"#K c #b7c1c1",
"aV c #b8bcbc",
"#G c #b8c2c2",
"#C c #b9c3c3",
"#y c #b9c4c4",
"#R c #bac4c4",
"#u c #bac5c5",
"a4 c #bbbfbf",
"#P c #bbc5c5",
"#q c #bbc6c6",
"#m c #bcc6c6",
"#J c #bdc7c7",
"bm c #bec1c1",
"#j c #bec7c7",
"#F c #bec8c8",
"#f c #bfc8c8",
"#B c #bfc9c9",
"#c c #c0c8c8",
"#M c #c0c9c9",
"#x c #c0caca",
"bu c #c1c4c4",
"#. c #c1c9c9",
"#t c #c1cbcb",
".6 c #c2caca",
"#p c #c2cccc",
"#l c #c3cdcd",
".o c #c4caca",
"#i c #c4cece",
"aF c #c5c9c9",
"#e c #c5cfcf",
".2 c #c5d0d0",
"aN c #c6c9c9",
"#b c #c6d0d0",
".9 c #c7d1d1",
".5 c #c8d2d2",
".1 c #c9d3d3",
".Z c #cad4d4",
".X c #cbd5d5",
".V c #ccd6d6",
".U c #cdd7d7",
".S c #ced8d8",
".Q c #cfd9d9",
".O c #d0dada",
".L c #d1dbdb",
".I c #d2dcdc",
"bl c #d3d5d5",
"aO c #d3d6d6",
".N c #d3dcdc",
".E c #d3dddd",
".f c #d4d8d8",
".D c #d4dddd",
".A c #d4dede",
"aT c #d5d7d7",
"bv c #d5d8d8",
".z c #d9e1e1",
".H c #dbe3e3",
"a7 c #dddfdf",
".y c #dde5e5",
"bi c #dee0e0",
".K c #dee5e5",
".C c #dfe6e6",
"aU c #e1e3e3",
"a5 c #e2e3e3",
".G c #e3e9e9",
".x c #e7ecec",
".m c #e9eded",
".w c #eaeeee",
".r c #eaefef",
".u c #ebf0f0",
".t c #ecf1f1",
".j c #edf0f0",
".s c #edf1f1",
"a6 c #eeefef",
"bj c #f0f1f1",
".p c #f0f3f3",
"bx c #f2f2f2",
".n c #f2f5f5",
"bk c #f4f5f5",
"bC c #f5f5f5",
"bw c #f5f6f6",
".k c #f5f7f7",
".g c #f6f8f8",
".h c #f7f9f9",
"by c #f8f8f8",
"#N c #f8f9f9",
"bz c #f9f9f9",
"bB c #f9fafa",
"bA c #ffffff",
"QtQtQtQtQtQtQtQtQtQtQtQtQtQtQtQtQtQtQtQtQtQtQtQtQtQtQtQtQtQtQtQtQtQtQtQtQtQtQtQtQtQtQtQtQtQtQtQtQtQtQtQtQtQtQtQtQtQtQtQtQtQtQtQt",
"QtQtQtQtQtQtQtQtQtQtQtQtQtQtQtQtQtQtQtQtQtQtQtQtQtQtQtQtQtQtQtQtQtQtQtQtQtQtQtQtQtQtQtQtQtQtQtQtQtQtQtQtQtQtQtQtQtQtQtQtQtQtQtQt",
"QtQtQtQtQtQtQtQtQtQtQtQtQtQtQtQtQtQtQtQtQtQtQtQtQtQtQtQtQtQtQtQtQtQtQtQtQtQtQtQtQtQtQtQtQtQtQtQtQtQtQtQtQtQtQtQtQtQtQtQtQtQtQtQt",
"QtQtQtQtQtQtQtQtQtQtQtQtQtQtQtQtQtQtQtQtQtQtQtQtQtQtQtQtQtQtQtQtQtQtQtQtQtQtQtQtQtQtQtQtQtQtQtQtQtQtQtQtQtQtQtQtQtQtQtQtQtQtQtQt",
"QtQtQtQtQtQt.#.#.#.#.#.#.#.#.#.#.#.#.#.#.#.#.#.#.#.#.#.#.#.#.#.#.#.#.#.#.#.#.#.#.#.#.#.#.#.#.#.#.#.#.#.#.#.#.#.#.#.#QtQtQtQtQtQt",
"QtQtQtQt.#.#.#.#.#.#.#.#.#.#.#.#.#.#.#.#.#.#.#.#.#.#.#.#.#.#.#.#.#.#.#.#.#.#.#.#.#.#.#.#.#.#.#.#.#.#.#.#.#.#.#.#.#.#.#.#QtQtQtQt",
"QtQt.#.#.#.#.#.#.#.#.#.#.#.#.#.#.#.#.#.#.#.#.#.#.#.#.#.#.#.#.#.#.#.#.#.#.#.#.#.#.#.#.#.#.#.#.#.#.#.#.#.#.#.#.#.#.#.#.#.#.#.#QtQt",
"QtQt.#.#.#.#.#.#.a.b.c.d.d.d.d.d.d.d.d.d.d.d.d.d.d.d.d.d.d.d.d.d.d.d.d.d.d.d.d.d.d.d.d.d.d.d.d.d.d.d.d.d.d.c.b.a.#.#.#.#.#.#QtQt",
"Qt.#.#.#.#.#.e.f.g.h.h.h.h.h.h.h.h.h.h.h.h.h.h.h.h.h.h.h.h.h.h.h.h.h.h.h.h.h.h.h.h.h.h.h.h.h.h.h.h.h.h.h.h.h.h.g.f.e.#.#.#.#.#Qt",
".#.#.#.#.#.i.j.k.k.k.k.k.k.k.k.k.k.k.k.k.k.k.k.k.k.k.k.k.k.k.k.k.k.k.k.k.k.k.k.k.k.k.k.k.k.k.k.k.k.k.k.k.k.k.k.k.k.j.i.#.#.#.#.#",
".#.#.#.#.l.m.n.n.n.n.n.n.n.n.n.n.n.n.n.n.n.n.n.n.n.n.n.n.n.n.n.n.n.n.n.n.n.n.n.n.n.n.n.n.n.n.n.n.n.n.n.n.n.n.n.n.n.n.m.l.#.#.#.#",
".#.#.#.#.o.p.p.p.p.p.p.p.p.p.p.p.p.p.p.p.p.p.p.p.p.p.p.p.p.p.p.p.p.p.p.p.p.p.p.p.p.p.p.p.p.p.p.p.p.p.p.p.p.p.p.p.p.p.p.o.#.#.#.#",
".#.#.#.q.r.s.s.s.s.s.t.u.u.u.u.u.u.u.u.u.u.u.u.u.u.u.u.u.u.u.u.u.u.u.u.u.u.u.u.u.u.u.u.u.u.u.u.u.u.u.u.u.u.t.s.s.s.s.s.r.q.#.#.#",
".#.#.#.v.w.w.w.x.y.z.A.A.A.A.A.A.A.A.A.A.A.A.A.A.A.A.A.A.A.A.A.A.A.A.A.A.A.A.A.A.A.A.A.A.A.A.A.A.A.A.A.A.A.A.z.y.x.w.w.w.v.#.#.#",
".#.#.#.B.x.x.C.D.E.E.E.E.E.E.E.E.E.E.E.E.E.E.E.E.E.E.E.E.E.E.E.E.E.E.E.E.E.E.E.E.E.E.E.E.E.E.E.E.E.E.E.E.E.E.E.E.D.C.x.x.B.#.#.#",
".#.#.#.F.G.H.I.I.I.I.I.I.I.I.I.I.I.I.I.I.I.I.I.I.I.I.I.I.I.I.I.I.I.I.I.I.I.I.I.I.I.I.I.I.I.I.I.I.I.I.I.I.I.I.I.I.I.I.H.G.F.#.#.#",
".#.#.#.J.K.L.L.L.L.L.L.L.L.L.L.L.L.L.L.L.L.L.L.L.L.L.L.L.L.L.L.L.L.L.L.L.L.L.L.L.L.L.L.L.L.L.L.L.L.L.L.L.L.L.L.L.L.L.L.K.J.#.#.#",
".#.#.#.M.N.O.O.O.O.O.O.O.O.O.O.O.O.O.O.O.O.O.O.O.O.O.O.O.O.O.O.O.O.O.O.O.O.O.O.O.O.O.O.O.O.O.O.O.O.O.O.O.O.O.O.O.O.O.O.N.M.#.#.#",
".#.#.#.P.Q.Q.Q.Q.Q.Q.Q.Q.Q.Q.Q.Q.Q.Q.Q.Q.Q.Q.Q.Q.Q.Q.Q.Q.Q.Q.Q.Q.Q.Q.Q.Q.Q.Q.Q.Q.Q.Q.Q.Q.Q.Q.Q.Q.Q.Q.Q.Q.Q.Q.Q.Q.Q.Q.Q.Q.P.#.#.#",
".#.#.#.R.S.S.S.S.S.S.S.S.S.S.S.S.S.S.S.S.S.S.S.S.S.S.S.S.S.S.S.S.S.S.S.S.S.S.S.S.S.S.S.S.S.S.S.S.S.S.S.S.S.S.S.S.S.S.S.S.R.#.#.#",
".#.#.#.T.U.U.U.U.U.U.U.U.U.U.U.U.U.U.U.U.U.U.U.U.U.U.U.U.U.U.U.U.U.U.U.U.U.U.U.U.U.U.U.U.U.U.U.U.U.U.U.U.U.U.U.U.U.U.U.U.T.#.#.#",
".#.#.#.T.V.V.V.V.V.V.V.V.V.V.V.V.V.V.V.V.V.V.V.V.V.V.V.V.V.V.V.V.V.V.V.V.V.V.V.V.V.V.V.V.V.V.V.V.V.V.V.V.V.V.V.V.V.V.V.V.T.#.#.#",
".#.#.#.W.X.X.X.X.X.X.X.X.X.X.X.X.X.X.X.X.X.X.X.X.X.X.X.X.X.X.X.X.X.X.X.X.X.X.X.X.X.X.X.X.X.X.X.X.X.X.X.X.X.X.X.X.X.X.X.X.W.#.#.#",
".#.#.#.Y.Z.Z.Z.Z.Z.Z.Z.Z.Z.Z.Z.Z.Z.Z.Z.Z.Z.Z.Z.Z.Z.Z.Z.Z.Z.Z.Z.Z.Z.Z.Z.Z.Z.Z.Z.Z.Z.Z.Z.Z.Z.Z.Z.Z.Z.Z.Z.Z.Z.Z.Z.Z.Z.Z.Z.Z.Y.#.#.#",
".#.#.#.0.1.1.1.1.1.1.1.1.1.1.1.1.1.1.1.1.1.1.1.1.1.1.1.1.1.1.1.1.1.1.1.1.1.1.1.1.1.1.1.1.1.1.1.1.1.1.1.1.1.1.1.1.1.1.1.1.0.#.#.#",
".#.#.#.0.1.1.1.1.1.1.1.1.1.2.3.3.3.3.3.3.3.3.3.3.3.3.3.3.3.3.3.3.3.3.3.3.3.3.3.3.3.3.3.3.3.3.3.3.3.3.2.1.1.1.1.1.1.1.1.1.0.#.#.#",
".#.#.#.4.5.5.5.5.5.5.5.5.5.6.7.7.7.7.7.7.7.7.7.7.7.7.7.7.7.7.7.7.7.7.7.7.7.7.7.7.7.7.7.7.7.7.7.7.7.7.6.5.5.5.5.5.5.5.5.5.4.#.#.#",
".#.#.#.8.9.9.9.9.9.9.9.9.9#.#########################################################################..9.9.9.9.9.9.9.9.9.8.#.#.#",
".#.#.##a#b#b#b#b#b#b#b#b#b#c#d#d#d#d#d#d#d#d#d#d#d#d#d#d#d#d#d#d#d#d#d#d#d#d#d#d#d#d#d#d#d#d#d#d#d#d#c#b#b#b#b#b#b#b#b#b#a.#.#.#",
".#.#.##a#e#e#e#e#e#e#e#e#e#f#g#g#g#g#g#g#g#g#g#g#g#g#g#g#g#g#g#g#g#g#g#g#g#g#g#g#g#g#g#g#g#g#g#g#g#g#f#e#e#e#e#e#e#e#e#e#a.#.#.#",
".#.#.##h#i#i#i#i#i#i#i#i#i#j#k#k#k#k#k#k#k#k#k#k#k#k#k#k#k#k#k#k#k#k#k#k#k#k#k#k#k#k#k#k#k#k#k#k#k#k#j#i#i#i#i#i#i#i#i#i#h.#.#.#",
".#.#.##h#l#l#l#l#l#l#l#l#l#m#n#n#n#n#n#n#n#n#n#n#n#n#n#n#n#n#n#n#n#n#n#n#n#n#n#n#n#n#n#n#n#n#n#n#n#n#m#l#l#l#l#l#l#l#l#l#h.#.#.#",
".#.#.##o#p#p#p#p#p#p#p#p#p#q#r#r#r#r#r#r#r#r#r#r#r#r#r#r#r#r#r#r#r#r#r#r#r#r#r#r#r#r#r#r#r#r#r#r#r#r#q#p#p#p#p#p#p#p#p#p#o.#.#.#",
".#.#.##s#t#t#t#t#t#t#t#t#t#u#v#v#v#v#v#v#v#v#v#v#v#v#v#v#v#v#v#v#v#v#v#v#v#v#v#v#v#v#v#v#v#v#v#v#v#v#u#t#t#t#t#t#t#t#t#t#s.#.#.#",
".#.#.##w#x#x#x#x#x#x#x#x#x#y#z#z#z#z#z#z#z#z#z#z#z#z#z#z#z#z#z#z#z#z#z#z#z#z#z#z#z#z#z#z#z#z#z#z#z#z#y#x#x#x#x#x#x#x#x#x#w.#.#.#",
".#.#.##A#B#B#B#B#B#B#B#B#B#C#D#D#D#D#D#D#D#D#D#D#D#D#D#D#D#D#D#D#D#D#D#D#D#D#D#D#D#D#D#D#D#D#D#D#D#D#C#B#B#B#B#B#B#B#B#B#A.#.#.#",
".#.#.##E#F#F#F#F#F#F#F#F#F#G#H#H#H#H#H#H#H#H#H#H#H#H#H#H#H#H#H#H#H#H#H#H#H#H#H#H#H#H#H#H#H#H#H#H#H#H#G#F#F#F#F#F#F#F#F#F#E.#.#.#",
".#.#.##I#J#J#J#J#J#J#J#J#J#K#L#L#L#L#L#L#L#L#L#L#L#L#L#L#L#L#L#L#L#L#L#L#L#L#L#L#L#L#L#L#L#L#L#L#L#L#K#J#J#J#J#J#J#J#J#J#I.#.#.#",
".#.#.##I#m#m#m#m#m#m#m#m#m#M#N#N#N#N#N#N#N#N#N#N#N#N#N#N#N#N#N#N#N#N#N#N#N#N#N#N#N#N#N#N#N#N#N#N#N#N#M#m#m#m#m#m#m#m#m#m#I.#.#.#",
".#.#.##I#m#m#m#m#m#m#m#m#m#m#M#M#M#M#M#M#M#M#M#M#M#M#M#M#M#M#M#M#M#M#M#M#M#M#M#M#M#M#M#M#M#M#M#M#M#M#m#m#m#m#m#m#m#m#m#m#I.#.#.#",
".#.#.##O#P#P#P#P#P#P#P#P#P#P#P#P#P#P#P#P#P#P#P#P#P#P#P#P#P#P#P#P#P#P#P#P#P#P#P#P#P#P#P#P#P#P#P#P#P#P#P#P#P#P#P#P#P#P#P#P#O.#.#.#",
".#.#.##Q#R#R#R#R#R#R#R#R#R#R#R#R#R#R#R#R#R#R#R#R#R#R#R#R#R#R#R#R#R#R#R#R#R#R#R#R#R#R#R#R#R#R#R#R#R#R#R#R#R#R#R#R#R#R#R#R#Q.#.#.#",
".#.#.##S#C#C#C#C#C#C#C#C#C#C#C#C#C#C#C#C#C#C#C#C#C#C#C#C#C#C#C#C#C#C#C#C#C#C#C#C#C#C#C#C#C#C#C#C#C#C#C#C#C#C#C#C#C#C#C#C#S.#.#.#",
".#.#.##T#G#G#G#G#G#G#G#G#G#G#G#G#G#G#G#G#G#G#G#G#G#G#G#G#G#G#G#G#G#G#G#G#G#G#G#G#G#G#G#G#G#G#G#G#G#G#G#G#G#G#G#G#G#G#G#G#T.#.#.#",
".#.#.##U#K#K#K#K#K#K#K#K#K#K#K#K#K#K#K#K#K#K#K#K#K#K#K#K#K#K#K#K#K#K#K#K#K#K#K#K#K#K#K#K#K#K#K#K#K#K#K#K#K#K#K#K#K#K#K#K#U.#.#.#",
".#.#.##T#V#V#V#V#V#V#V#V#V#V#V#V#V#V#V#V#V#V#V#V#V#V#V#V#V#V#V#V#V#V#V#V#V#V#V#V#V#V#V#V#V#V#V#V#V#V#V#V#V#V#V#V#V#V#V#V#T.#.#.#",
".#.#.##S#W#X#X#X#X#X#X#X#X#X#X#X#X#X#X#X#X#X#X#X#X#X#X#X#X#X#X#X#X#X#X#X#X#X#X#X#X#X#X#X#X#X#X#X#X#X#X#X#X#X#X#X#X#X#X#W#S.#.#.#",
".#.#.##Y#Z#W#W#W#W#W#W#W#W#W#W#W#W#W#W#W#W#W#W#W#W#W#W#W#W#W#W#W#W#W#W#W#W#W#W#W#W#W#W#W#W#W#W#W#W#W#W#W#W#W#W#W#W#W#W#Z#Q#0#0#0",
"#1#1#1#Q#2#3#4#4#4#4#4#4#4#4#4#4#4#4#4#4#4#4#4#4#4#4#4#4#4#4#4#4#4#4#4#4#4#4#4#4#4#4#4#4#4#4#4#4#4#4#4#4#4#4#4#4#4#4#3#2#I.q.q.q",
"#5#5#6#I#7#2#3#3#3#3#3#3#3#3#3#3#3#3#3#3#3#3#3#3#3#3#3#3#3#3#3#3#3#3#3#3#3#3#3#3#3#3#3#3#3#3#3#3#3#3#3#3#3#3#3#3#3#3#2#7#A#8#8#8",
"#9#9#9a.a#a#aaab#Z#Z#Z#Z#Z#Z#Z#Z#Z#Z#Z#Z#Z#Z#Z#Z#Z#Z#Z#Z#Z#Z#Z#Z#Z#Z#Z#Z#Z#Z#Z#Z#Z#Z#Z#Z#Z#Z#Z#Z#Z#Z#Z#Z#Z#Z#Z#Zabaaa#a#acadadad",
"aeafafagahahahaiajakalamamamamamamamamamamamamamamamamamamamamamamamamamamamamamamamamamamamamamamamamamamalakajaiahahahanaoaoap",
"aqararasatauauauauauauauauauauauauauauauauauauauauauauauauauauauauauauauauauauauauauauauauauauauauauauauauauauauauauauatavawawax",
"ayazazazaAaBaBaBaBaBaBaBaBaBaBaBaBaBaBaBaBaBaBaBaBaBaBaBaBaBaBaBaBaBaBaBaBaBaBaBaBaBaBaBaBaBaBaBaBaBaBaBaBaBaBaBaBaBaBaCaDaDaDaE",
"aFaGaHaHaIaJaCaCaCaCaCaCaCaCaCaCaCaCaCaCaCaCaCaCaCaCaCaCaCaCaCaCaCaCaCaCaCaCaCaCaCaCaCaCaCaCaCaCaCaCaCaCaCaCaCaCaCaCaJaKaLaLaMaN",
"QtaOaPaPaPaQ#a#s#s#s#s#s#s#s#s#s#s#s#s#s#s#s#s#s#s#s#s#s#s#s#s#s#s#s#s#s#s#s#s#s#s#s#s#s#s#s#s#s#s#s#s#s#s#s#s#s#s#aaRaSaSaSaTQt",
"QtaUaVaWaWaXaWaRaYaZaZaZaZaZaZaZaZaZaZaZaZaZaZaZaZaZaZaZaZaZaZaZaZaZaZaZaZaZaZaZaZaZaZaZaZaZaZaZaZaZaZaZaZaZaZa0a1a2a3a3a3a4a5Qt",
"QtQta6a7a8a9a9a9axaqb.b.b.b.b.b.b.b.b.b.b.b.b#babababababababababababababababababababbbbbcbcbcbcbcbcbcbcbcbdbebfbgbgbgbhbia6QtQt",
"QtQtQtbjbkblbmbnbhbhbhbhbhbhbhbobobpbpbpbpbpbpbpbpbpbpbpbqbqbqbqbqbqbqbqbqbqbrbrbrbrbrbrbrbrbrbrbsbsbsbsbsbsbsbsbtbubvbwbxQtQtQt",
"QtQtQtQtQtbybkbzbAbAbAbAbAbAbAbAbAbAbAbAbAbAbAbAbAbAbAbAbAbAbAbAbAbAbAbAbAbAbAbAbAbAbAbAbAbAbAbAbAbAbAbAbAbAbAbAbBbCbzQtQtQtQtQt",
"QtQtQtQtQtQtQtQtQtQtQtQtQtQtQtQtQtQtQtQtQtQtQtQtQtQtQtQtQtQtQtQtQtQtQtQtQtQtQtQtQtQtQtQtQtQtQtQtQtQtQtQtQtQtQtQtQtQtQtQtQtQtQtQt",
"QtQtQtQtQtQtQtQtQtQtQtQtQtQtQtQtQtQtQtQtQtQtQtQtQtQtQtQtQtQtQtQtQtQtQtQtQtQtQtQtQtQtQtQtQtQtQtQtQtQtQtQtQtQtQtQtQtQtQtQtQtQtQtQt",
"QtQtQtQtQtQtQtQtQtQtQtQtQtQtQtQtQtQtQtQtQtQtQtQtQtQtQtQtQtQtQtQtQtQtQtQtQtQtQtQtQtQtQtQtQtQtQtQtQtQtQtQtQtQtQtQtQtQtQtQtQtQtQtQt",
"QtQtQtQtQtQtQtQtQtQtQtQtQtQtQtQtQtQtQtQtQtQtQtQtQtQtQtQtQtQtQtQtQtQtQtQtQtQtQtQtQtQtQtQtQtQtQtQtQtQtQtQtQtQtQtQtQtQtQtQtQtQtQtQt"};
