/* XPM */
static char *dummy[]={
"64 64 255 2",
"Qt c None",
"aD c #212b2b",
"aw c #222c2c",
"as c #242e2e",
"ap c #252f2f",
"am c #263030",
"ai c #283232",
"af c #293333",
"ad c #2a3434",
"aa c #2c3636",
"#9 c #2d3737",
"#7 c #2e3838",
"#4 c #303a3a",
"#1 c #313b3b",
"#X c #323c3c",
"#T c #343e3e",
"#P c #353f3f",
"#L c #364040",
"#H c #384242",
"#E c #394343",
"#B c #3a4444",
"#y c #3c4646",
"#u c #3d4747",
"#q c #3e4848",
"#m c #404a4a",
"#i c #414b4b",
"#f c #424c4c",
"#b c #434d4d",
".9 c #454f4f",
".6 c #465050",
".3 c #475151",
".Z c #495353",
".W c #4a5454",
".R c #4b5555",
".M c #4d5757",
".# c #505a5a",
"ax c #515b5b",
"ay c #525c5c",
".q c #535d5d",
"aE c #545e5e",
"aF c #555e5e",
".a c #565f5f",
"aJ c #566060",
"aK c #586262",
"aS c #5b6464",
"aT c #5d6666",
".l c #5d6767",
"#l c #606969",
".e c #616b6b",
"a3 c #636c6c",
"a4 c #646d6d",
"a8 c #666f6f",
"a7 c #677070",
"b# c #6a7373",
"aU c #6c7676",
"aC c #6e7676",
"av c #6f7676",
"a1 c #6f7878",
"ao c #707878",
"al c #727979",
"bg c #727a7a",
"ah c #737a7a",
"ac c #747c7c",
"#6 c #757c7c",
"a# c #757d7d",
"bj c #767e7e",
".v c #767f7f",
"#8 c #777f7f",
"bi c #787f7f",
"bw c #7a8484",
"bn c #7b8383",
"aL c #7b8484",
"bv c #7b8585",
"bx c #7b8686",
"aj c #7c8686",
"bf c #7d8484",
"aR c #7d8585",
"ag c #7d8787",
"ae c #7d8888",
"at c #7e8787",
"ab c #7e8888",
"a. c #7e8989",
"#2 c #7f8989",
"#Y c #7f8a8a",
"bq c #808787",
"bo c #808888",
"#U c #808a8a",
"#Q c #808b8b",
"bk c #818888",
"#M c #818b8b",
"#I c #818c8c",
"#k c #828c8c",
"bp c #838b8b",
"#v c #838d8d",
"#r c #838e8e",
".b c #848c8c",
"by c #848d8d",
"#n c #848e8e",
"#g c #848f8f",
"#e c #858c8c",
"#c c #858f8f",
"#. c #859090",
"bu c #868c8c",
"#a c #868e8e",
".4 c #869090",
".8 c #878f8f",
"ba c #879292",
".2 c #889090",
"bc c #889292",
"bh c #889393",
".i c #899090",
"bz c #899191",
".0 c #899494",
"bA c #8a9191",
"bH c #8a9292",
"bI c #8a9393",
".V c #8b9292",
"bJ c #8b9393",
"bK c #8b9494",
".Q c #8c9494",
".L c #8d9595",
"a2 c #8e9494",
".G c #8e9696",
"bb c #8f9898",
"a9 c #909696",
".X c #909a9a",
"bG c #919797",
"bL c #919898",
".S c #949d9d",
"a5 c #949e9e",
"a6 c #949f9f",
"bM c #959b9b",
"bN c #969c9c",
".B c #969f9f",
"b. c #989e9e",
".N c #98a0a0",
"bF c #999e9e",
"aV c #99a3a3",
"bd c #9aa0a0",
".H c #9ba4a4",
"aW c #9ca5a5",
"bO c #9da3a3",
"bU c #9ea3a3",
"aM c #9ea8a8",
"bV c #9fa4a4",
"bW c #a0a5a5",
"bX c #a1a6a6",
"bY c #a2a7a7",
"aG c #a3adad",
"aN c #a4aeae",
"aX c #a5afaf",
"bT c #a9aeae",
"az c #a9b3b3",
"aY c #a9b4b4",
".c c #acb3b3",
".F c #adb5b5",
"bZ c #aeb2b2",
"aZ c #aeb8b8",
"aO c #b0b9b9",
"a0 c #b0baba",
"au c #b1bbbb",
".d c #b2b8b8",
"aA c #b2bcbc",
"aB c #b3bdbd",
"aq c #b4bebe",
"ar c #b5bfbf",
"an c #b6c0c0",
"ak c #b7c1c1",
"bt c #b8bcbc",
"#3 c #b8c1c1",
"#0 c #b8c2c2",
"#W c #b9c3c3",
"#S c #bac4c4",
"bB c #bbbfbf",
"#O c #bbc5c5",
"#K c #bcc6c6",
"#G c #bdc7c7",
"bS c #bec1c1",
"#Z c #bec8c8",
"#D c #bfc7c7",
"#V c #bfc9c9",
"#A c #c0c8c8",
"#x c #c0c9c9",
"#R c #c0caca",
"b0 c #c1c4c4",
"#t c #c1caca",
"#N c #c1cbcb",
"#p c #c2cbcb",
"#J c #c2cccc",
"#F c #c3cdcd",
".o c #c4caca",
"#C c #c4cece",
"be c #c5c9c9",
"#j c #c5cece",
"#z c #c5cfcf",
"bl c #c6c9c9",
"aH c #c6cccc",
"#w c #c6d0d0",
"#s c #c7d1d1",
"#o c #c8d2d2",
"aP c #c9d0d0",
"#h c #c9d3d3",
"#d c #cad4d4",
"## c #cbd5d5",
".7 c #ccd6d6",
".5 c #cdd7d7",
"aI c #ced0d0",
".1 c #ced8d8",
".Y c #cfd9d9",
".U c #d0dada",
".P c #d1dbdb",
".K c #d2dcdc",
"bR c #d3d5d5",
"bm c #d3d6d6",
".T c #d3dcdc",
".E c #d3dddd",
".f c #d4d8d8",
".D c #d4dddd",
".A c #d4dede",
"br c #d5d7d7",
"b1 c #d5d8d8",
".z c #d9e1e1",
"aQ c #dadfdf",
".J c #dbe3e3",
"bE c #dddfdf",
".y c #dde5e5",
"#5 c #dee0e0",
".O c #dee5e5",
".C c #dfe6e6",
"bs c #e1e3e3",
"bC c #e2e3e3",
".I c #e3e9e9",
".x c #e7ecec",
".m c #e9eded",
".w c #eaeeee",
".r c #eaefef",
".u c #ebf0f0",
".t c #ecf1f1",
".j c #edf0f0",
".s c #edf1f1",
"bD c #eeefef",
"bP c #f0f1f1",
".p c #f0f3f3",
"b3 c #f2f2f2",
".n c #f2f5f5",
"bQ c #f4f5f5",
"b8 c #f5f5f5",
"b2 c #f5f6f6",
".k c #f5f7f7",
".g c #f6f8f8",
".h c #f7f9f9",
"b4 c #f8f8f8",
"b5 c #f9f9f9",
"b7 c #f9fafa",
"b6 c #ffffff",
"QtQtQtQtQtQtQtQtQtQtQtQtQtQtQtQtQtQtQtQtQtQtQtQtQtQtQtQtQtQtQtQtQtQtQtQtQtQtQtQtQtQtQtQtQtQtQtQtQtQtQtQtQtQtQtQtQtQtQtQtQtQtQtQt",
"QtQtQtQtQtQtQtQtQtQtQtQtQtQtQtQtQtQtQtQtQtQtQtQtQtQtQtQtQtQtQtQtQtQtQtQtQtQtQtQtQtQtQtQtQtQtQtQtQtQtQtQtQtQtQtQtQtQtQtQtQtQtQtQt",
"QtQtQtQtQtQtQtQtQtQtQtQtQtQtQtQtQtQtQtQtQtQtQtQtQtQtQtQtQtQtQtQtQtQtQtQtQtQtQtQtQtQtQtQtQtQtQtQtQtQtQtQtQtQtQtQtQtQtQtQtQtQtQtQt",
"QtQtQtQtQtQtQtQtQtQtQtQtQtQtQtQtQtQtQtQtQtQtQtQtQtQtQtQtQtQtQtQtQtQtQtQtQtQtQtQtQtQtQtQtQtQtQtQtQtQtQtQtQtQtQtQtQtQtQtQtQtQtQtQt",
"QtQtQtQtQtQt.#.#.#.#.#.#.#.#.#.#.#.#.#.#.#.#.#.#.#.#.#.#.#.#.#.#.#.#.#.#.#.#.#.#.#.#.#.#.#.#.#.#.#.#.#.#.#.#.#.#.#.#QtQtQtQtQtQt",
"QtQtQtQt.#.#.#.#.#.#.#.#.#.#.#.#.#.#.#.#.#.#.#.#.#.#.#.#.#.#.#.#.#.#.#.#.#.#.#.#.#.#.#.#.#.#.#.#.#.#.#.#.#.#.#.#.#.#.#.#QtQtQtQt",
"QtQt.#.#.#.#.#.#.#.#.#.#.#.#.#.#.#.#.#.#.#.#.#.#.#.#.#.#.#.#.#.#.#.#.#.#.#.#.#.#.#.#.#.#.#.#.#.#.#.#.#.#.#.#.#.#.#.#.#.#.#.#QtQt",
"QtQt.#.#.#.#.#.#.a.b.c.d.d.d.d.d.d.d.d.d.d.d.d.d.d.d.d.d.d.d.d.d.d.d.d.d.d.d.d.d.d.d.d.d.d.d.d.d.d.d.d.d.d.c.b.a.#.#.#.#.#.#QtQt",
"Qt.#.#.#.#.#.e.f.g.h.h.h.h.h.h.h.h.h.h.h.h.h.h.h.h.h.h.h.h.h.h.h.h.h.h.h.h.h.h.h.h.h.h.h.h.h.h.h.h.h.h.h.h.h.h.g.f.e.#.#.#.#.#Qt",
".#.#.#.#.#.i.j.k.k.k.k.k.k.k.k.k.k.k.k.k.k.k.k.k.k.k.k.k.k.k.k.k.k.k.k.k.k.k.k.k.k.k.k.k.k.k.k.k.k.k.k.k.k.k.k.k.k.j.i.#.#.#.#.#",
".#.#.#.#.l.m.n.n.n.n.n.n.n.n.n.n.n.n.n.n.n.n.n.n.n.n.n.n.n.n.n.n.n.n.n.n.n.n.n.n.n.n.n.n.n.n.n.n.n.n.n.n.n.n.n.n.n.n.m.l.#.#.#.#",
".#.#.#.#.o.p.p.p.p.p.p.p.p.p.p.p.p.p.p.p.p.p.p.p.p.p.p.p.p.p.p.p.p.p.p.p.p.p.p.p.p.p.p.p.p.p.p.p.p.p.p.p.p.p.p.p.p.p.p.o.#.#.#.#",
".#.#.#.q.r.s.s.s.s.s.t.u.u.u.u.u.u.u.u.u.u.u.u.u.u.u.u.u.u.u.u.u.u.u.u.u.u.u.u.u.u.u.u.u.u.u.u.u.u.u.u.u.u.t.s.s.s.s.s.r.q.#.#.#",
".#.#.#.v.w.w.w.x.y.z.A.A.A.A.A.A.A.A.A.A.A.A.A.A.A.A.A.A.A.A.A.A.A.A.A.A.A.A.A.A.A.A.A.A.A.A.A.A.A.A.A.A.A.A.z.y.x.w.w.w.v.#.#.#",
".#.#.#.B.x.x.C.D.E.E.E.E.E.E.E.E.E.E.E.E.E.E.E.E.E.F.G.G.G.G.G.G.G.G.G.G.G.G.F.E.E.E.E.E.E.E.E.E.E.E.E.E.E.E.E.E.D.C.x.x.B.#.#.#",
".#.#.#.H.I.J.K.K.K.K.K.K.K.K.K.K.K.K.K.K.K.K.K.K.K.L.M.M.M.M.M.M.M.M.M.M.M.M.L.K.K.K.K.K.K.K.K.K.K.K.K.K.K.K.K.K.K.K.J.I.H.#.#.#",
".#.#.#.N.O.P.P.P.P.P.P.P.P.P.P.P.P.P.P.P.P.P.P.P.P.Q.R.R.R.R.R.R.R.R.R.R.R.R.Q.P.P.P.P.P.P.P.P.P.P.P.P.P.P.P.P.P.P.P.P.O.N.#.#.#",
".#.#.#.S.T.U.U.U.U.U.U.U.U.U.U.U.U.U.U.U.U.U.U.U.U.V.W.W.W.W.W.W.W.W.W.W.W.W.V.U.U.U.U.U.U.U.U.U.U.U.U.U.U.U.U.U.U.U.U.T.S.#.#.#",
".#.#.#.X.Y.Y.Y.Y.Y.Y.Y.Y.Y.Y.Y.Y.Y.Y.Y.Y.Y.Y.Y.Y.Y.V.Z.Z.Z.Z.Z.Z.Z.Z.Z.Z.Z.Z.V.Y.Y.Y.Y.Y.Y.Y.Y.Y.Y.Y.Y.Y.Y.Y.Y.Y.Y.Y.Y.Y.X.#.#.#",
".#.#.#.0.1.1.1.1.1.1.1.1.1.1.1.1.1.1.1.1.1.1.1.1.1.2.3.3.3.3.3.3.3.3.3.3.3.3.2.1.1.1.1.1.1.1.1.1.1.1.1.1.1.1.1.1.1.1.1.1.0.#.#.#",
".#.#.#.4.5.5.5.5.5.5.5.5.5.5.5.5.5.5.5.5.5.5.5.5.5.2.6.6.6.6.6.6.6.6.6.6.6.6.2.5.5.5.5.5.5.5.5.5.5.5.5.5.5.5.5.5.5.5.5.5.4.#.#.#",
".#.#.#.4.7.7.7.7.7.7.7.7.7.7.7.7.7.7.7.7.7.7.7.7.7.8.9.9.9.9.9.9.9.9.9.9.9.9.8.7.7.7.7.7.7.7.7.7.7.7.7.7.7.7.7.7.7.7.7.7.4.#.#.#",
".#.#.##.###########################################a#b#b#b#b#b#b#b#b#b#b#b#b#a###########################################..#.#.#",
".#.#.##c#d#d#d#d#d#d#d#d#d#d#d#d#d#d#d#d#d#d#d#d#d#e#f#f#f#f#f#f#f#f#f#f#f#f#e#d#d#d#d#d#d#d#d#d#d#d#d#d#d#d#d#d#d#d#d#d#c.#.#.#",
".#.#.##g#h#h#h#h#h#h#h#h#h#h#h#h#h#h#h#h#h#h#h#h#h#e#i#i#i#i#i#i#i#i#i#i#i#i#e#h#h#h#h#h#h#h#h#h#h#h#h#h#h#h#h#h#h#h#h#h#g.#.#.#",
".#.#.##g#h#h#h#h#h#h#h#h#h#j#k#k#k#k#k#k#k#k#k#k#k#l#m#m#m#m#m#m#m#m#m#m#m#m#l#k#k#k#k#k#k#k#k#k#k#k#j#h#h#h#h#h#h#h#h#h#g.#.#.#",
".#.#.##n#o#o#o#o#o#o#o#o#o#p#q#q#q#q#q#q#q#q#q#q#q#q#q#q#q#q#q#q#q#q#q#q#q#q#q#q#q#q#q#q#q#q#q#q#q#q#p#o#o#o#o#o#o#o#o#o#n.#.#.#",
".#.#.##r#s#s#s#s#s#s#s#s#s#t#u#u#u#u#u#u#u#u#u#u#u#u#u#u#u#u#u#u#u#u#u#u#u#u#u#u#u#u#u#u#u#u#u#u#u#u#t#s#s#s#s#s#s#s#s#s#r.#.#.#",
".#.#.##v#w#w#w#w#w#w#w#w#w#x#y#y#y#y#y#y#y#y#y#y#y#y#y#y#y#y#y#y#y#y#y#y#y#y#y#y#y#y#y#y#y#y#y#y#y#y#x#w#w#w#w#w#w#w#w#w#v.#.#.#",
".#.#.##v#z#z#z#z#z#z#z#z#z#A#B#B#B#B#B#B#B#B#B#B#B#B#B#B#B#B#B#B#B#B#B#B#B#B#B#B#B#B#B#B#B#B#B#B#B#B#A#z#z#z#z#z#z#z#z#z#v.#.#.#",
".#.#.##k#C#C#C#C#C#C#C#C#C#D#E#E#E#E#E#E#E#E#E#E#E#E#E#E#E#E#E#E#E#E#E#E#E#E#E#E#E#E#E#E#E#E#E#E#E#E#D#C#C#C#C#C#C#C#C#C#k.#.#.#",
".#.#.##k#F#F#F#F#F#F#F#F#F#G#H#H#H#H#H#H#H#H#H#H#H#H#H#H#H#H#H#H#H#H#H#H#H#H#H#H#H#H#H#H#H#H#H#H#H#H#G#F#F#F#F#F#F#F#F#F#k.#.#.#",
".#.#.##I#J#J#J#J#J#J#J#J#J#K#L#L#L#L#L#L#L#L#L#L#L#L#L#L#L#L#L#L#L#L#L#L#L#L#L#L#L#L#L#L#L#L#L#L#L#L#K#J#J#J#J#J#J#J#J#J#I.#.#.#",
".#.#.##M#N#N#N#N#N#N#N#N#N#O#P#P#P#P#P#P#P#P#P#P#P#P#P#P#P#P#P#P#P#P#P#P#P#P#P#P#P#P#P#P#P#P#P#P#P#P#O#N#N#N#N#N#N#N#N#N#M.#.#.#",
".#.#.##Q#R#R#R#R#R#R#R#R#R#S#T#T#T#T#T#T#T#T#T#T#T#T#T#T#T#T#T#T#T#T#T#T#T#T#T#T#T#T#T#T#T#T#T#T#T#T#S#R#R#R#R#R#R#R#R#R#Q.#.#.#",
".#.#.##U#V#V#V#V#V#V#V#V#V#W#X#X#X#X#X#X#X#X#X#X#X#X#X#X#X#X#X#X#X#X#X#X#X#X#X#X#X#X#X#X#X#X#X#X#X#X#W#V#V#V#V#V#V#V#V#V#U.#.#.#",
".#.#.##Y#Z#Z#Z#Z#Z#Z#Z#Z#Z#0#1#1#1#1#1#1#1#1#1#1#1#1#1#1#1#1#1#1#1#1#1#1#1#1#1#1#1#1#1#1#1#1#1#1#1#1#0#Z#Z#Z#Z#Z#Z#Z#Z#Z#Y.#.#.#",
".#.#.##2#G#G#G#G#G#G#G#G#G#3#4#4#4#4#4#4#4#4#4#4#4#4#4#4#4#4#4#4#4#4#4#4#4#4#4#4#4#4#4#4#4#4#4#4#4#4#3#G#G#G#G#G#G#G#G#G#2.#.#.#",
".#.#.##2#K#K#K#K#K#K#K#K#K#Z#5#5#5#5#5#5#5#5#5#5#5#6#7#7#7#7#7#7#7#7#7#7#7#7#6#5#5#5#5#5#5#5#5#5#5#5#Z#K#K#K#K#K#K#K#K#K#2.#.#.#",
".#.#.##2#K#K#K#K#K#K#K#K#K#K#x#x#x#x#x#x#x#x#x#x#x#8#9#9#9#9#9#9#9#9#9#9#9#9#8#x#x#x#x#x#x#x#x#x#x#x#K#K#K#K#K#K#K#K#K#K#2.#.#.#",
".#.#.#a.#O#O#O#O#O#O#O#O#O#O#O#O#O#O#O#O#O#O#O#O#Oa#aaaaaaaaaaaaaaaaaaaaaaaaa##O#O#O#O#O#O#O#O#O#O#O#O#O#O#O#O#O#O#O#O#Oa..#.#.#",
".#.#.#ab#S#S#S#S#S#S#S#S#S#S#S#S#S#S#S#S#S#S#S#S#Sacadadadadadadadadadadadadac#S#S#S#S#S#S#S#S#S#S#S#S#S#S#S#S#S#S#S#S#Sab.#.#.#",
".#.#.#ae#W#W#W#W#W#W#W#W#W#W#W#W#W#W#W#W#W#W#W#W#Wacafafafafafafafafafafafafac#W#W#W#W#W#W#W#W#W#W#W#W#W#W#W#W#W#W#W#W#Wae.#.#.#",
".#.#.#ag#0#0#0#0#0#0#0#0#0#0#0#0#0#0#0#0#0#0#0#0#0ahaiaiaiaiaiaiaiaiaiaiaiaiah#0#0#0#0#0#0#0#0#0#0#0#0#0#0#0#0#0#0#0#0#0ag.#.#.#",
".#.#.#ajakakakakakakakakakakakakakakakakakakakakakalamamamamamamamamamamamamalakakakakakakakakakakakakakakakakakakakakakaj.#.#.#",
".#.#.#aganananananananananananananananananananananaoapapapapapapapapapapapapaoanananananananananananananananananananananag.#.#.#",
".#.#.#aeaqararararararararararararararararararararaoasasasasasasasasasasasasaoararararararararararararararararararararaqae.#.#.#",
".#.#.#atauaqaqaqaqaqaqaqaqaqaqaqaqaqaqaqaqaqaqaqaqavawawawawawawawawawawawawavaqaqaqaqaqaqaqaqaqaqaqaqaqaqaqaqaqaqaqaqauabaxaxax",
"ayayayabazaAaBaBaBaBaBaBaBaBaBaBaBaBaBaBaBaBaBaBaBaCaDaDaDaDaDaDaDaDaDaDaDaDaCaBaBaBaBaBaBaBaBaBaBaBaBaBaBaBaBaBaBaBaAaz#2.q.q.q",
"aEaEaF#2aGazaAaAaAaAaAaAaAaAaAaAaAaAaAaAaAaAaAaAaAaHaIaIaIaIaIaIaIaIaIaIaIaIaHaAaAaAaAaAaAaAaAaAaAaAaAaAaAaAaAaAaAaAazaG#UaJaJaJ",
"aKaKaKaLaMaMaNaOauauauauauauauauauauauauauauauauauaPaQaQaQaQaQaQaQaQaQaQaQaQaPauauauauauauauauauauauauauauauauauaOaNaMaMaRaSaSaS",
"a#aTaTaUaVaVaVaWaXaYaZa0a0a0a0a0a0a0a0a0a0a0a0a0a0a0a0a0a0a0a0a0a0a0a0a0a0a0a0a0a0a0a0a0a0a0a0a0a0a0a0a0a0aZaYaXaWaVaVaVa1#l#l#8",
"a2a3a3a4a5a6a6a6a6a6a6a6a6a6a6a6a6a6a6a6a6a6a6a6a6a6a6a6a6a6a6a6a6a6a6a6a6a6a6a6a6a6a6a6a6a6a6a6a6a6a6a6a6a6a6a6a6a6a6a5a7a8a8a9",
"b.b#b#b#babbbbbbbbbbbbbbbbbbbbbbbbbbbbbbbbbbbbbbbbbbbbbbbbbbbbbbbbbbbbbbbbbbbbbbbbbbbbbbbbbbbbbbbbbbbbbbbbbbbbbbbbbbbbbcaCaCaCbd",
"bebfbgbgacbhbcbcbcbcbcbcbcbcbcbcbcbcbcbcbcbcbcbcbcbcbcbcbcbcbcbcbcbcbcbcbcbcbcbcbcbcbcbcbcbcbcbcbcbcbcbcbcbcbcbcbcbcbhbibjbjbkbl",
"Qtbmbnbnbnbo#v#M#M#M#M#M#M#M#M#M#M#M#M#M#M#M#M#M#M#M#M#M#M#M#M#M#M#M#M#M#M#M#M#M#M#M#M#M#M#M#M#M#M#M#M#M#M#M#M#M#M#vbpbqbqbqbrQt",
"Qtbsbt#e#ebu#ebpbvbwbwbwbwbwbwbwbwbwbwbwbwbwbwbwbwbwbwbwbwbwbwbwbwbwbwbwbwbwbwbwbwbwbwbwbwbwbwbwbwbwbwbwbwbwbwbxbybzbAbAbAbBbCQt",
"QtQtbDbEbFbGbGbGa9a2bHbHbHbHbHbHbHbHbHbHbHbHbIbJbJbJbJbJbJbJbJbJbJbJbJbJbJbJbJbJbJbJbKbK.Q.Q.Q.Q.Q.Q.Q.Q.Q.LbLbMbNbNbNbO#5bDQtQt",
"QtQtQtbPbQbRbSbTbObObObObObObObUbUbVbVbVbVbVbVbVbVbVbVbVbWbWbWbWbWbWbWbWbWbWbXbXbXbXbXbXbXbXbXbXbYbYbYbYbYbYbYbYbZb0b1b2b3QtQtQt",
"QtQtQtQtQtb4bQb5b6b6b6b6b6b6b6b6b6b6b6b6b6b6b6b6b6b6b6b6b6b6b6b6b6b6b6b6b6b6b6b6b6b6b6b6b6b6b6b6b6b6b6b6b6b6b6b6b7b8b5QtQtQtQtQt",
"QtQtQtQtQtQtQtQtQtQtQtQtQtQtQtQtQtQtQtQtQtQtQtQtQtQtQtQtQtQtQtQtQtQtQtQtQtQtQtQtQtQtQtQtQtQtQtQtQtQtQtQtQtQtQtQtQtQtQtQtQtQtQtQt",
"QtQtQtQtQtQtQtQtQtQtQtQtQtQtQtQtQtQtQtQtQtQtQtQtQtQtQtQtQtQtQtQtQtQtQtQtQtQtQtQtQtQtQtQtQtQtQtQtQtQtQtQtQtQtQtQtQtQtQtQtQtQtQtQt",
"QtQtQtQtQtQtQtQtQtQtQtQtQtQtQtQtQtQtQtQtQtQtQtQtQtQtQtQtQtQtQtQtQtQtQtQtQtQtQtQtQtQtQtQtQtQtQtQtQtQtQtQtQtQtQtQtQtQtQtQtQtQtQtQt",
"QtQtQtQtQtQtQtQtQtQtQtQtQtQtQtQtQtQtQtQtQtQtQtQtQtQtQtQtQtQtQtQtQtQtQtQtQtQtQtQtQtQtQtQtQtQtQtQtQtQtQtQtQtQtQtQtQtQtQtQtQtQtQtQt"};
