/* XPM */
static char *dummy[]={
"64 64 311 2",
"Qt c None",
"bA c #000000",
"bO c #010101",
"bG c #020202",
"bH c #030303",
"bT c #040404",
"bP c #050505",
"bW c #060606",
"b3 c #070707",
"bB c #070708",
"bQ c #090909",
"b6 c #0a0a0a",
"bY c #0b0b0b",
"bR c #0c0c0c",
"co c #0d0d0d",
"bZ c #0e0e0e",
"bU c #0f0f0f",
"bS c #101010",
"bV c #111111",
"b0 c #121212",
"cf c #131313",
"c. c #141414",
"cK c #151515",
"cl c #161616",
"cc c #171717",
"b2 c #181818",
"b5 c #191919",
"cU c #1a1a1a",
"cx c #1b1b1b",
"b4 c #1c1c1c",
"b7 c #1e1e1e",
"bX c #1f1f1f",
"b9 c #212121",
"cp c #222222",
"b8 c #232323",
"ca c #242424",
"c# c #252525",
"cj c #262626",
"cg c #272727",
"cb c #282828",
"cY c #292929",
"ch c #2a2a2a",
"b1 c #2b2b2b",
"cX c #2c2c2c",
"cy c #2d2d2d",
"cV c #2e2e2e",
"c0 c #2f2f2f",
"cD c #313131",
"cm c #333333",
"cq c #343434",
"cW c #353535",
"ck c #363636",
"cO c #373737",
"cs c #383838",
"cZ c #393939",
"ce c #3a3a3a",
"ci c #3c3c3c",
"cd c #3d3d3d",
"cz c #3e3e3e",
"ct c #404040",
"cC c #414141",
"cr c #424242",
"cE c #434343",
"cN c #454545",
"cB c #474747",
"cT c #484848",
"cP c #4a4a4a",
"cn c #4b4b4b",
"cS c #4c4c4c",
"cA c #4d4d4d",
"cL c #4e4e4e",
"cM c #4f4f4f",
"cQ c #525252",
"cu c #545454",
"cR c #555555",
"cF c #565656",
"cw c #575757",
"cv c #595959",
"cG c #606060",
"cJ c #646464",
"cI c #656565",
"cH c #666666",
"bl c #707a7e",
"a3 c #76828b",
"#C c #78868a",
"#k c #79878b",
"a4 c #7a868e",
"#B c #7a888c",
"#e c #7a888d",
"bf c #7b868b",
"#l c #7b888c",
"#D c #7b898c",
"a5 c #7c878f",
"#s c #7c898d",
"## c #7c8a8e",
"#E c #7d8a8e",
".7 c #7d8b8f",
"#j c #7e8a8f",
"#m c #7e8b8f",
"#d c #7f8c90",
"#t c #7f8d90",
".1 c #7f8d91",
"a9 c #808b92",
".V c #808e92",
"#r c #818d91",
"#F c #818e91",
"#u c #818e92",
".P c #819093",
"#Y c #828e93",
"#G c #828f93",
"bN c #83898c",
"#f c #838f94",
"#H c #839094",
".6 c #839194",
".J c #839195",
"#A c #849094",
"#R c #849095",
"#a c #849195",
".E c #849396",
"#n c #859195",
"#Z c #859295",
".0 c #859397",
"#9 c #869295",
"#L c #869296",
".z c #869498",
"#v c #879397",
"#S c #879398",
".8 c #879497",
".U c #879598",
".u c #879699",
"#I c #889498",
".p c #88979a",
"bb c #899398",
"#8 c #899598",
"#T c #899599",
"a. c #8a9599",
"#M c #8a969a",
".O c #8a979b",
".k c #8a999c",
"bj c #8b959a",
"#0 c #8b969a",
".2 c #8b979b",
".g c #8b9a9d",
"am c #8c979b",
"#1 c #8c989b",
"bF c #8d9496",
"a# c #8d989c",
"#U c #8d999c",
".W c #8d9a9d",
".I c #8d9b9d",
"#2 c #8e999d",
"bz c #8f9698",
"aa c #8f999d",
"#7 c #8f9a9e",
"ab c #909a9e",
"#3 c #909b9f",
".Q c #909da0",
".D c #909da1",
"an c #919b9f",
"ac c #919ca0",
"bg c #92999f",
"ba c #929ba1",
"ai c #929ca0",
"ao c #939ca0",
"ah c #939da1",
"aj c #939ea2",
".y c #93a0a3",
"ad c #949ea2",
"ak c #949fa3",
".K c #94a0a3",
"bI c #959c9f",
"ap c #959fa3",
"al c #95a0a4",
"aw c #96a0a4",
".t c #96a3a5",
"aq c #97a1a4",
"ax c #97a1a5",
"ar c #98a2a5",
".F c #98a4a7",
"aU c #99a2a6",
"as c #99a3a6",
"ay c #99a3a7",
".o c #99a6a9",
"aE c #9aa3a7",
"bp c #9aa3a9",
"az c #9aa4a8",
"aO c #9ba4a8",
"aF c #9ba5a8",
"aA c #9ba5a9",
"bc c #9ca5a8",
"a1 c #9ca5a9",
"aB c #9ca6a9",
".A c #9ca7aa",
".j c #9ca9ab",
"aG c #9da6a9",
"aN c #9da6aa",
"aH c #9ea7aa",
"aI c #9ea7ab",
"bC c #9fa6a9",
"aX c #9fa7ab",
"aP c #9fa8ab",
"aJ c #9fa8ac",
".v c #9fabae",
"bw c #a0a8ae",
"aK c #a0a9ac",
"aQ c #a0a9ad",
"at c #a1a9ad",
"aR c #a1aaad",
"av c #a1aaae",
"aD c #a1abad",
"#6 c #a2abae",
"#X c #a2abaf",
"br c #a3a9ac",
"bu c #a3aab0",
"aS c #a3abaf",
"bm c #a3abb0",
"af c #a3acaf",
"aV c #a3acb0",
"aC c #a3adb0",
"aM c #a4acaf",
"aL c #a4acb0",
"#Q c #a4adaf",
"#5 c #a4adb0",
"#V c #a4adb1",
".q c #a4afb1",
"aT c #a5adb0",
"ae c #a5adb1",
"#K c #a5aeb0",
"#4 c #a5aeb1",
"b. c #a5aeb4",
".f c #a5b1b3",
"bi c #a6adb3",
"au c #a6aeb1",
"aW c #a6aeb2",
"#O c #a6afb2",
"a6 c #a7aeb3",
"#z c #a7b0b3",
"ag c #a8b0b3",
"#N c #a8b1b3",
"aY c #a8b1b4",
"#q c #a8b2b4",
".l c #a8b3b5",
"#x c #a9b1b4",
"a0 c #a9b1b5",
"aZ c #a9b2b5",
"bK c #aab2b6",
"#J c #aab3b5",
"#W c #aab3b6",
"bh c #abb2b8",
"a2 c #abb3b7",
"be c #abb4b6",
"#i c #abb4b7",
"#P c #acb4b7",
"a7 c #acb5b8",
".h c #acb7b9",
"#w c #adb5b7",
"bq c #adb5b9",
"b# c #adb5ba",
"a8 c #aeb6b9",
"bL c #aeb6ba",
"#y c #aeb7b9",
"bx c #aeb7ba",
"#o c #afb7b9",
"#c c #afb7ba",
"#p c #afb8ba",
"bd c #b0b8bb",
"#h c #b0b9bc",
"#g c #b1b9bc",
"bv c #b1b9bf",
"#b c #b1babc",
".c c #b2bcbe",
"bk c #b4bbbf",
"#. c #b5bdbf",
"bs c #b6bec1",
"by c #b7bec1",
".4 c #b7bfc1",
"bt c #b8bfc2",
".Y c #bac1c3",
".5 c #bac2c4",
"bD c #bac2c5",
".9 c #bbc2c4",
"bE c #bbc3c6",
".S c #bcc4c6",
"bJ c #bdc4c7",
"bM c #bec5c8",
".M c #bec6c8",
".Z c #bfc6c8",
".3 c #c1c7c9",
".T c #c4cbcd",
".X c #c5cccd",
"bo c #cacfd3",
".R c #cad0d1",
".N c #cad0d2",
".L c #ced4d5",
".H c #cfd5d6",
".G c #d2d8d9",
".C c #d4d9da",
".B c #d7dbdd",
".# c #d7dcdd",
".x c #d9dedf",
".w c #dadfe0",
"bn c #dcdee1",
".s c #dde1e2",
".r c #dee2e3",
".m c #e1e5e6",
".n c #e2e5e6",
".i c #e3e7e8",
".d c #e6e9ea",
".a c #e8ebeb",
".e c #e9eced",
".b c #ecefef",
"QtQt.#QtQtQtQtQtQtQtQtQtQtQtQtQtQtQtQtQtQtQtQtQtQtQtQtQtQtQtQtQtQtQtQtQtQtQtQtQtQtQtQtQtQtQtQtQtQtQtQtQtQtQtQtQtQtQtQtQtQtQtQtQt",
"QtQtQt.aQtQtQtQtQtQtQtQtQtQtQtQtQtQtQtQtQtQtQtQtQtQtQtQtQtQtQtQtQtQtQtQtQtQtQtQtQtQtQtQtQtQtQtQtQtQtQtQtQtQtQtQtQtQtQtQtQt.bQtQt",
"QtQtQt.c.dQtQtQtQtQtQtQtQtQtQtQtQtQtQtQtQtQtQtQtQtQtQtQtQtQtQtQtQtQtQtQtQtQtQtQtQtQtQtQtQtQtQtQtQtQtQtQtQtQtQtQtQtQtQtQt.e.fQtQt",
"QtQtQt.g.h.iQtQtQtQtQtQtQtQtQtQtQtQtQtQtQtQtQtQtQtQtQtQtQtQtQtQtQtQtQtQtQtQtQtQtQtQtQtQtQtQtQtQtQtQtQtQtQtQtQtQtQtQtQt.d.jQtQtQt",
"QtQtQtQt.k.l.mQtQtQtQtQtQtQtQtQtQtQtQtQtQtQtQtQtQtQtQtQtQtQtQtQtQtQtQtQtQtQtQtQtQtQtQtQtQtQtQtQtQtQtQtQtQtQtQtQtQtQt.n.o.kQtQtQt",
"QtQtQtQt.p.p.q.rQtQtQtQtQtQtQtQtQtQtQtQtQtQtQtQtQtQtQtQtQtQtQtQtQtQtQtQtQtQtQtQtQtQtQtQtQtQtQtQtQtQtQtQtQtQtQtQtQt.s.t.pQtQtQtQt",
"QtQtQtQtQt.u.u.v.wQtQtQtQtQtQtQtQtQtQtQtQtQtQtQtQtQtQtQtQtQtQtQtQtQtQtQtQtQtQtQtQtQtQtQtQtQtQtQtQtQtQtQtQtQtQtQt.x.y.u.uQtQtQtQt",
"QtQtQtQtQt.z.z.z.A.BQtQtQtQtQtQtQtQtQtQtQtQtQtQtQtQtQtQtQtQtQtQtQtQtQtQtQtQtQtQtQtQtQtQtQtQtQtQtQtQtQtQtQtQtQt.C.D.z.zQtQtQtQtQt",
"QtQtQtQtQtQt.E.E.E.F.GQtQtQtQtQtQtQtQtQtQtQtQtQtQtQtQtQtQtQtQtQtQtQtQtQtQtQtQtQtQtQtQtQtQtQtQtQtQtQtQtQtQtQt.H.I.E.E.EQtQtQtQtQt",
"QtQtQtQtQtQtQt.J.J.J.K.LQtQtQtQtQtQtQtQtQtQtQtQtQtQtQtQtQtQtQtQtQtQtQtQtQtQtQtQtQtQtQtQtQtQtQtQtQtQtQtQt.M.N.O.J.J.JQtQtQtQtQtQt",
"QtQtQtQtQtQtQt.P.P.P.P.Q.RQtQtQtQtQtQtQtQtQtQtQtQtQtQtQtQtQtQtQtQtQtQtQtQtQtQtQtQtQtQtQtQtQtQtQtQtQtQt.S.T.U.P.P.P.PQtQtQtQtQtQt",
"QtQtQtQtQtQtQtQt.V.V.V.V.W.XQtQtQtQtQtQtQtQtQtQtQtQtQtQtQtQtQtQtQtQtQtQtQtQtQtQtQtQtQtQtQtQtQtQtQtQt.Y.Z.0.V.V.V.VQtQtQtQtQtQtQt",
"QtQtQtQtQtQtQtQtQt.1.1.1.1.2.3QtQtQtQtQtQtQtQtQtQtQtQtQtQtQtQtQtQtQtQtQtQtQtQtQtQtQtQtQtQtQtQtQtQt.4.5.6.1.1.1.1QtQtQtQtQtQtQtQt",
"QtQtQtQtQtQtQtQtQt.7.7.7.7.7.8.9QtQtQtQtQtQtQtQtQtQtQtQtQtQtQtQtQtQtQtQtQtQtQtQtQtQtQtQtQtQtQtQt#.#..V.7.7.7.7QtQtQtQtQtQtQtQtQt",
"QtQtQtQtQtQtQtQtQtQt###########a#.QtQtQtQtQtQtQtQtQtQtQtQtQtQtQtQtQtQtQtQtQtQtQtQtQtQtQtQtQtQt#b#c#d##########QtQtQtQtQtQtQtQtQt",
"QtQtQtQtQtQtQtQtQtQtQt#e#e#e#e#e#f#gQtQtQtQtQtQtQtQtQtQtQtQtQtQtQtQtQtQtQtQtQtQtQtQtQtQtQtQt#h#i#j#e#e#e#e#eQtQtQtQtQtQtQtQtQtQt",
"QtQtQtQtQtQtQtQtQtQtQt#k#k#k#l###m#n#oQtQtQtQtQtQtQtQtQtQtQtQtQtQtQtQtQtQtQtQtQtQtQtQtQtQt#p#q#r.7#s#l#k#kQtQtQtQtQtQtQtQtQtQtQt",
"QtQtQtQtQtQtQtQtQtQtQtQt#k#l###m#t#u#v#w#xQtQtQtQtQtQtQtQtQtQtQtQtQtQtQtQtQtQtQtQtQtQtQt#y#z#A#u#t#m###B#CQtQtQtQtQtQtQtQtQtQtQt",
"QtQtQtQtQtQtQtQtQtQtQtQtQt#D#E#d#F#G#H#I#J#zQtQtQtQtQtQtQtQtQtQtQtQtQtQtQtQtQtQtQtQtQt#w#K#n#H#G#F#d#E#sQtQtQtQtQtQtQtQtQtQtQtQt",
"QtQtQtQtQtQtQtQtQtQtQtQtQtQt#d#F#G#A#L#v#M#N#OQtQtQtQtQtQtQtQtQtQtQtQtQtQtQtQtQtQtQt#P#Q#I#v#L#A#G#F#dQtQtQtQtQtQtQtQtQtQtQtQtQt",
"QtQtQtQtQtQtQtQtQtQtQtQtQtQtQt#G#R#L#S#T#M#U#O#VQtQtQtQtQtQtQtQtQtQtQtQtQtQtQtQtQt#W#X.2#M#T#S#L#R#YQtQtQtQtQtQtQtQtQtQtQtQtQtQt",
"QtQtQtQtQtQtQtQtQtQtQtQtQtQtQtQt#Z#v#T#0#1#2#3#4#5QtQtQtQtQtQtQtQtQtQtQtQtQtQtQt#x#6#7#U#1#0#8#v#9QtQtQtQtQtQtQtQtQtQtQtQtQtQtQt",
"QtQtQtQtQtQtQtQtQtQtQtQtQtQtQtQtQta.#0a#aaabacadaeafQtQtQtQtQtQtQtQtQtQtQtQtQtag#6ahacabaaa##0a.QtQtQtQtQtQtQtQtQtQtQtQtQtQtQtQt",
"QtQtQtQtQtQtQtQtQtQtQtQtQtQtQtQtQt#Ia##7#3aiajakal#V#6QtQtQtQtQtQtQtQtQtQtQt#O#6alakajai#3#7a#QtQtQtQtQtQtQtQtQtQtQtQtQtQtQtQtQt",
"QtQtQtQtQtQtQtQtQtQtQtQtQtQtQtQtQtQtamanaoadapaqarasafatQtQtQtQtQtQtQtQtQtauavasaraqapadaoanQtQtQtQtQtQtQtQtQtQtQtQtQtQtQtQtQtQt",
"QtQtQtQtQtQtQtQtQtQtQtQtQtQtQtQtQtQtQtQtadawaxayazaAaBaCaDQtQtQtQtQtQtQt#4afaBaAazayaxawadQtQtQtQtQtQtQtQtQtQtQtQtQtQtQtQtQtQtQt",
"QtQtQtQtQtQtQtQtQtQtQtQtQtQtQtQtQtQtQtQtQtaxaEaFaGaHaIaJ#QaKQtQtQtQtQtaLaMaJaIaNaGaOaEawQtQtQtQtQtQtQtQtQtQtQtQtQtQtQtQtQtQtQtQt",
"QtQtQtQtQtQtQtQtQtQtQtQtQtQtQtQtQtQtQtQtQtQtaOaHaPaQaR#6aS#5aQQtQtQtaLaTaS#6aRaKaPaHaUQtQtQtQtQtQtQtQtQtQtQtQtQtQtQtQtQtQtQtQtQt",
"QtQtQtQtQtQtQtQtQtQtQtQtQtQtQtQtQtQtQtQtQtQtQtaNavaSaV#VaeaW#OaQQt#V#OaWae#VaV#XavaOQtQtQtQtQtQtQtQtQtQtQtQtQtQtQtQtQtQtQtQtQtQt",
"QtQtQtQtQtQtQtQtQtQtQtQtQtQtQtQtQtQtQtQtQtQtQtQtaXaeaW#zaY#x#xaZa0aZ#x#xag#zaWaea1QtQtQtQtQtQtQtQtQtQtQtQtQtQtQtQtQtQtQtQtQtQtQt",
"QtQtQtQtQtQtQtQtQtQtQtQtQtQtQtQtQtQtQtQtQtQtQtQtQtaJaYaZa2a2aza3a4a5a6a2a2aZaYa1QtQtQtQtQtQtQtQtQtQtQtQtQtQtQtQtQtQtQtQtQtQtQtQt",
"QtQtQtQtQtQtQtQtQtQtQtQtQtQtQtQtQtQtQtQtQtQtQtQtQtQtaKa7a8a8a9b.b#babba8a8#PbcQtQtQtQtQtQtQtQtQtQtQtQtQtQtQtQtQtQtQtQtQtQtQtQtQt",
"QtQtQtQtQtQtQtQtQtQtQtQtQtQtQtQtQtQtQtQtQtQtQtQtQtQtQtaJbdbebfbgbhbibj#g#cQtQtQtQtQtQtQtQtQtQtQtQtQtQtQtQtQtQtQtQtQtQtQtQtQtQtQt",
"QtQtQtQtQtQtQtQtQtQtQtQtQtQtQtQtQtQtQtQtQtQtQtQtQtQtQtQt#gbkblbmbnbobpbkbqQtQtQtQtQtQtQtQtQtQtQtQtQtQtQtQtQtQtQtQtQtQtQtQtQtQtQt",
"QtQtQtQtQtQtQtQtQtQtQtQtQtQtQtQtQtQtQtQtQtQtQtQtQtQtQtbrbsbtaQbubvbwbxbybsbzQtQtQtQtQtQtQtQtQtQtQtQtQtQtQtQtQtQtQtQtQtQtQtQtQtQt",
"QtQtQtQtQtQtQtQtQtQtQtQtQtQtQtQtQtQtQtQtQtQtQtQtQtQtbAbBbCbDbDbDbEbDbDbDbFbGbAQtQtQtQtQtQtQtQtQtQtQtQtQtQtQtQtQtQtQtQtQtQtQtQtQt",
"QtQtQtQtQtQtQtQtQtQtQtQtQtQtQtQtQtQtQtQtQtQtQtQtQtbAbAbAbHbIbJbKQtbLbMbNbObAbAbAQtQtQtQtQtQtQtQtQtQtQtQtQtQtQtQtQtQtQtQtQtQtQtQt",
"QtQtQtQtQtQtQtQtQtQtQtQtQtQtQtQtQtQtQtQtQtQtQtQtbAbAbAbAbAbPQtQtQtQtQtbAbAbAbAbAbAQtQtQtQtQtQtQtQtQtQtQtQtQtQtQtQtQtQtQtQtQtQtQt",
"QtQtQtQtQtQtQtQtQtQtQtQtQtQtQtQtQtQtQtQtQtQtQtbAbAbAbAbAbAQtQtQtQtQtQtbAbAbAbAbAbAbAQtQtQtQtQtQtQtQtQtQtQtQtQtQtQtQtQtQtQtQtQtQt",
"QtQtQtQtQtQtQtQtQtQtQtQtQtQtQtQtQtQtQtQtQtQtbAbAbAbAbAbAbAQtQtQtQtQtQtQtbAbAbAbAbAbAbAQtQtQtQtQtQtQtQtQtQtQtQtQtQtQtQtQtQtQtQtQt",
"QtQtQtQtQtQtQtQtQtQtQtQtQtQtQtQtQtQtQtQtQtbAbAbAbAbAbAbAQtQtQtQtQtQtQtQtbAbAbAbAbAbAbAbAQtQtQtQtQtQtQtQtQtQtQtQtQtQtQtQtQtQtQtQt",
"QtQtQtQtQtQtQtQtQtQtQtQtQtQtQtQtQtQtQtQtbAbAbAbAbAbAbAbAQtQtQtQtQtQtQtQtQtbAbAbAbAbAbAbAbAQtQtQtQtQtQtQtQtQtQtQtQtQtQtQtQtQtQtQt",
"QtQtQtQtQtQtQtQtQtQtQtQtQtQtQtQtQtQtQtbAbAbAbAbAbAbAbAQtQtQtQtQtQtQtQtQtQtQtbAbAbAbAbAbAbAbAQtQtQtQtQtQtQtQtQtQtQtQtQtQtQtQtQtQt",
"QtQtQtQtQtQtQtQtQtQtQtQtQtQtQtQtQtbAbAbAbAbAbAbAbAbAbAQtQtQtQtQtQtQtQtQtQtQtbAbAbAbAbAbAbAbAbAQtQtQtQtQtQtQtQtQtQtQtQtQtQtQtQtQt",
"QtQtQtQtQtQtQtQtQtQtQtQtbAbAbAbAbAbAbAbAbAbAbAbAbAbAQtQtQtQtQtQtQtQtQtQtQtQtQtbAbAbAbAbAbAbAbAbAbAbAbAbAQtQtQtQtQtQtQtQtQtQtQtQt",
"QtQtQtQtQtQtQtQtQtQtbAbAbAbAbAbAbAbAbAbAbAbAbAbAbAbAQtQtQtQtQtQtQtQtQtQtQtQtQtbAbAbAbAbAbAbAbAbAbAbAbAbAbAbAbAQtQtQtQtQtQtQtQtQt",
"QtQtQtQtQtQtQtQtbAbAbAbAbAbAbAbAbAbAbAbAbAbAbAbAbAQtQtQtQtQtQtQtQtQtQtQtQtQtQtQtbAbAbAbAbAbAbAbAbAbAbAbAbAbAbAbAbAQtQtQtQtQtQtQt",
"QtQtQtQtQtQtQtbAbAbAbAbAbAbAbAbAbAbAbAbAbAbAbAbAbAQtQtQtQtQtQtQtQtQtQtQtQtQtQtQtbAbAbAbAbAbAbAbAbAbAbAbAbAbAbAbAbAbAQtQtQtQtQtQt",
"QtQtQtQtQtbAbAbAbAbQQtQtQtQtbAbAbAbAbAbAbAbAbAbAQtQtQtQtQtQtQtQtQtQtQtQtQtQtQtQtQtbAbAbAbAbAbAbAbAbAQtQtQtQtbHbAbAbAbAQtQtQtQtQt",
"QtQtQtQtQtbAbAbRQtQtQtQtQtQtQtQtbAbAbAbAbAbAbAbAQtQtQtQtQtQtQtQtQtQtQtQtQtQtQtQtQtbAbAbAbAbAbAbAbAQtQtQtQtQtQtQtbQbAbAbAQtQtQtQt",
"QtQtQtQtbAbAbSQtQtQtQtQtQtQtQtQtQtbAbAbAbAbAbAQtQtQtQtQtQtQtQtQtQtQtQtQtQtQtQtQtQtQtbAbAbAbAbAbOQtQtQtQtQtQtQtQtQtQtbTbAbAQtQtQt",
"QtQtQtbAbAbUQtQtQtQtQtQtQtQtQtQtQtQtbAbAbAbAbAQtQtQtQtQtQtQtQtQtQtQtQtQtQtQtQtQtQtQtbAbAbAbAbAQtQtQtQtQtQtQtQtQtQtQtbVbHbAQtQtQt",
"QtQtQtbAbWbXQtQtQtQtQtQtQtQtQtQtQtQtbWbAbAbAQtQtQtQtQtQtQtQtQtQtQtQtQtQtQtQtQtQtQtQtQtbAbAbAbYQtQtQtQtQtQtQtQtQtQtQtQtbZbAbAQtQt",
"QtQtQtbAb0b1QtQtQtQtQtQtQtQtQtQtQtQtb0bAbAbAQtQtQtQtQtQtQtQtQtQtQtQtQtQtQtQtQtQtQtQtQtbAbAbHQtQtQtQtQtQtQtQtQtQtQtQtQtb2b3bAQtQt",
"QtQtbAbAb4QtQtQtQtQtQtQtQtQtQtQtQtQtb5bAbAbAQtQtQtQtQtQtQtQtQtQtQtQtQtQtQtQtQtQtQtQtQtbAbAb6QtQtQtQtQtQtQtQtQtQtQtQtQtb7bZbAQtQt",
"QtQtbAbTb8QtQtQtQtQtQtQtQtQtQtQtQtQtb9bTbAQtQtQtQtQtQtQtQtQtQtQtQtQtQtQtQtQtQtQtQtQtQtQtbAbUb9QtQtQtQtQtQtQtQtQtQtQtQtQtc.bAQtQt",
"QtQtbAbWc#QtQtQtQtQtQtQtQtQtQtQtQtQtcabWbAQtQtQtQtQtQtQtQtQtQtQtQtQtQtQtQtQtQtQtQtQtQtQtbAb0caQtQtQtQtQtQtQtQtQtQtQtQtcbccbHQtQt",
"QtQtQtbPcacdQtQtQtQtQtQtQtQtQtQtQtcecabPbAQtQtQtQtQtQtQtQtQtQtQtQtQtQtQtQtQtQtQtQtQtQtQtbAcfcgQtQtQtQtQtQtQtQtQtQtQtQtchb2bHQtQt",
"QtQtQtbObXciQtQtQtQtQtQtQtQtQtQtQtcibXbOQtQtQtQtQtQtQtQtQtQtQtQtQtQtQtQtQtQtQtQtQtQtQtQtQtb0cjckQtQtQtQtQtQtQtQtQtQtQtchclbGQtQt",
"QtQtQtbAclcmcnQtQtQtQtQtQtQtQtQtcncmclQtQtQtQtQtQtQtQtQtQtQtQtQtQtQtQtQtQtQtQtQtQtQtQtQtQtcocpcqcrQtQtQtQtQtQtQtQtQtcscjb0bAQtQt",
"QtQtQtQtb6cjctcuQtQtQtQtQtQtcvcwctcjbYQtQtQtQtQtQtQtQtQtQtQtQtQtQtQtQtQtQtQtQtQtQtQtQtQtQtQtcxcyczcAQtQtQtQtQtQtcBcCcDbXbYQtQtQt",
"QtQtQtQtQtclcycEcFcGcHcIcHcJcFcEcycKQtQtQtQtQtQtQtQtQtQtQtQtQtQtQtQtQtQtQtQtQtQtQtQtQtQtQtQtQtb9cmcrcLcwcFcFcucMcNcOcgcKQtQtQtQt",
"QtQtQtQtQtQtb5cycdcPcQcRcQcPcdcyQtQtQtQtQtQtQtQtQtQtQtQtQtQtQtQtQtQtQtQtQtQtQtQtQtQtQtQtQtQtQtQtcacmczcBcncScTcCckchcUQtQtQtQtQt",
"QtQtQtQtQtQtQtQtcpcVckcscWcXQtQtQtQtQtQtQtQtQtQtQtQtQtQtQtQtQtQtQtQtQtQtQtQtQtQtQtQtQtQtQtQtQtQtQtQtcYcmcscZcWc0c#QtQtQtQtQtQtQt"};
