/* XPM */
static char *dummy[]={
"64 64 325 2",
"Qt c None",
"by c #222c2c",
"bq c #242e2e",
"bj c #252f2f",
"ba c #263030",
"a3 c #283232",
"aV c #293333",
"aO c #2a3434",
"aI c #2c3636",
"aG c #2d3737",
"aD c #2e3838",
"aC c #2f3939",
"az c #303a3a",
"av c #313b3b",
"ar c #323c3c",
"aq c #333d3d",
"am c #343e3e",
"ai c #353f3f",
"ac c #364040",
"ah c #374141",
"#9 c #384242",
"#3 c #394343",
"#Y c #3a4444",
"#2 c #3b4444",
"#S c #3c4646",
"#L c #3d4747",
"#F c #3e4848",
"#C c #404a4a",
"#x c #414b4b",
"#r c #424c4c",
"#t c #434d4d",
"#m c #444e4e",
"#g c #454f4f",
"#i c #465050",
"#a c #475151",
".7 c #485252",
".Z c #495353",
".2 c #4a5454",
".R c #4b5555",
".U c #4c5656",
"aN c #4f5757",
".# c #505a5a",
"bH c #515b5b",
"bI c #525c5c",
".q c #535d5d",
"bO c #545e5e",
"bP c #555e5e",
"aU c #565e5e",
".a c #565f5f",
"bT c #566060",
"bU c #586262",
"b0 c #5b6464",
"b2 c #5d6666",
".l c #5d6767",
"a2 c #606767",
"c# c #606969",
".e c #616b6b",
"cc c #636c6c",
"cd c #646d6d",
"ch c #666f6f",
"cg c #677070",
"b# c #686f6f",
"ck c #6a7373",
"b3 c #6c7676",
"aP c #6e7575",
"co c #6e7676",
"c. c #6f7878",
"cs c #727a7a",
"bi c #737979",
"ct c #747c7c",
"b1 c #757d7d",
"cw c #767e7e",
".v c #767f7f",
"ca c #777f7f",
"cv c #787f7f",
"aW c #797f7f",
"#B c #798080",
"cJ c #7a8484",
"cz c #7b8383",
"bV c #7b8484",
"cI c #7b8585",
"cK c #7b8686",
"be c #7c8686",
"cr c #7d8484",
"bZ c #7d8585",
"a7 c #7d8787",
"aY c #7d8888",
"bC c #7e8787",
"aQ c #7e8888",
"aJ c #7e8989",
"bp c #7f8585",
"aA c #7f8989",
"aw c #7f8a8a",
"cC c #808787",
"cA c #808888",
"as c #808a8a",
"an c #808b8b",
"#G c #818888",
"aj c #818b8b",
"ae c #818c8c",
"#5 c #828c8c",
"#E c #838989",
"cB c #838b8b",
"#U c #838d8d",
"#O c #838e8e",
"a4 c #848a8a",
".b c #848c8c",
"cL c #848d8d",
"#H c #848e8e",
"#y c #848f8f",
"cG c #858c8c",
"#v c #858f8f",
"#o c #859090",
"cH c #868c8c",
"#d c #869090",
"cl c #879292",
"cn c #889292",
"cu c #889393",
".i c #899090",
"#u c #899191",
".9 c #899494",
"#M c #8a9090",
"cM c #8a9191",
"#q c #8a9292",
"cS c #8a9393",
"bx c #8b9090",
"#j c #8b9292",
"#l c #8b9393",
"cT c #8b9494",
"#c c #8c9393",
".3 c #8c9494",
"#K c #8d9393",
"#f c #8d9494",
".V c #8d9595",
"cb c #8e9494",
"## c #8e9595",
".6 c #8e9696",
"bb c #8f9494",
".M c #8f9797",
"cm c #8f9898",
"ci c #909696",
".Q c #909898",
".4 c #909a9a",
"cR c #919797",
"cU c #919898",
".J c #929a9a",
"#T c #949999",
".W c #949d9d",
"ce c #949e9e",
"cf c #949f9f",
"cV c #959b9b",
"cW c #969c9c",
".B c #969f9f",
"aF c #97a0a0",
"cj c #989e9e",
".O c #98a0a0",
"#R c #999e9e",
"ay c #99a1a1",
"au c #99a2a2",
"b4 c #99a3a3",
"bE c #9a9f9f",
"cp c #9aa0a0",
"bk c #9ba0a0",
"ap c #9ba2a2",
".F c #9ba4a4",
"#Z c #9ca2a2",
"b5 c #9ca5a5",
"cX c #9da3a3",
"al c #9da4a4",
"aH c #9da5a5",
"c3 c #9ea3a3",
"bW c #9ea8a8",
"c4 c #9fa4a4",
"c5 c #a0a5a5",
"c6 c #a1a6a6",
"c7 c #a2a7a7",
"#X c #a3a9a9",
"bQ c #a3adad",
"bX c #a4aeae",
"ag c #a5abab",
"b6 c #a5afaf",
"#s c #a6acac",
"#n c #a6adad",
"#h c #a6aeae",
"br c #a7abab",
"#b c #a7afaf",
"#4 c #a8adad",
".0 c #a8afaf",
".S c #a8b0b0",
"c2 c #a9aeae",
".K c #a9b1b1",
"bJ c #a9b3b3",
"b7 c #a9b4b4",
".8 c #aab0b0",
".1 c #aab2b2",
".T c #abb2b2",
".c c #acb3b3",
".L c #acb4b4",
"c8 c #aeb2b2",
"b8 c #aeb8b8",
"#1 c #afb4b4",
"bY c #b0b9b9",
"b9 c #b0baba",
"a. c #b1b6b6",
"bD c #b1bbbb",
"bz c #b2b5b5",
".d c #b2b8b8",
"bK c #b2bcbc",
"bL c #b3bdbd",
"bt c #b4bebe",
"bu c #b5bfbf",
"bm c #b6c0c0",
"bf c #b7c1c1",
"cF c #b8bcbc",
"a8 c #b8c2c2",
"aZ c #b9c3c3",
"ad c #babdbd",
"#8 c #babebe",
"aR c #bac4c4",
"cN c #bbbfbf",
"aK c #bbc5c5",
"bF c #bcbfbf",
"aE c #bcc6c6",
"aB c #bdc7c7",
"c1 c #bec1c1",
"ax c #bec8c8",
"at c #bfc9c9",
"ao c #c0caca",
"c9 c #c1c4c4",
"ak c #c1cbcb",
"af c #c2cccc",
"ab c #c3c6c6",
"a# c #c3cdcd",
".o c #c4caca",
"#6 c #c4cece",
"cq c #c5c9c9",
"#0 c #c5cfcf",
"cx c #c6c9c9",
"#V c #c6d0d0",
"aL c #c7cfcf",
"#P c #c7d1d1",
"#I c #c8d2d2",
"#z c #c9d3d3",
"#w c #cad4d4",
"bS c #cbd2d2",
"#p c #cbd5d5",
"bN c #ccd2d2",
"bG c #ccd3d3",
"#k c #ccd6d6",
"bB c #cdd4d4",
"#e c #cdd7d7",
"bs c #ced4d4",
"bl c #ced5d5",
"#. c #ced8d8",
"bd c #cfd6d6",
"#A c #cfd7d7",
".5 c #cfd9d9",
"a6 c #d0d6d6",
".Y c #d0dada",
".N c #d1dbdb",
".I c #d2dcdc",
"c0 c #d3d5d5",
"cy c #d3d6d6",
".X c #d3dcdc",
".E c #d3dddd",
".f c #d4d8d8",
".D c #d4dddd",
".A c #d4dede",
"cD c #d5d7d7",
"d. c #d5d8d8",
"aa c #d5dcdc",
"#7 c #d6dddd",
"#D c #d7dede",
"#N c #d7dfdf",
"bR c #d8dddd",
"#W c #d8dede",
"#J c #d8dfdf",
"bM c #d9dede",
"#Q c #d9dfdf",
".z c #d9e1e1",
"bv c #dadfdf",
"bn c #dbe0e0",
".H c #dbe3e3",
"bg c #dce1e1",
"cQ c #dddfdf",
"a9 c #dde1e1",
"a0 c #dde2e2",
".y c #dde5e5",
"cY c #dee0e0",
"aS c #dee3e3",
".P c #dee5e5",
".C c #dfe6e6",
"cE c #e1e3e3",
"cO c #e2e3e3",
".G c #e3e9e9",
".x c #e7ecec",
"aM c #e9eaea",
".m c #e9eded",
".w c #eaeeee",
".r c #eaefef",
".u c #ebf0f0",
".t c #ecf1f1",
".j c #edf0f0",
".s c #edf1f1",
"cP c #eeefef",
"aT c #f0f1f1",
".p c #f0f3f3",
"da c #f2f2f2",
".n c #f2f5f5",
"cZ c #f4f5f5",
"a1 c #f5f5f5",
"d# c #f5f6f6",
".k c #f5f7f7",
".g c #f6f8f8",
".h c #f7f9f9",
"db c #f8f8f8",
"b. c #f9f9f9",
"dc c #f9fafa",
"aX c #fafcfc",
"bh c #fcfcfc",
"a5 c #fcfdfd",
"bA c #fdfdfd",
"bc c #fdfefe",
"bo c #fefefe",
"bw c #ffffff",
"QtQtQtQtQtQtQtQtQtQtQtQtQtQtQtQtQtQtQtQtQtQtQtQtQtQtQtQtQtQtQtQtQtQtQtQtQtQtQtQtQtQtQtQtQtQtQtQtQtQtQtQtQtQtQtQtQtQtQtQtQtQtQtQt",
"QtQtQtQtQtQtQtQtQtQtQtQtQtQtQtQtQtQtQtQtQtQtQtQtQtQtQtQtQtQtQtQtQtQtQtQtQtQtQtQtQtQtQtQtQtQtQtQtQtQtQtQtQtQtQtQtQtQtQtQtQtQtQtQt",
"QtQtQtQtQtQtQtQtQtQtQtQtQtQtQtQtQtQtQtQtQtQtQtQtQtQtQtQtQtQtQtQtQtQtQtQtQtQtQtQtQtQtQtQtQtQtQtQtQtQtQtQtQtQtQtQtQtQtQtQtQtQtQtQt",
"QtQtQtQtQtQtQtQtQtQtQtQtQtQtQtQtQtQtQtQtQtQtQtQtQtQtQtQtQtQtQtQtQtQtQtQtQtQtQtQtQtQtQtQtQtQtQtQtQtQtQtQtQtQtQtQtQtQtQtQtQtQtQtQt",
"QtQtQtQtQtQt.#.#.#.#.#.#.#.#.#.#.#.#.#.#.#.#.#.#.#.#.#.#.#.#.#.#.#.#.#.#.#.#.#.#.#.#.#.#.#.#.#.#.#.#.#.#.#.#.#.#.#.#QtQtQtQtQtQt",
"QtQtQtQt.#.#.#.#.#.#.#.#.#.#.#.#.#.#.#.#.#.#.#.#.#.#.#.#.#.#.#.#.#.#.#.#.#.#.#.#.#.#.#.#.#.#.#.#.#.#.#.#.#.#.#.#.#.#.#.#QtQtQtQt",
"QtQt.#.#.#.#.#.#.#.#.#.#.#.#.#.#.#.#.#.#.#.#.#.#.#.#.#.#.#.#.#.#.#.#.#.#.#.#.#.#.#.#.#.#.#.#.#.#.#.#.#.#.#.#.#.#.#.#.#.#.#.#QtQt",
"QtQt.#.#.#.#.#.#.a.b.c.d.d.d.d.d.d.d.d.d.d.d.d.d.d.d.d.d.d.d.d.d.d.d.d.d.d.d.d.d.d.d.d.d.d.d.d.d.d.d.d.d.d.c.b.a.#.#.#.#.#.#QtQt",
"Qt.#.#.#.#.#.e.f.g.h.h.h.h.h.h.h.h.h.h.h.h.h.h.h.h.h.h.h.h.h.h.h.h.h.h.h.h.h.h.h.h.h.h.h.h.h.h.h.h.h.h.h.h.h.h.g.f.e.#.#.#.#.#Qt",
".#.#.#.#.#.i.j.k.k.k.k.k.k.k.k.k.k.k.k.k.k.k.k.k.k.k.k.k.k.k.k.k.k.k.k.k.k.k.k.k.k.k.k.k.k.k.k.k.k.k.k.k.k.k.k.k.k.j.i.#.#.#.#.#",
".#.#.#.#.l.m.n.n.n.n.n.n.n.n.n.n.n.n.n.n.n.n.n.n.n.n.n.n.n.n.n.n.n.n.n.n.n.n.n.n.n.n.n.n.n.n.n.n.n.n.n.n.n.n.n.n.n.n.m.l.#.#.#.#",
".#.#.#.#.o.p.p.p.p.p.p.p.p.p.p.p.p.p.p.p.p.p.p.p.p.p.p.p.p.p.p.p.p.p.p.p.p.p.p.p.p.p.p.p.p.p.p.p.p.p.p.p.p.p.p.p.p.p.p.o.#.#.#.#",
".#.#.#.q.r.s.s.s.s.s.t.u.u.u.u.u.u.u.u.u.u.u.u.u.u.u.u.u.u.u.u.u.u.u.u.u.u.u.u.u.u.u.u.u.u.u.u.u.u.u.u.u.u.t.s.s.s.s.s.r.q.#.#.#",
".#.#.#.v.w.w.w.x.y.z.A.A.A.A.A.A.A.A.A.A.A.A.A.A.A.A.A.A.A.A.A.A.A.A.A.A.A.A.A.A.A.A.A.A.A.A.A.A.A.A.A.A.A.A.z.y.x.w.w.w.v.#.#.#",
".#.#.#.B.x.x.C.D.E.E.E.E.E.E.E.E.E.E.E.E.E.E.E.E.E.E.E.E.E.E.E.E.E.E.E.E.E.E.E.E.E.E.E.E.E.E.E.E.E.E.E.E.E.E.E.E.D.C.x.x.B.#.#.#",
".#.#.#.F.G.H.I.I.I.I.I.I.I.I.I.I.I.I.I.I.I.I.I.J.K.I.I.I.I.I.I.I.I.I.I.I.I.I.I.L.M.N.I.I.I.I.I.I.I.I.I.I.I.I.I.I.I.I.H.G.F.#.#.#",
".#.#.#.O.P.N.N.N.N.N.N.N.N.N.N.N.N.N.N.N.N.N.Q.R.R.S.N.N.N.N.N.N.N.N.N.N.N.N.T.U.R.V.N.N.N.N.N.N.N.N.N.N.N.N.N.N.N.N.N.P.O.#.#.#",
".#.#.#.W.X.Y.Y.Y.Y.Y.Y.Y.Y.Y.Y.Y.Y.Y.Y.Y.Y.M.Z.Z.Z.Z.0.Y.Y.Y.Y.Y.Y.Y.Y.Y.Y.1.2.Z.Z.Z.3.Y.Y.Y.Y.Y.Y.Y.Y.Y.Y.Y.Y.Y.Y.Y.Y.X.W.#.#.#",
".#.#.#.4.5.5.5.5.5.5.5.5.5.5.5.5.5.5.5.5.6.7.7.7.7.7.7.0.5.5.5.5.5.5.5.5.8.Z.7.7.7.7.7.3.5.5.5.5.5.5.5.5.5.5.5.5.5.5.5.5.4.#.#.#",
".#.#.#.9#.#.#.#.#.#.#.#.#.#.#.#.#.#.#.###a#a#a#a#a#a#a#a#b#.#.#.#.#.#..S.7#a#a#a#a#a#a#a#c#.#.#.#.#.#.#.#.#.#.#.#.#.#.#..9.#.#.#",
".#.#.##d#e#e#e#e#e#e#e#e#e#e#e#e#e#e#f#g#g#g#g#g#g#g#g#g#g#h#e#e#e#e#b#i#g#g#g#g#g#g#g#g#g#j#e#e#e#e#e#e#e#e#e#e#e#e#e#e#d.#.#.#",
".#.#.##d#k#k#k#k#k#k#k#k#k#k#k#k#k#l#m#m#m#m#m#m#m#m#m#m#m#m#n#k#k#h#g#m#m#m#m#m#m#m#m#m#m#m#j#k#k#k#k#k#k#k#k#k#k#k#k#k#d.#.#.#",
".#.#.##o#p#p#p#p#p#p#p#p#p#p#p#p#q#r#r#r#r#r#r#r#r#r#r#r#r#r#r#s#s#t#r#r#r#r#r#r#r#r#r#r#r#r#r#u#p#p#p#p#p#p#p#p#p#p#p#p#o.#.#.#",
".#.#.##v#w#w#w#w#w#w#w#w#w#w#w#u#x#x#x#x#x#x#x#x#x#x#x#x#x#x#x#r#r#x#x#x#x#x#x#x#x#x#x#x#x#x#x#x.i#w#w#w#w#w#w#w#w#w#w#w#v.#.#.#",
".#.#.##y#z#z#z#z#z#z#z#z#z#z#A#B#C#C#C#C#C#C#C#C#C#C#C#C#C#C#C#C#C#C#C#C#C#C#C#C#C#C#C#C#C#C#C#C#B#A#z#z#z#z#z#z#z#z#z#z#y.#.#.#",
".#.#.##y#z#z#z#z#z#z#z#z#z#z#z#D#E#F#F#F#F#F#F#F#F#F#F#F#F#F#F#F#F#F#F#F#F#F#F#F#F#F#F#F#F#F#F#G#D#z#z#z#z#z#z#z#z#z#z#z#y.#.#.#",
".#.#.##H#I#I#I#I#I#I#I#I#I#I#I#I#J#K#L#L#L#L#L#L#L#L#L#L#L#L#L#L#L#L#L#L#L#L#L#L#L#L#L#L#L#L#M#N#I#I#I#I#I#I#I#I#I#I#I#I#H.#.#.#",
".#.#.##O#P#P#P#P#P#P#P#P#P#P#P#P#P#Q#R#S#S#S#S#S#S#S#S#S#S#S#S#S#S#S#S#S#S#S#S#S#S#S#S#S#S#T#Q#P#P#P#P#P#P#P#P#P#P#P#P#P#O.#.#.#",
".#.#.##U#V#V#V#V#V#V#V#V#V#V#V#V#V#V#W#X#Y#Y#Y#Y#Y#Y#Y#Y#Y#Y#Y#Y#Y#Y#Y#Y#Y#Y#Y#Y#Y#Y#Y#Y#Z#W#V#V#V#V#V#V#V#V#V#V#V#V#V#V#U.#.#.#",
".#.#.##U#0#0#0#0#0#0#0#0#0#0#0#0#0#0#0#D#1#2#3#3#3#3#3#3#3#3#3#3#3#3#3#3#3#3#3#3#3#3#Y#4#D#0#0#0#0#0#0#0#0#0#0#0#0#0#0#0#U.#.#.#",
".#.#.##5#6#6#6#6#6#6#6#6#6#6#6#6#6#6#6#6#7#8#S#9#9#9#9#9#9#9#9#9#9#9#9#9#9#9#9#9#9#Ya.#7#6#6#6#6#6#6#6#6#6#6#6#6#6#6#6#6#5.#.#.#",
".#.#.##5a#a#a#a#a#a#a#a#a#a#a#a#a#a#a#a#a#aaab#Sacacacacacacacacacacacacacacacac#Yadaaa#a#a#a#a#a#a#a#a#a#a#a#a#a#a#a#a##5.#.#.#",
".#.#.#aeafafafafafafafafafafafafafafafafafafagahaiaiaiaiaiaiaiaiaiaiaiaiaiaiaiaiahagafafafafafafafafafafafafafafafafafafae.#.#.#",
".#.#.#ajakakakakakakakakakakakakakakakakakalaiamamamamamamamamamamamamamamamamamamaialakakakakakakakakakakakakakakakakakaj.#.#.#",
".#.#.#anaoaoaoaoaoaoaoaoaoaoaoaoaoaoaoaoapaqararararararararararararararararararararaqapaoaoaoaoaoaoaoaoaoaoaoaoaoaoaoaoan.#.#.#",
".#.#.#asatatatatatatatatatatatatatatatauaravavavavavavavavavavavavavavavavavavavavavavarauatatatatatatatatatatatatatatatas.#.#.#",
".#.#.#awaxaxaxaxaxaxaxaxaxaxaxaxaxaxayavazazazazazazazazazazazazazazazazazazazazazazazazavayaxaxaxaxaxaxaxaxaxaxaxaxaxaxaw.#.#.#",
".#.#.#aAaBaBaBaBaBaBaBaBaBaBaBaBaB.OaCaDaDaDaDaDaDaDaDaDaDaDaDaDaDaDaDaDaDaDaDaDaDaDaDaDaDaC.OaBaBaBaBaBaBaBaBaBaBaBaBaBaA.#.#.#",
".#.#.#aAaEaEaEaEaEaEaEaEaEaEaEaEaFaDaGaGaGaGaGaGaGaGaGaGaGaGaGaGaGaGaGaGaGaGaGaGaGaGaGaGaGaGaDaFaEaEaEaEaEaEaEaEaEaEaEaEaA.#.#.#",
".#.#.#aAaEaEaEaEaEaEaEaEaEaEaEaHaGaIaIaIaIaIaIaIaIaIaIaIaIaIaIaIaIaIaIaIaIaIaIaIaIaIaIaIaIaIaIaGaHaEaEaEaEaEaEaEaEaEaEaEaA.#.#.#",
".#.#.#aJaKaKaKaKaKaKaKaKaKaKaLaMaNaOaOaOaOaOaOaOaOaOaOaOaOaOaOaPaPaOaOaOaOaOaOaOaOaOaOaOaOaOaOaNaMaLaKaKaKaKaKaKaKaKaKaKaJ.#.#.#",
".#.#.#aQaRaRaRaRaRaRaRaRaRaRaRaSaTaUaVaVaVaVaVaVaVaVaVaVaVaVaWaXaXaWaVaVaVaVaVaVaVaVaVaVaVaVaUaTaSaRaRaRaRaRaRaRaRaRaRaRaQ.#.#.#",
".#.#.#aYaZaZaZaZaZaZaZaZaZaZaZaZa0a1a2a3a3a3a3a3a3a3a3a3a3a4a5a6a6a5a4a3a3a3a3a3a3a3a3a3a3a2a1a0aZaZaZaZaZaZaZaZaZaZaZaZaY.#.#.#",
".#.#.#a7a8a8a8a8a8a8a8a8a8a8a8a8a8a9b.b#bababababababababbbcbda8a8bdbcbbbabababababababab#b.a9a8a8a8a8a8a8a8a8a8a8a8a8a8a7.#.#.#",
".#.#.#bebfbfbfbfbfbfbfbfbfbfbfbfbfbfbgbhbibjbjbjbjbjbjbkbcblbfbfbfbfblbcbkbjbjbjbjbjbjbibhbgbfbfbfbfbfbfbfbfbfbfbfbfbfbfbe.#.#.#",
".#.#.#a7bmbmbmbmbmbmbmbmbmbmbmbmbmbmbmbnbobpbqbqbqbabrbcbsbmbmbmbmbmbmbsbcbrbabqbqbqbpbobnbmbmbmbmbmbmbmbmbmbmbmbmbmbmbma7.#.#.#",
".#.#.#aYbtbubububububububububububububububvbwbxbybjbzbAbBbububububububububBbAbzbjbybxbwbvbubububububububububububububububtaY.#.#.#",
".#.#.#bCbDbtbtbtbtbtbtbtbtbtbtbtbtbtbtbtbtbvbwbEbFbAbGbtbtbtbtbtbtbtbtbtbtbGbAbFbEbwbvbtbtbtbtbtbtbtbtbtbtbtbtbtbtbtbtbDaQbHbHbH",
"bIbIbIaQbJbKbLbLbLbLbLbLbLbLbLbLbLbLbLbLbLbLbMbwbAbNbLbLbLbLbLbLbLbLbLbLbLbLbNbAbwbMbLbLbLbLbLbLbLbLbLbLbLbLbLbLbLbLbKbJaA.q.q.q",
"bObObPaAbQbJbKbKbKbKbKbKbKbKbKbKbKbKbKbKbKbKbKbRbSbKbKbKbKbKbKbKbKbKbKbKbKbKbKbSbRbKbKbKbKbKbKbKbKbKbKbKbKbKbKbKbKbKbJbQasbTbTbT",
"bUbUbUbVbWbWbXbYbDbDbDbDbDbDbDbDbDbDbDbDbDbDbDbDbDbDbDbDbDbDbDbDbDbDbDbDbDbDbDbDbDbDbDbDbDbDbDbDbDbDbDbDbDbDbDbDbYbXbWbWbZb0b0b0",
"b1b2b2b3b4b4b4b5b6b7b8b9b9b9b9b9b9b9b9b9b9b9b9b9b9b9b9b9b9b9b9b9b9b9b9b9b9b9b9b9b9b9b9b9b9b9b9b9b9b9b9b9b9b8b7b6b5b4b4b4c.c#c#ca",
"cbcccccdcecfcfcfcfcfcfcfcfcfcfcfcfcfcfcfcfcfcfcfcfcfcfcfcfcfcfcfcfcfcfcfcfcfcfcfcfcfcfcfcfcfcfcfcfcfcfcfcfcfcfcfcfcfcfcecgchchci",
"cjckckckclcmcmcmcmcmcmcmcmcmcmcmcmcmcmcmcmcmcmcmcmcmcmcmcmcmcmcmcmcmcmcmcmcmcmcmcmcmcmcmcmcmcmcmcmcmcmcmcmcmcmcmcmcmcmcncocococp",
"cqcrcscsctcucncncncncncncncncncncncncncncncncncncncncncncncncncncncncncncncncncncncncncncncncncncncncncncncncncncncncucvcwcw#Gcx",
"QtcyczczczcA#Uajajajajajajajajajajajajajajajajajajajajajajajajajajajajajajajajajajajajajajajajajajajajajajajajajaj#UcBcCcCcCcDQt",
"QtcEcFcGcGcHcGcBcIcJcJcJcJcJcJcJcJcJcJcJcJcJcJcJcJcJcJcJcJcJcJcJcJcJcJcJcJcJcJcJcJcJcJcJcJcJcJcJcJcJcJcJcJcJcJcKcL#ucMcMcMcNcOQt",
"QtQtcPcQ#RcRcRcRcicb#q#q#q#q#q#q#q#q#q#q#q#qcS#l#l#l#l#l#l#l#l#l#l#l#l#l#l#l#l#l#l#lcTcT.3.3.3.3.3.3.3.3.3.VcUcVcWcWcWcXcYcPQtQt",
"QtQtQtaTcZc0c1c2cXcXcXcXcXcXcXc3c3c4c4c4c4c4c4c4c4c4c4c4c5c5c5c5c5c5c5c5c5c5c6c6c6c6c6c6c6c6c6c6c7c7c7c7c7c7c7c7c8c9d.d#daQtQtQt",
"QtQtQtQtQtdbcZb.bwbwbwbwbwbwbwbwbwbwbwbwbwbwbwbwbwbwbwbwbwbwbwbwbwbwbwbwbwbwbwbwbwbwbwbwbwbwbwbwbwbwbwbwbwbwbwbwdca1b.QtQtQtQtQt",
"QtQtQtQtQtQtQtQtQtQtQtQtQtQtQtQtQtQtQtQtQtQtQtQtQtQtQtQtQtQtQtQtQtQtQtQtQtQtQtQtQtQtQtQtQtQtQtQtQtQtQtQtQtQtQtQtQtQtQtQtQtQtQtQt",
"QtQtQtQtQtQtQtQtQtQtQtQtQtQtQtQtQtQtQtQtQtQtQtQtQtQtQtQtQtQtQtQtQtQtQtQtQtQtQtQtQtQtQtQtQtQtQtQtQtQtQtQtQtQtQtQtQtQtQtQtQtQtQtQt",
"QtQtQtQtQtQtQtQtQtQtQtQtQtQtQtQtQtQtQtQtQtQtQtQtQtQtQtQtQtQtQtQtQtQtQtQtQtQtQtQtQtQtQtQtQtQtQtQtQtQtQtQtQtQtQtQtQtQtQtQtQtQtQtQt",
"QtQtQtQtQtQtQtQtQtQtQtQtQtQtQtQtQtQtQtQtQtQtQtQtQtQtQtQtQtQtQtQtQtQtQtQtQtQtQtQtQtQtQtQtQtQtQtQtQtQtQtQtQtQtQtQtQtQtQtQtQtQtQtQt"};
