/* XPM */
static char *dummy[]={
"64 64 691 2",
"Qt c None",
"iw c #000000",
"#Y c #001722",
"iB c #030303",
"ix c #050505",
"ij c #0a0a0a",
"ik c #0c0c0c",
"dB c #0f0f0f",
"il c #131313",
"ir c #141414",
"iF c #141516",
"b# c #161616",
"d4 c #181819",
"iq c #1a1a1a",
"dC c #1b1b1b",
"h8 c #1d1d1d",
"d3 c #1e1e1e",
"ie c #1f1f1f",
"hU c #212121",
"be c #222222",
"h9 c #242424",
"id c #252525",
"dD c #272727",
"hV c #282828",
"h3 c #292929",
".N c #293942",
".M c #293a43",
".L c #293a44",
"d2 c #2a2a2a",
".K c #2a3b44",
".J c #2a3b45",
".I c #2a3c45",
".H c #2a3c46",
"ic c #2b2b2b",
"dA c #2b2d2d",
".G c #2b3d46",
".F c #2b3d47",
".E c #2b3e48",
".D c #2b3f49",
".C c #2c3f49",
".B c #2c3f4a",
".A c #2c404a",
".z c #2c404b",
".y c #2c414b",
"eo c #2d2d2d",
".x c #2d414c",
".w c #2d424c",
".v c #2d424d",
".u c #2d434e",
"bj c #2e2e2e",
"aq c #2e404b",
"az c #2e424d",
".t c #2e434e",
".s c #2e444f",
".r c #2e4450",
".q c #2e4550",
"eu c #2f2f2f",
"a# c #2f414b",
".U c #2f424d",
"#z c #2f434c",
"#g c #2f434e",
".p c #2f4551",
".o c #2f4651",
".n c #2f4652",
".m c #2f4752",
".l c #2f4753",
"h2 c #303030",
"#y c #30434c",
"#x c #30434d",
"#4 c #30444e",
".k c #304753",
".j c #304854",
".i c #304955",
".6 c #31444e",
".h c #314956",
".g c #314a56",
".f c #314a57",
".e c #314b57",
".d c #314b58",
"hH c #323232",
"ah c #32454f",
".3 c #324650",
".c c #324c58",
".b c #324c59",
".a c #324d5a",
"dE c #333333",
"bk c #333434",
".4 c #33464f",
"ar c #334752",
".# c #334e5b",
"hP c #343434",
".7 c #344651",
"#c c #344a55",
"hW c #353535",
"iI c #353b3b",
"d1 c #363636",
"if c #363939",
".R c #364b56",
"ax c #364c57",
"aw c #364c58",
"i. c #373838",
"#5 c #374a54",
"#O c #374b55",
"ag c #374c57",
"ep c #383a3a",
"af c #384c57",
"ae c #384c58",
"#w c #384e59",
"#d c #384e5a",
"en c #393939",
"aK c #394b55",
"#W c #394c58",
"aE c #394f5a",
"hX c #3a3b3b",
"h7 c #3a3e3f",
"iP c #3a4040",
"ab c #3a525d",
"bs c #3b3b3b",
"ai c #3b5059",
"aF c #3b505a",
"br c #3c3c3c",
"#o c #3c505b",
".0 c #3c525c",
"aA c #3c545e",
"#r c #3d515b",
"#p c #3d535d",
"aj c #3d535e",
".Q c #3d5561",
"iE c #3e4445",
"#s c #3e515d",
"#P c #3e525d",
"#l c #3e5560",
"dF c #3f3f3f",
"ib c #3f4141",
"#F c #3f5660",
"a6 c #404141",
"aH c #405660",
"#B c #405661",
"h1 c #414242",
"im c #414646",
"iM c #414748",
".V c #415863",
"d0 c #424242",
"aJ c #425763",
"aI c #425863",
"#E c #425864",
"ap c #425963",
"#3 c #425964",
"aG c #435864",
"#2 c #435964",
"#1 c #435965",
"aD c #435a66",
"aC c #435b66",
"aB c #435b67",
"ac c #435b68",
"#A c #445b68",
"#D c #445c66",
"ay c #445c68",
"at c #445d65",
"em c #454545",
"#8 c #455d68",
"av c #455d69",
"#Z c #455d6a",
"bB c #464646",
"#h c #465e6a",
"bC c #474747",
".9 c #475d68",
".8 c #475e69",
".5 c #475f6a",
"#C c #47606b",
"eP c #484848",
"eV c #484949",
".2 c #48606b",
".Z c #48616c",
".Y c #48616d",
".X c #48626d",
".W c #48626e",
"hC c #494a4a",
"ip c #494d4e",
"#V c #49606d",
".1 c #49616d",
".S c #49636e",
"#v c #496370",
"hq c #4a4c4c",
"#Q c #4a606d",
"#J c #4a626e",
".T c #4a6370",
".P c #4a6470",
"dG c #4b4b4b",
"#m c #4b6370",
"ad c #4b646f",
"#S c #4b6570",
"am c #4b6771",
"hN c #4c4c4c",
"#t c #4c6672",
"#q c #4c6673",
"#T c #4c6674",
"ak c #4d646f",
"#U c #4d6672",
"#6 c #4d6773",
"#n c #4d6774",
"as c #4d6873",
"ao c #4d6875",
"an c #4d6876",
"#i c #4d6976",
"dZ c #4e4e4e",
"#9 c #4e6773",
"a. c #4e6872",
"#K c #4e6976",
"#j c #4e6a76",
"#e c #4e6a77",
"#I c #4e6a78",
"#b c #4e6b78",
"g4 c #4f4f4f",
"aL c #4f5d64",
"#7 c #4f6775",
"#R c #4f6874",
"#k c #4f6976",
"#N c #4f6b77",
"#a c #4f6b78",
"#0 c #4f6b79",
"hM c #505050",
"au c #505d65",
"al c #505e65",
"#M c #506b77",
"#L c #506b78",
"#H c #506b7a",
"el c #515151",
"aa c #515e65",
"#X c #515e66",
"## c #516d79",
"#f c #516d7a",
"bL c #535353",
"#G c #536067",
"bM c #545454",
"e0 c #565656",
"hO c #565757",
"#u c #56636a",
"dH c #575757",
"d9 c #575b5b",
"#. c #57636a",
".O c #57646b",
"dY c #595959",
"e. c #5a5a5a",
"bN c #5a5b5b",
"hu c #5b5b5b",
"hr c #5b5c5b",
"bf c #5b5c5c",
"iy c #5b6364",
"hz c #5c5c5c",
"ek c #5d5d5d",
"ht c #5d5e5e",
"bi c #5d5f5f",
"eQ c #5d6060",
"ev c #5e5e5e",
"bU c #5f5f5f",
"bT c #5f6060",
"gS c #5f6061",
"bI c #5f6d74",
"bW c #606060",
"bx c #606e75",
"e6 c #616161",
"iA c #61696a",
"dI c #626262",
"f. c #646464",
"dX c #656565",
"e5 c #656768",
"h4 c #656d6d",
"iC c #656f6f",
"bH c #65737a",
"e# c #666666",
"hv c #666767",
"hh c #676767",
"hI c #676b6b",
"f4 c #67757b",
"by c #68767c",
"b4 c #696969",
"b5 c #6b6b6b",
"hT c #6b7474",
"gf c #6b797f",
"b8 c #6c6c6c",
"hy c #6c6e6e",
"fd c #6d6d6d",
"dJ c #6e6e6e",
"hk c #6f6f6f",
"hL c #6f7373",
"ho c #6f7474",
"iv c #6f7a7a",
"fQ c #6f7d83",
"dW c #707070",
"hB c #717372",
"ea c #727272",
"hd c #727879",
"b7 c #737373",
"hY c #737b7b",
"bV c #747474",
"cb c #757575",
"fk c #777a7a",
"cf c #787878",
"gg c #78868b",
"dK c #797979",
"bK c #797a7b",
"bD c #797b7b",
"fe c #7a7a7a",
"gq c #7a7b7b",
"gz c #7b7b7b",
"h0 c #7b8383",
"dV c #7c7c7c",
"hl c #7c7e7d",
"iW c #7c8e91",
"fj c #7d7d7d",
"cg c #7d7e7e",
"gO c #7d8181",
"iG c #7d898a",
"iV c #7d8e91",
"eb c #7e7e7e",
"hg c #7e807f",
"iH c #7e898a",
"fE c #7f8181",
"gI c #7f8384",
"iR c #7f8f92",
"cc c #808080",
"bQ c #808c91",
"iJ c #809194",
"cl c #818181",
"iD c #819295",
"co c #828282",
"et c #828888",
"d5 c #828889",
"fA c #828f94",
"fF c #838383",
"g8 c #838484",
"gT c #838584",
"e1 c #838888",
"it c #839396",
"cn c #848484",
"ig c #849497",
"fp c #858585",
"h5 c #859698",
"gu c #868686",
"dU c #878787",
"gN c #878888",
"hR c #879799",
"fu c #888888",
"i# c #889393",
"hE c #88979a",
"ct c #898989",
"ec c #8a8a8a",
"f5 c #8a969a",
"hp c #8a999c",
"fU c #8b8b8b",
"hb c #8b9a9d",
"ej c #8c8c8c",
"g1 c #8c9b9e",
"cu c #8d8d8d",
"hi c #8d9394",
"ia c #8d9899",
"cz c #8e8e8e",
"gX c #8e8f8e",
"gW c #8e8f8f",
"gP c #8e9c9f",
"dL c #8f8f8f",
"gi c #8f9292",
"fT c #8f9393",
"fv c #8f9394",
"ha c #8f9899",
"bd c #909393",
"hQ c #909b9c",
"fB c #909ba0",
"gG c #909ea0",
"gw c #909fa2",
"dT c #919191",
"ca c #919393",
"bJ c #919ca0",
"fM c #929292",
"ba c #929595",
"fR c #929fa2",
"gn c #92a0a2",
"cy c #939393",
"gm c #939494",
"hj c #939a9b",
"iO c #93a1a2",
"fZ c #949595",
"b9 c #949797",
"gc c #94a1a4",
"iN c #94a2a3",
"f1 c #94a3a5",
"cE c #959595",
"eZ c #959696",
"f6 c #969a9a",
"fO c #96a3a6",
"is c #96a4a5",
"fV c #979797",
"gZ c #979998",
"gF c #979d9d",
"hw c #97a0a1",
"g3 c #97a1a2",
"ei c #989898",
"fx c #98a4a7",
"hG c #98a5a6",
"in c #98a6a7",
"dM c #999999",
"g5 c #999c9b",
"ge c #99a6a8",
"fm c #99a6a9",
"cJ c #9a9a9a",
"g9 c #9a9c9b",
"bw c #9aa4a8",
"fa c #9aa7aa",
"io c #9aa8a9",
"iU c #9aa9aa",
"gj c #9b9b9b",
"ga c #9b9d9d",
"cZ c #9ba2a2",
"gy c #9ba4a4",
"iQ c #9baaab",
"iT c #9babac",
"cO c #9c9c9c",
"fo c #9ca2a3",
"c0 c #9ca3a3",
"hx c #9ca6a7",
"e2 c #9ca8aa",
"ii c #9cabab",
"iS c #9cacad",
"cF c #9d9d9d",
"cK c #9d9e9e",
"hA c #9da2a0",
"eS c #9da9ac",
"iL c #9dacad",
"fL c #9e9e9e",
"g7 c #9ea1a0",
"c1 c #9ea4a4",
"iK c #9eadae",
"g# c #9f9f9f",
"c2 c #9fa6a6",
"er c #9fabad",
"hJ c #9facad",
"cP c #a0a0a0",
"c3 c #a0a7a7",
"d6 c #a0abae",
"iz c #a0afb0",
"cU c #a1a1a1",
"bA c #a1a5a5",
"hs c #a1a6a4",
"f# c #a1a8a9",
"dx c #a1adaf",
"iu c #a1b0b1",
"gM c #a2a3a2",
"fG c #a2a3a3",
"c4 c #a2a9a9",
"eU c #a2aaaa",
"dc c #a3a3a3",
"fN c #a3aaab",
"cW c #a3aeb1",
"hK c #a3b0b1",
"ih c #a3b2b3",
"ce c #a4a4a4",
"c5 c #a4aaaa",
"cL c #a4afb2",
"dS c #a5a5a5",
"fq c #a5a6a6",
"cD c #a5a7a8",
"bt c #a5a9a9",
"cB c #a5b0b2",
"h6 c #a5b3b4",
"hZ c #a5b4b4",
"cT c #a6a6a6",
"gL c #a6a7a7",
"gr c #a6a8a7",
"c6 c #a6acac",
"eq c #a6aeae",
"b1 c #a6b0b3",
"hS c #a6b5b5",
"cq c #a7b1b4",
"cA c #a8abab",
"c7 c #a8afaf",
"hF c #a8b6b7",
"ci c #a9b3b5",
"c. c #a9b3b6",
"hD c #a9b6b7",
"g. c #aaaaaa",
"h# c #aaaead",
"fz c #aab6b8",
"g0 c #aab7b8",
"dd c #ababab",
"c8 c #abb1b1",
"cY c #abb2b2",
"bY c #abb5b7",
"di c #acacac",
"fD c #acb5b6",
"gv c #acb6b7",
"hc c #acb9ba",
"eh c #adadad",
"gl c #adafae",
"b3 c #adb1b2",
"bO c #adb6b9",
"gh c #adb9b9",
"g2 c #adbabb",
"cm c #aeaeae",
"c9 c #aeb4b4",
"bR c #aeb7ba",
"f0 c #aeb8b8",
"bE c #aeb8ba",
"gR c #aebbbc",
"ff c #afb0af",
"aT c #afb6b9",
"bu c #afb8ba",
"gQ c #afbcbd",
"ew c #b0b1b1",
"dz c #b0b8b9",
"dh c #b1b1b1",
"db c #b1b6b6",
"d. c #b1b7b7",
"bm c #b1babc",
"gp c #b1bcbd",
"gH c #b1bdbe",
"gY c #b2b6b4",
"dj c #b2b6b6",
"bX c #b2b7b7",
"he c #b2b8b5",
"dr c #b2baba",
"bg c #b2bbbd",
"d# c #b3b9b9",
"hm c #b3bab7",
"ds c #b3baba",
"dq c #b3bbbb",
"bb c #b3bcbe",
"gx c #b3bfbf",
"fY c #b4b4b4",
"gA c #b4b8b6",
"dp c #b4bbbb",
"fl c #b4bcbd",
"e4 c #b4bdbe",
"fS c #b4bfbf",
"go c #b4c0c1",
"cI c #b5b5b5",
"fK c #b5b6b6",
"gt c #b5b7b6",
"cs c #b5bbbb",
"do c #b5bcbc",
"dt c #b5bdbd",
"a8 c #b5bdbf",
"gb c #b5bfc0",
"dR c #b6b6b6",
"eO c #b6b7b7",
"a3 c #b6b9ba",
"gV c #b6bbb8",
"hf c #b6bdba",
"a4 c #b6bec1",
"gd c #b6c2c2",
"dN c #b7b7b7",
"da c #b7bdbd",
"dn c #b7bebe",
"du c #b7bfbf",
"b2 c #b7c0c2",
"f3 c #b7c2c3",
"fC c #b7c2c4",
"dm c #b8bebe",
"dv c #b8c0c0",
"a1 c #b8c0c2",
"f2 c #b8c3c4",
"aZ c #b9c0c3",
"fP c #b9c5c5",
"dl c #bac0c0",
"aX c #bac2c4",
"fw c #bac4c5",
"ft c #bbbcbc",
"hn c #bbc2bf",
"eR c #bbc3c4",
"dw c #bbc4c4",
"fy c #bbc6c7",
"dk c #bcc2c2",
"cp c #bcc2c3",
"aV c #bcc3c5",
"eN c #bdbebd",
"ex c #bdbebe",
"fc c #bdc6c7",
"fn c #bdc7c8",
"cQ c #bfbfbf",
"e7 c #bfc1c0",
"gC c #bfc2c1",
"h. c #bfc5c3",
"fb c #bfc9ca",
"eg c #c0c0c0",
"g6 c #c0c6c4",
"d8 c #c0c9c9",
"e3 c #c0cacb",
"gE c #c1c5c3",
"ey c #c2c4c3",
"cV c #c2c9c9",
"bz c #c2cacb",
"eT c #c2cccc",
"eM c #c3c4c3",
"gJ c #c3c8c6",
"gU c #c3c9c6",
"es c #c4cdce",
"fi c #c6c8c6",
"gK c #c6cbc9",
"d7 c #c6cfcf",
"ez c #c7c8c7",
"dQ c #c7c8c8",
"dy c #c7d0d1",
"eL c #c8cac9",
"gD c #c8cdcb",
"f7 c #c9cdcb",
"gB c #c9cecc",
"cN c #c9d1d2",
"cX c #c9d2d2",
"fW c #cacdcc",
"ed c #cbcccc",
"eA c #cbcdcc",
"cM c #cbd3d4",
"gs c #ccd0ce",
"b. c #ccd1d2",
"ck c #ccd3d4",
"cC c #ccd4d5",
"eK c #cdcfce",
"fH c #cdd1cf",
"b0 c #cdd5d6",
"gk c #ced3d1",
"bq c #ced4d4",
"bo c #ced4d5",
"cr c #ced6d6",
"eW c #cfd2d1",
"bS c #cfd5d5",
"b6 c #d0d0d0",
"eB c #d0d1d0",
"f9 c #d0d4d2",
"cj c #d0d7d8",
"fX c #d1d5d3",
"a7 c #d1d5d5",
"f8 c #d1d6d4",
"ch c #d1d8d8",
"eJ c #d2d3d3",
"e9 c #d2d4d3",
"c# c #d2d9d9",
"cS c #d3d5d4",
"aS c #d3d8d9",
"aR c #d3d8da",
"bl c #d3d9d9",
"aQ c #d3d9da",
"bZ c #d3dadb",
"fJ c #d4d8d6",
"aP c #d4d9da",
"aO c #d4d9db",
"aN c #d4dadb",
"aM c #d4dadc",
"bP c #d5dcdc",
"cv c #d6d7d6",
"eI c #d6d8d7",
"bG c #d6dcdd",
"bp c #d6dddd",
"eC c #d7d9d8",
"fI c #d7dbd9",
"bF c #d7ddde",
"de c #d9dad9",
"ef c #d9dbda",
"fs c #d9dcdb",
"bv c #d9dfdf",
"eD c #dadcdb",
"fr c #dadddc",
"bn c #dae0e0",
"fg c #dcdfdd",
"bh c #dce2e2",
"eH c #dddfde",
"fh c #dde0de",
"eY c #dde0df",
"bc c #dee3e3",
"e8 c #dfe2e1",
"a9 c #dfe4e5",
"eE c #e1e3e2",
"a5 c #e1e6e6",
"eX c #e2e5e4",
"a2 c #e3e7e8",
"eG c #e4e6e5",
"eF c #e5e7e6",
"a0 c #e5e9e9",
"aY c #e6eaea",
"ee c #e8eae9",
"aW c #e8ecec",
"dg c #e9eae9",
"dO c #e9ebea",
"aU c #eaeded",
"dP c #ebedec",
"df c #eeefee",
"cx c #f0f1f0",
"cG c #f0f1f1",
"cR c #f0f2f1",
"cH c #f3f4f4",
"cw c #f6f7f6",
"cd c #f9f9f9",
"QtQtQtQt.#.a.a.b.b.c.d.e.f.g.g.h.i.i.j.j.k.l.m.n.o.p.p.q.r.s.s.t.u.v.v.w.x.x.y.z.A.B.C.D.E.E.F.F.G.H.H.I.J.K.L.M.M.N.OQtQtQtQtQt",
"QtQtQtQt.#.a.a.b.b.c.d.e.f.g.g.h.i.i.j.j.k.l.m.n.o.p.p.q.r.s.s.t.u.v.v.w.x.x.y.z.A.B.C.D.E.E.F.F.G.H.H.I.J.K.L.M.M.N.OQtQtQtQtQt",
"QtQtQtQt.#.a.a.b.b.c.d.e.f.g.g.h.i.i.j.j.k.l.m.n.o.p.p.q.r.s.P.P.Q.v.R.S.T.U.V.W.X.Y.Z.Z.0.1.2.3.4.5.5.6.7.8.9.M.M.N#.QtQtQtQtQt",
"QtQtQtQt.#.a.a.b.b.c.d.e.f.g.g.h.i.i.j.j.k.l.m.n.o.p.p.q.r.s###a#b#c#d#e#f#g#h#i#j#k#k#k#l#m#n#o#p#q#q#r#s#t.9.M.M.N#uQtQtQtQtQt",
"QtQtQtQt.#.a.a.b.b.c.d.e.f.g.g.h.i.i.j.j.k.l.m.n.o.p.p.q.r.s###a#b#v#w#e#f#g#h#i.1#x#y#z.E#A#n#B#C#q#q#D#E#t#F.M.M.N#GQtQtQtQtQt",
"QtQtQtQt.#.a.a.b.b.c.d.e.f.g.g.h.i.i.j.j.k.l.m.n.o.p.p.q.r.s###a#H#I#J#e#f#g#h#i#K#L#M#N#O#P#n#Q#R#S#T#U#V#t#W.M.M.N#X#Y#Y#Y#Y#Y",
"QtQtQtQt.#.a.a.b.b.c.d.e.f.g.g.h.i.i.j.j.k.l.m.n.o.p.p.q.r.s###a#Z#a#0#e#f#g#h#i#U#1#2#3#4#5#6#7#6#2#8#t#9a.a#.M.M.Naa#Y#Y#Y#Y#Y",
"QtQtQtQt.#.a.a.b.b.c.d.e.f.g.g.h.i.i.j.j.k.l.m.n.o.p.p.q.r.s###aabac#I#e#f#g#h#iadaeafagah.E#R#n#6aiaj#t#tak.L.M.M.Nal#Y#Y#Y#Y#Y",
"QtQtQtQt.#.a.a.b.b.c.d.e.f.g.g.h.i.i.j.j.k.l.m.n.o.p.p.q.r.s###aab#gam#e#f#g#h#i#ianaoaoap.E.2#n#Raqaras#tat.L.M.M.Nau#Y#Y#Y#Y#Y",
"QtQtQtQt.#.a.a.b.b.c.d.e.f.g.g.h.i.i.j.j.k.l.m.n.o.p.p.q.r.s#havaw.vaxay#ZazaAaBaCaDaDaDaE.EaFaGaH.H.HaIaJaK.L.M.M.Nau#Y#Y#Y#Y#Y",
"QtQtQtQt.#.a.a.b.b.c.d.e.f.g.g.h.i.i.j.j.k.l.m.n.o.p.p.q.r.s.s.t.u.v.v.w.x.x.y.z.A.B.C.D.E.E.F.F.G.H.H.I.J.K.L.M.M.NaL#Y#Y#Y#Y#Y",
"QtQtQtQt.#.a.a.b.b.c.d.e.f.g.g.h.i.i.j.j.k.l.m.n.o.p.p.q.r.s.s.t.u.v.v.w.x.x.y.z.A.B.C.D.E.E.F.F.G.H.H.I.J.K.L.M.M.NaL#Y#Y#Y#Y#Y",
"QtQtQtQtaMaMaMaMaMaMaMaNaNaNaNaNaNaNaNaNaOaOaOaOaOaOaOaOaOaPaPaPaPaPaPaPaPaPaQaQaQaRaRaRaRaRaSaSaSaSaSaSaSaSaSaSaSaSaT#Y#Y#Y#Y#Y",
"QtQtQtQtaUaUaUaUaUaUaUaUaUaUaUaUaUaUaUaUaUaUaUaUaUaUaUaUaUaUaUaUaUaUaUaUaUaUaUaUaUaUaUaUaUaUaUaUaUaUaUaUaUaUaUaUaUaUaV#Y#Y#Y#Y#Y",
"QtQtQtQtaWaWaWaWaWaWaWaWaWaWaWaWaWaWaWaWaWaWaWaWaWaWaWaWaWaWaWaWaWaWaWaWaWaWaWaWaWaWaWaWaWaWaWaWaWaWaWaWaWaWaWaWaWaWaX#Y#Y#Y#Y#Y",
"QtQtQtQtaYaYaYaYaYaYaYaYaYaYaYaYaYaYaYaYaYaYaYaYaYaYaYaYaYaYaYaYaYaYaYaYaYaYaYaYaYaYaYaYaYaYaYaYaYaYaYaYaYaYaYaYaYaYaZ#Y#Y#Y#Y#Y",
"QtQtQtQta0a0a0a0a0a0a0a0a0a0a0a0a0a0a0a0a0a0a0a0a0a0a0a0a0a0a0a0a0a0a0a0a0a0a0a0a0a0a0a0a0a0a0a0a0a0a0a0a0a0a0a0a0a0a1#Y#Y#Y#Y#Y",
"QtQtQtQta2a2a2a2a2a2a2a2a2a2a2a2a2a2a2a2a2a2a2a2a2a2a2a2a2a2a2a2a2a2a2a2a3a2a2a2a2a2a2a2a2a2a2a2a2a2a2a2a2a2a2a2a2a2a4#Y#Y#Y#Y#Y",
"QtQtQtQta5a5a5a5a5a5a5a5a5a5a5a5a5a5a5a5a5a5a5a5a5a5a5a5a5a5a5a5a5a5a5a5a6a7a5a5a5a5a5a5a5a5a5a5a5a5a5a5a5a5a5a5a5a5a8#Y#Y#Y#Y#Y",
"QtQtQtQta9a9a9a9a9a9a9a9a9a9a9a9a9a9a9a9a9a9a9a9a9a9a9a9a9a9a9a9a9a9a9b.b#baa9a9a9a9a9a9a9a9a9a9a9a9a9a9a9a9a9a9a9a9bb#Y#Y#Y#Y#Y",
"QtQtQtQtbcbcbcbcbcbcbcbcbcbcbcbcbcbcbcbcbcbcbcbcbcbcbcbcbcbcbcbcbcbcbcbdbebfbcbcbcbcbcbcbcbcbcbcbcbcbcbcbcbcbcbcbcbcbg#Y#Y#Y#Y#Y",
"QtQtQtQtbhbhbhbhbhbhbhbhbhbhbhbhbhbhbhbhbhbhbhbhbhbhbhbhbhbhbhbhbhbhbhbibjbkblbhbhbhbhbhbhbhbhbhbhbhbhbhbhbhbhbhbhbhbm#Y#Y#Y#Y#Y",
"QtQtQtQtbnbnbnbobpbnbnbnbnbnbnbnbnbnbnbnbnbnbnbnbnbnbnbnbnbnbnbnbnbnbqbrbsbsbtbnbnbnbnbnbnbnbnbnbnbnbnbnbnbnbnbnbnbnbu#Y#Y#Y#Y#Y",
"QtQtQtQtbvbvbwbxbybzbvbvbvbvbvbvbvbvbvbvbvbvbvbvbvbvbvbvbvbvbvbvbvbvbAbBbCbCbDbvbvbvbvbvbvbvbvbvbvbvbvbvbvbvbvbvbvbvbE#Y#Y#Y#Y#Y",
"QtQtQtQtbFbGbHbIbIbJbFbFbFbFbFbFbFbFbFbFbFbFbFbFbFbFbFbFbFbFbFbFbFbFbKbLbMbMbNaQbFbFbFbFbFbFbFbFbFbFbFbFbFbFbFbFbFbFbO#Y#Y#Y#Y#Y",
"QtQtQtQtbPbPbQbIbIbRbPbPbPbPbPbPbPbPbPbPbPbPbPbPbPbPbPbPbPbPbPbPbPbSbTbUbVbWbUbXbPbPbPbPbPbPbPbPbPbPbPbPbPbPbPbPbPbPbY#Y#Y#Y#Y#Y",
"QtQtQtQtbZbZb0b1b2bZbZbZbZbZbZbZbZbZbZbZbZbZbZbZbZbZbZbZbZbZbZbZbZb3b4b5b6b7b8b9bZbZbZbZbZbZbZbZbZbZbZbZbZbZbZbZbZbZc.#Y#Y#Y#Y#Y",
"QtQtQtQtc#c#c#c#c#c#c#c#c#c#c#c#c#c#c#c#c#c#c#c#c#c#c#c#c#c#c#c#c#cacbcccdcecfcgchc#c#c#c#c#c#c#c#c#c#c#c#c#c#c#c#c#ci#Y#Y#Y#Y#Y",
"QtQtQtQtcjcjcjcjcjcjcjcjcjcjcjcjcjcjcjcjcjcjcjcjcjcjcjcjcjcjcjcjckclclcmcdb6cncocpcjcjcjcjcjcjcjcjcjcjcjcjcjcjcjcjcjcq#Y#Y#Y#Y#Y",
"QtQtQtQtcrcrcrcrcrcrcrcrcrcrcrcrcrcrcrcrcrcrcrcrcrcrcrcrcrcrcrcrcsctcucvcwcxcyczcAcrcrcrcrcrcrcrcrcrcrcrcrcrcrcrcrcrcB#Y#Y#Y#Y#Y",
"QtQtQtQtcCcCcCcCcCcCcCcCcCcCcCcCcCcCcCcCcCcCcCcCcCcCcCcCcCcCcCcCcDcEcFcGcHcHcIcJcKcCcCcCcCcCcCcCcCcCcCcCcCcCcCcCcCcCcL#Y#Y#Y#Y#Y",
"QtQtQtQtcMcMcMcMcMcMcMcMcMcMcMcMcMcMcMcMcMcMcMcMcMcMcMcMcMcMcMcNcOcPcQcRcRcRcScTcUcVcMcMcMcMcMcMcMcMcMcMcMcMcMcMcMcMcW#Y#Y#Y#Y#Y",
"QtQtQtQtcXcXcXcXcXcXcXcXcXcXcXcXcYcZc0c1c2c3c4c5c6c7c8c9d.d#dadbdcdddedfdfdfdgdhdidjdkdldmdndodpdqdrdsdpdtdtdudvdwcXdx#Y#Y#Y#Y#Y",
"QtQtQtQtdydydydydydydydydydydydydzdAdBdCdDdEdFdGdHdIdJdKcndLdMdcdidNdOdPdPdPdPdQdRcmdScOdTdUdVdWdXdYdZd0d1d2d3d4d5dyd6#Y#Y#Y#Y#Y",
"QtQtQtQtd7d7d7d7d7d7d7d7d7d7d7d7d7d8d9d3d2d1d0dZe.e#eaebeccEcPddcIedeeeeeeeeeeefegdNehdceiejclcbb4ekelemeneoepeqd7d7er#Y#Y#Y#Y#Y",
"QtQtQtQteseseseseseseseseseseseseseseseteuenemevewexeyezeAeBcSeCeDeEeFeFeFeFeFeGeHeDeIeJeKeLeMeNeOdKbMePbreQeReseseseS#Y#Y#Y#Y#Y",
"QtQtQtQteTeTeTeTeTeTeTeTeTeTeTeTeTeTeTeTeUeVbCbLbVeWeXeXeXeXeXeXeXeXeXeXeXeXeXeXeXeXeXeXeXeXeXeYeZdIe0dGe1eTeTeTeTeTe2#Y#Y#Y#Y#Y",
"QtQtQtQte3e3e3e3e3e3e3e3e3e3e3e3e3e3e3e3e3e4e5bMe6b7e7e8e8e8e8e8e8e8e8e8e8e8e8e8e8e8e8e8e8e8e9cudWf.bTf#e3e3e3e3e3e3fa#Y#Y#Y#Y#Y",
"QtQtQtQtfbfbfbfbfbfbfbfbfbfbfbfbfbfbfbfbfbfbfce1e6fdfefffgfhfhfhfhfhfhfhfhfhfhfhfhfhfhfhfhficufjdWfkflfbfbfbfbfbfbfbfm#Y#Y#Y#Y#Y",
"QtQtQtQtfnfnfnfnfnfnfnfnfnfnfnfnfnfnfnfnfnfnfnfnfodWdKfpfqeIfrfrfrfrfrfrfrfrfrfrfrfrfrfsftcEfudVfvfwfnfnfnfnfnfnfnfnfx#Y#Y#Y#Y#Y",
"QtQtQtQtfyfyfzfAfBfCfyfyfyfyfyfyfyfyfyfyfyfyfyfyfyfDfEfFdLfGfHfIfIfIfIfIfIfIfIfIfIfIfJfKfLfMfufNfyfyfyfyfyfyfyfyfyfyfO#Y#Y#Y#Y#Y",
"QtQtQtQtfPfPfQbIbIfRfPfPfPfPfPfPfPfPfPfPfPfPfPfPfPfPfSfTfUfVcefWfJfJfJfJfJfJfJfJfJfXfYdScJfZf0fPfPfPfPfPfPfPfPfPfPfPf1#Y#Y#Y#Y#Y",
"QtQtQtQtf2f3f4bIbIf5f2f2f2f2f2f2f2f2f2f2f2f2f2f2f2f2f2f3f6fMcOf7f8f8f8f8f8f8f8f8f8f9g.g#gagbf2f2f2f2f2f2f2f2f2f2f2f2gc#Y#Y#Y#Y#Y",
"QtQtQtQtgdgdgegfggghgdgdgdgdgdgdgdgdgdgdgdgdgdgdgdgdgdgdgifUgjgkgkgkgkgkgkgkgkgkgkgkglfVgmgdgdgdgdgdgdgdgdgdgdgdgdgdgn#Y#Y#Y#Y#Y",
"QtQtQtQtgogogogogogogogogogogogogogogogogogogogogogogogpgqfFgrgsgsgsgsgsgsgsgsgsgsgsgtdLgugvgogogogogogogogogogogogogw#Y#Y#Y#Y#Y",
"QtQtQtQtgxgxgxgxgxgxgxgxgxgxgxgxgxgxgxgxgxgxgxgxgxgxgxgyeagzgAgBgBgBgBgBgCgDgBgBgBgBgEgufjgFgxgxgxgxgxgxgxgxgxgxgxgxgG#Y#Y#Y#Y#Y",
"QtQtQtQtgHgHgHgHgHgHgHgHgHgHgHgHgHgHgHgHgHgHgHgHgHgHgHgIb4cbgJgKgKgKgJgLfVgMgEgKgKgKgKgNbVgOgHgHgHgHgHgHgHgHgHgHgHgHgP#Y#Y#Y#Y#Y",
"QtQtQtQtgQgQgQgQgQgQgQgQgQgQgQgQgQgQgQgQgQgQgQgQgQgQgRgSbWgTgUgUgUgVgWctfUfUgXgYgUgUgUgZb5f.g0gQgQgQgQgQgQgQgQgQgQgQg1#Y#Y#Y#Y#Y",
"QtQtQtQtg2g2g2g2g2g2g2g2g2g2g2g2g2g2g2g2g2g2g2g2g2g2g3g4dHg5g6g6g7dKfefjg8ebfjgzg9h.g6h#e6dYhag2g2g2g2g2g2g2g2g2g2g2hb#Y#Y#Y#Y#Y",
"QtQtQtQthchchchchchchchchchchchchchchchchchchchchchchdbBdZhehfhghhb5dJhig0hjeahkb8hlhmhnekg4hohchchchchchchchchchchchp#Y#Y#Y#Y#Y",
"QtQtQtQtg0g0g0g0g0g0g0g0g0g0g0g0g0g0g0g0g0g0g0g0g0g0hqbrhrhshte0huhvhwg0g0g0hxhybWhzbUhAhBemhChDg0g0g0g0g0g0g0g0g0g0hE#Y#Y#Y#Y#Y",
"QtQtQtQthFhFhFhFhFhFhFhFhFhFhFhFhFhFhFhFhFhFhFhFhFhGd2hHhCd0bBdGhIhJhFhFhFhFhFhKhLhMhNbChObshPhQhFhFhFhFhFhFhFhFhFhFhR#Y#Y#Y#Y#Y",
"QtQtQtQthShShShShShShShShShShShShShShShShShShShShShThUhVeuhWhXhYhZhShShShShShShShSh0h1brd1h2h3h4hShShShShShShShShShSh5#Y#Y#Y#Y#Y",
"QtQtQtQth6h6h6h6h6h6h6h6h6h6h6h6h6h6h6h6h6h6h6h6h6h7b#h8h9i.i#h6h6h6h6h6h6h6h6h6h6h6iaibicidieifh6h6h6h6h6h6h6h6h6h6ig#Y#Y#Y#Y#Y",
"QtQtQtQtihihihihihihihihihihihihihihihihihihihihiiijikiliminihihihihihihihihihihihihihioipiqirdBisihihihihihihihihihit#Y#Y#Y#Y#Y",
"QtQtQtQtiuiuiuiuiuiuiuiuiuiuiuiuiuiuiuiuiuiuiuiuiviwixiyiziuiuiuiuiuiuiuiuiuiuiuiuiuiuiuiuiAikiBiCiuiuiuiuiuiuiuiuiuiD#Y#Y#Y#Y#Y",
"QtQtQtQtiziziziziziziziziziziziziziziziziziziziziEiFiGiziziziziziziziziziziziziziziziziziziziHiFiIiziziziziziziziziziJ#Y#Y#Y#Y#Y",
"QtQtQtQtiKiKiKiKiKiKiKiKiKiKiKiKiKiKiKiKiKiKiKiLiMiNiKiKiKiKiKiKiKiKiKiKiKiKiKiKiKiKiKiKiKiKiKiOiPiQiKiKiKiKiKiKiKiKiR#Y#Y#Y#Y#Y",
"QtQtQtQtiSiSiSiSiSiSiSiSiSiSiSiSiSiSiSiSiSiSiSiTiSiSiSiSiSiSiSiSiSiSiSiSiSiSiSiSiSiSiSiSiSiSiSiSiSiUiSiSiSiSiSiSiSiSiV#Y#Y#Y#Y#Y",
"QtQtQtQtiTiTiTiTiTiTiTiTiTiTiTiTiTiTiTiTiTiTiTiTiTiTiTiTiTiTiTiTiTiTiTiTiTiTiTiTiTiTiTiTiTiTiTiTiTiTiTiTiTiTiTiTiTiTiW#Y#Y#Y#Y#Y",
"QtQtQtQtQtQtQtQtQt#Y#Y#Y#Y#Y#Y#Y#Y#Y#Y#Y#Y#Y#Y#Y#Y#Y#Y#Y#Y#Y#Y#Y#Y#Y#Y#Y#Y#Y#Y#Y#Y#Y#Y#Y#Y#Y#Y#Y#Y#Y#Y#Y#Y#Y#Y#Y#Y#Y#Y#Y#Y#Y#Y#Y",
"QtQtQtQtQtQtQtQtQt#Y#Y#Y#Y#Y#Y#Y#Y#Y#Y#Y#Y#Y#Y#Y#Y#Y#Y#Y#Y#Y#Y#Y#Y#Y#Y#Y#Y#Y#Y#Y#Y#Y#Y#Y#Y#Y#Y#Y#Y#Y#Y#Y#Y#Y#Y#Y#Y#Y#Y#Y#Y#Y#Y#Y",
"QtQtQtQtQtQtQtQtQt#Y#Y#Y#Y#Y#Y#Y#Y#Y#Y#Y#Y#Y#Y#Y#Y#Y#Y#Y#Y#Y#Y#Y#Y#Y#Y#Y#Y#Y#Y#Y#Y#Y#Y#Y#Y#Y#Y#Y#Y#Y#Y#Y#Y#Y#Y#Y#Y#Y#Y#Y#Y#Y#Y#Y",
"QtQtQtQtQtQtQtQtQt#Y#Y#Y#Y#Y#Y#Y#Y#Y#Y#Y#Y#Y#Y#Y#Y#Y#Y#Y#Y#Y#Y#Y#Y#Y#Y#Y#Y#Y#Y#Y#Y#Y#Y#Y#Y#Y#Y#Y#Y#Y#Y#Y#Y#Y#Y#Y#Y#Y#Y#Y#Y#Y#Y#Y"};
