/* XPM */
static char *dummy[]={
"32 32 170 2",
"Qt c None",
"#F c #000000",
"#w c #010001",
"al c #040404",
"#q c #050505",
"#f c #060606",
"#G c #0b0a0b",
"au c #0b0b0b",
"#r c #0c0c0c",
".6 c #0d0d0d",
"aL c #0f0f0f",
"#H c #101010",
"#o c #111011",
"#A c #121212",
"#s c #131313",
".7 c #141414",
".1 c #141514",
"#E c #151515",
"am c #161616",
".N c #171717",
"#z c #181818",
"az c #1a1a1a",
".O c #1b1b1b",
"#9 c #1c1c1c",
"#I c #1d1c1d",
"av c #1d1d1d",
"aN c #1e1e1e",
"#a c #202020",
"#p c #212021",
"## c #212121",
".p c #222122",
".P c #222222",
"aD c #232323",
"#4 c #242424",
".G c #252525",
"#u c #252625",
"#l c #262626",
"#y c #272727",
".I c #282828",
".Q c #292929",
"aG c #2a2a2a",
"a# c #2b2b2b",
".H c #2c2c2c",
"#3 c #2d2d2d",
".2 c #2e2e2e",
"#b c #2f2f2f",
"#J c #302f30",
".R c #303030",
"#c c #313131",
".q c #323132",
".5 c #323232",
"#S c #333333",
"ay c #343434",
".0 c #353535",
"#k c #363636",
"ak c #363736",
".S c #373737",
"#R c #393939",
".4 c #3b3a3b",
"aa c #3c3c3c",
"#g c #3d3d3d",
".T c #3e3e3e",
".3 c #3f3f3f",
"#v c #404040",
"#x c #414141",
".J c #424142",
".r c #424242",
"aC c #434343",
"#h c #444444",
".U c #454545",
".Z c #464646",
"#2 c #464746",
"aJ c #474747",
"aK c #484848",
".o c #494949",
"#n c #4a4a4a",
".8 c #4b4b4b",
".V c #4c4c4c",
"aH c #4d4d4d",
"#8 c #4d4e4d",
"aA c #4e4e4e",
"ab c #4f4f4f",
"a. c #505050",
"#K c #515151",
"#d c #525152",
".s c #525252",
"aq c #535353",
"aw c #545454",
"#5 c #555555",
".F c #565656",
"#j c #565756",
"#D c #575757",
".M c #585858",
".9 c #595959",
"aI c #5a5a5a",
".W c #5b5b5b",
"ap c #5c5c5c",
"aM c #5d5d5d",
"#m c #5e5e5e",
"#t c #5f5f5f",
".z c #606060",
"#i c #616161",
".K c #626262",
".t c #636363",
"#. c #646464",
"#e c #656565",
".y c #666666",
".Y c #666766",
"#Q c #676767",
"#1 c #676867",
"at c #686868",
"ar c #696969",
"aB c #6b6b6b",
".A c #6c6c6c",
"aF c #6c6d6c",
"ao c #6e6e6e",
".B c #717171",
"#B c #727272",
".u c #737373",
".X c #737473",
".j c #767776",
"#P c #777877",
"ae c #787878",
".C c #787978",
"aE c #797979",
".c c #7a7a7a",
".D c #7f807f",
"#C c #818281",
".L c #828282",
"#L c #828382",
".k c #838383",
".i c #878787",
"#O c #878887",
"#7 c #888888",
"as c #888988",
"ax c #8f8f8f",
".x c #8f908f",
".E c #909190",
".l c #919291",
"ac c #929292",
"#M c #929392",
".v c #939493",
".h c #979797",
"#0 c #989998",
"an c #9e9f9e",
".w c #a0a0a0",
"af c #a2a3a2",
"#N c #a3a3a3",
".# c #a4a4a4",
".g c #a7a8a7",
"#Z c #a8a9a8",
"aj c #aaabaa",
"ag c #b0b0b0",
"ad c #b3b3b3",
"#T c #b3b4b3",
".a c #b4b5b4",
"ah c #b5b5b5",
".n c #b7b8b7",
"#Y c #b9b9b9",
"ai c #b9bab9",
"#U c #c3c4c3",
".b c #c4c5c4",
".f c #c8c9c8",
"#X c #c9cac9",
"#6 c #d3d4d3",
"#V c #d4d5d4",
".m c #d5d5d5",
".d c #d5d6d5",
".e c #d8d9d8",
"#W c #d9dad9",
"QtQtQtQtQtQtQtQtQtQtQtQtQtQtQtQtQtQtQtQtQtQtQtQtQtQtQtQtQtQtQtQt",
"QtQtQtQtQtQtQtQtQtQtQtQtQtQtQtQtQtQtQtQtQtQtQtQtQtQtQtQtQtQtQtQt",
"QtQtQtQtQtQtQtQtQtQtQtQtQtQtQtQtQtQtQtQtQtQtQtQtQtQtQtQtQtQtQtQt",
"QtQtQtQtQtQtQtQtQtQtQtQtQtQtQtQtQtQtQtQtQtQtQtQtQtQtQtQtQtQtQtQt",
"QtQtQtQtQtQtQtQtQtQtQtQtQtQtQtQtQtQtQtQtQtQtQtQtQtQtQtQtQtQtQtQt",
"QtQtQtQtQtQtQtQtQtQtQtQt.#.a.bQtQtQtQtQtQtQtQtQtQtQtQtQtQtQtQtQt",
"QtQtQtQtQtQtQtQtQtQtQt.c.#.a.b.d.e.fQt.g.h.i.jQtQtQtQtQtQtQtQtQt",
"QtQtQtQtQtQtQtQtQtQt.k.l.#.a.b.m.e.f.n.g.h.i.j.oQtQtQtQtQtQtQtQt",
"QtQtQtQt.p.q.r.s.t.u.k.v.w.x.y.z.A.B.C.D.E.i.j.y.FQtQt.GQtQtQtQt",
"QtQtQt.H.I.q.J.s.K.u.L.M.N.O.P.Q.R.S.T.U.V.W.X.Y.F.Z.0.G.1QtQtQt",
"QtQtQt.2.3.4.J.s.K.u.5.6.7.O.P.Q.R.S.T.U.8.s.9#..F.Z.0.G##.QQtQt",
"QtQtQt#a#b#c.J#d.K#e#f.6.7.O##.I.2.S#g#h.8.s.9#i#j.Z#k#l#m#nQtQt",
"QtQtQt#o#p#c.J#d.K#.#q#r#sQtQtQtQtQtQtQtQt.s.9#t#j.Z#k#u#v#gQtQt",
"#w#w#w#o#p#c#x#d.K.B#yQtQtQtQtQtQtQtQtQtQtQt.M.t#j.Z#k#u#z#AQtQt",
"#w#w#w#o#p#c#x#d.K#B#CQtQtQtQtQtQtQtQtQtQtQtQt.y#D.Z#k#u#E#q#F#F",
"#G#w#w#H#I#J#x#K.K#B#L#M#NQtQtQtQtQtQtQtQt#O#P#Q#D.Z#k#u#E#q#F#A",
"#b#R#S#y.O.V.8#K#i#B.L#M#N#T#U#V#W#X#Y#Z#0#O#P#1#D#2.T.Q#3#4.7#R",
"Qt#n.T#S#y.S#5.M#i#B.L#M#N#T#U#6#W#X#Y#Z#0#7#P#1.F#8.F#9#3.3a.Qt",
"Qt.F#n.3#Sa#aaab#i.B.Lac#Nad#U#6#W#X#Y#Z#0#7ae#1.M.3.T#H###S#hQt",
"Qt.z.F#n.3.I.Q#K#i.B.Lacafagah#U#Xaiaj.g#0#7ae#1#Dak#4alam.I.0Qt",
"QtQtQtQtQtQt#g#K#i.B.Lacan.Hao#eapaq#har#0asaeat#D.Z#HQtauav#yQt",
"QtQtQtQtQtQtaw#D.t.B.Laxayaz.z#DaA.U#R.O.Dasaeat.W.MQtQtQtQtQtQt",
"QtQtQtQtQtQt.V.F.zaB.caCa#aD.s.o#v.S#b.H.PaEaF#i#mapQtQtQtQtQtQt",
"QtQtQtQtQtQt.3.oaq#m#Q#gaya#.Uaa#SaG#4aa#3a.#5.sabaHQtQtQtQtQtQt",
"QtQtQtQtQtQt.5aa.Z#KaIaJ.Tay.S.2.G#9.NaH#g.U.ZaC#v.TQtQtQtQtQtQt",
"QtQtQtQtQtQt#4#b#R#haAa.aK#gaG###zaL#raMaH#R.Say#c.2QtQtQtQtQtQt",
"QtQtQtQtQtQtQt.P.H.S#x.9#KQtQtQtQtQtQtQt#ma##y.G.P#aQtQtQtQtQtQt",
"QtQtQtQtQtQtQtQtQt.Qay#tQtQtQtQtQtQtQtQtQtaN#z.NQtQtQtQtQtQtQtQt",
"QtQtQtQtQtQtQtQtQtQtQtQtQtQtQtQtQtQtQtQtQtQtQtQtQtQtQtQtQtQtQtQt",
"QtQtQtQtQtQtQtQtQtQtQtQtQtQtQtQtQtQtQtQtQtQtQtQtQtQtQtQtQtQtQtQt",
"QtQtQtQtQtQtQtQtQtQtQtQtQtQtQtQtQtQtQtQtQtQtQtQtQtQtQtQtQtQtQtQt",
"QtQtQtQtQtQtQtQtQtQtQtQtQtQtQtQtQtQtQtQtQtQtQtQtQtQtQtQtQtQtQtQt"};
