/* XPM */
static char *dummy[]={
"64 64 548 2",
"Qt c None",
"f7 c #004e00",
"fX c #005300",
"fN c #005700",
"fD c #005c00",
"fu c #006100",
"fj c #006600",
"fa c #006a00",
"e1 c #006f00",
"eP c #007400",
"eF c #007800",
"eu c #007d00",
"ek c #008200",
"e# c #008700",
"dY c #008b00",
"dK c #009000",
"dt c #009500",
"df c #009900",
"c2 c #009e00",
"cL c #00a200",
"cS c #00a300",
"cB c #00a800",
"cl c #00ab00",
"ck c #00ac00",
"b6 c #00b100",
"bR c #00b600",
"bA c #00ba00",
"bj c #00bf00",
"a2 c #00c400",
"aJ c #00c900",
"gd c #024a02",
"e2 c #037104",
"av c #04cd04",
"dB c #059706",
"ct c #05a905",
"bQ c #05b705",
"d. c #06a006",
"eb c #078907",
"gH c #090909",
"cK c #09a509",
"bB c #09bc09",
"fO c #0a5c0a",
"ea c #0a8b0a",
"gF c #0b0b0b",
"gG c #0c0c0c",
"de c #0c9d0c",
"dJ c #0d940d",
"ev c #0e830e",
"gD c #0f0f0f",
"e. c #0f8d10",
"gE c #101010",
"gA c #111111",
"gB c #121212",
"et c #128412",
"bz c #12bd12",
"af c #12d512",
"gC c #131314",
"cT c #13a813",
"eO c #147d14",
"dZ c #149215",
"cR c #14a814",
"gx c #151515",
"d2 c #159316",
"gy c #161616",
"f# c #167517",
"cb c #16b116",
"gt c #171717",
"gu c #181818",
"ft c #186e19",
"aK c #18cd18",
"gz c #19191a",
"fk c #19731a",
"go c #1b1b1b",
"fM c #1b671b",
"gp c #1c1c1c",
"gg c #1d1d1d",
"f6 c #1d601e",
"gh c #1e1e1e",
"g. c #1f1f1f",
"d3 c #209721",
"g# c #212121",
"ga c #222222",
"dL c #229c23",
"f2 c #232323",
"gv c #232424",
"f3 c #242424",
"gn c #252525",
"fS c #262626",
"fT c #272727",
"f8 c #276628",
"b7 c #27b927",
"bi c #27c627",
"fU c #282828",
"fI c #292929",
"cA c #29b329",
"fJ c #2a2a2a",
"gi c #2a2a2b",
"fy c #2b2b2b",
"dQ c #2b9f2b",
"gm c #2c2c2c",
"fz c #2d2d2d",
"fA c #2e2e2e",
"fp c #2f2f2f",
"fq c #303030",
"eQ c #308a30",
"fe c #313133",
"f4 c #313233",
"f0 c #323232",
"ff c #323233",
"f1 c #333334",
"du c #33a633",
"fg c #343434",
"e7 c #353535",
"e8 c #363636",
"eW c #373737",
"fR c #383838",
"eX c #383839",
"fK c #393a3a",
"dm c #39ab3a",
"eY c #3a3a3a",
"eK c #3b3b3b",
"eL c #3c3c3c",
"fH c #3d3d3d",
"eA c #3e3e3e",
"eB c #3e3e3f",
"fx c #3f3f40",
"eC c #404040",
"ep c #414141",
"fr c #414142",
"eq c #424242",
"fE c #428043",
"fn c #434343",
"bk c #43cc44",
"a1 c #43d043",
"ef c #444444",
"eg c #444445",
"fo c #454546",
"cj c #45bd46",
"eh c #464646",
"d7 c #474747",
"fG c #474748",
"dA c #47ac48",
"dg c #47af48",
"d8 c #484848",
"dT c #494949",
"e9 c #494a4a",
"fd c #4a4a4a",
"dU c #4a4a4b",
"e5 c #4b4b4c",
"dV c #4c4c4c",
"e6 c #4c4c4d",
"dF c #4d4d4d",
"el c #4da14e",
"dG c #4e4e4e",
"do c #4f4f50",
"eT c #505050",
"dp c #505051",
"eM c #505152",
"gs c #505252",
"eU c #515152",
"dq c #525252",
"eV c #525253",
"db c #535353",
"dc c #545454",
"eI c #555555",
"cX c #555556",
"eJ c #565656",
"cY c #565657",
"#2 c #56e156",
"cZ c #575758",
"ey c #585859",
"er c #585959",
"cG c #595959",
"cC c #59bf59",
"cH c #5a5a5a",
"ez c #5b5b5b",
"co c #5b5b5c",
"dw c #5c5c5c",
"cp c #5c5c5d",
"cq c #5d5d5e",
"eo c #5e5e5f",
"b9 c #5f5f5f",
"fb c #5f9960",
"c3 c #5fbb60",
"c. c #606060",
"dx c #606061",
"c5 c #616161",
"bU c #616162",
"c6 c #626262",
"bV c #626263",
"ee c #636363",
"bW c #636364",
"eS c #646464",
"bF c #656565",
"d6 c #656566",
"en c #656666",
"cs c #65c266",
"bG c #666666",
"aw c #66dc67",
"ce c #676767",
"di c #676768",
"bo c #686868",
"bp c #686869",
"dH c #686969",
"fm c #686a69",
"aI c #68da68",
"cw c #696969",
"bq c #69696a",
"c1 c #69bd69",
"b5 c #69c96a",
"cN c #6a6a6b",
"dl c #6abb6b",
"a7 c #6b6b6b",
"cO c #6b6b6c",
"ds c #6bb86c",
"a8 c #6c6c6c",
"dR c #6cb66d",
"bK c #6d6d6d",
"aP c #6d6d6e",
"gq c #6d706f",
"dX c #6db36e",
"cx c #6e6e6e",
"aQ c #6e6e6f",
"dE c #6f6f6f",
"aR c #6f6f70",
"fY c #6f9571",
"cf c #707071",
"gk c #708f72",
"ej c #70af71",
"aA c #717171",
"cg c #717172",
"fQ c #717372",
"aB c #727272",
"aj c #737373",
"aU c #737374",
"eE c #73aa74",
"ba c #747474",
"ak c #747475",
"aT c #757575",
"al c #757576",
"gb c #757977",
"e0 c #75a676",
"b0 c #767676",
"am c #767677",
"#6 c #777777",
"b1 c #777778",
"fi c #77a379",
"#7 c #787878",
"cI c #787978",
"b# c #787979",
"fC c #789e7a",
"bL c #797979",
"#8 c #79797a",
"#R c #79797b",
"cM c #79c57a",
"b2 c #7a7a7a",
"#S c #7a7a7b",
"fW c #7a9c7d",
"cW c #7b7b7b",
"#T c #7b7b7c",
"gf c #7b7f7d",
"gc c #7b997e",
"bY c #7bce7c",
"bS c #7bd17b",
"#U c #7c7c7d",
"#G c #7d7d7d",
"bt c #7d7d7e",
"fV c #7d807f",
"#H c #7e7e7e",
"dN c #7e7f7e",
"gw c #7e8281",
"eG c #7eb07f",
"bM c #7f7f7f",
"#I c #7f7f80",
"c# c #7f8081",
"#u c #808080",
"#v c #808081",
"cE c #818181",
"#w c #818182",
"d5 c #818282",
"#x c #828282",
"bu c #828283",
"cF c #828284",
"#j c #838383",
"bv c #838384",
"#k c #848484",
"bb c #848485",
"bJ c #848584",
"fB c #848786",
"#a c #858585",
"#l c #858586",
"bc c #868686",
"#b c #868687",
"ex c #868888",
"bd c #878787",
"#c c #888888",
"be c #888889",
".4 c #898989",
"bf c #89898a",
"aV c #8a8a8b",
".5 c #8b8b8b",
".W c #8b8b8c",
"aW c #8c8c8c",
"bT c #8c8c8d",
"fh c #8c8f8e",
"aX c #8d8d8d",
"c7 c #8d8e8e",
"e4 c #8d908f",
"d# c #8dc88e",
"aC c #8e8e8e",
"aY c #8e8e8f",
"fv c #8eac90",
"aD c #8f8f90",
"a9 c #8f9090",
"c9 c #8fc990",
"aE c #909091",
"bP c #90d690",
"au c #90e290",
"bE c #919192",
"aF c #929292",
"eZ c #929594",
"cu c #92cf93",
"an c #939393",
"aZ c #939394",
"ao c #949495",
"ap c #959596",
"cd c #959696",
"bg c #959697",
"aq c #969697",
"bn c #979798",
"ge c #97ab9b",
"ar c #989898",
"a5 c #989899",
"fw c #989b9a",
"#9 c #999999",
"a6 c #9a9a9a",
"a. c #9a9a9b",
"eD c #9a9c9b",
"a# c #9b9b9c",
"aa c #9c9c9d",
"bw c #9c9d9c",
"dj c #9c9e9e",
"ab c #9d9d9e",
"cV c #9d9f9e",
"ec c #9dc2a0",
"#V c #9e9e9e",
"aN c #9e9e9f",
"bm c #9e9f9f",
"a3 c #9ee09e",
"#W c #9f9f9f",
"aO c #a0a0a0",
"#X c #a0a0a1",
"#Y c #a1a1a2",
"cv c #a1a3a3",
"ei c #a1a4a3",
"#J c #a2a2a3",
"fZ c #a2a7a5",
"#K c #a3a3a4",
"dD c #a3a4a4",
"az c #a4a4a4",
"ay c #a4a4a5",
"bN c #a4a5a5",
"#L c #a5a5a5",
"ah c #a6a6a6",
"#M c #a6a6a7",
"cc c #a6d5a8",
"ai c #a7a7a7",
"#y c #a7a7a8",
"#z c #a8a8a9",
"e3 c #a8bfab",
"#A c #a9a9aa",
"dW c #a9abaa",
"#B c #aaaaab",
"ed c #aaacac",
"gl c #aab0ad",
"aS c #abacab",
"d1 c #abcaac",
"#C c #acacac",
"#m c #acacad",
"dy c #acaeae",
"#5 c #adadad",
"#n c #adadae",
"d0 c #adcaaf",
"#o c #aeaeaf",
"#Z c #aeafaf",
"fP c #aebdb1",
"cQ c #aed4af",
"#p c #afafb0",
"dr c #afb2b1",
"cm c #afd8b0",
"#q c #b0b0b1",
"eH c #b1b4b4",
"gj c #b1b7b4",
"#d c #b2b2b2",
"b3 c #b2b3b3",
"by c #b2dfb2",
"#F c #b3b3b3",
"#e c #b3b3b4",
"ac c #b4b4b4",
"#f c #b4b4b5",
"dM c #b4c9b5",
"ae c #b4ebb4",
"#g c #b5b5b6",
"f5 c #b5bcb9",
".6 c #b6b6b7",
"aM c #b6b7b7",
"c4 c #b6b9b6",
".7 c #b7b7b8",
"c0 c #b7b9b7",
"fc c #b7bbbb",
"bZ c #b7d8b8",
"#4 c #b8b8b9",
".8 c #b9b9b9",
"bD c #b9bab9",
"fL c #b9bfbc",
"gr c #b9bfbd",
".9 c #bababb",
"dO c #babdbc",
"f9 c #bac1be",
"dh c #bac2bc",
"dv c #bac7bc",
"dC c #bad2bc",
".X c #bbbbbc",
"as c #bcbcbc",
".Y c #bcbcbd",
"cn c #bcbebd",
"fF c #bcc1bf",
".Z c #bdbdbe",
"cr c #bdbfbf",
"fs c #bec4c0",
".0 c #bfbfbf",
"ch c #bfc1c1",
"ew c #bfcdc1",
".1 c #c0c0c1",
"f. c #c0c8c3",
"fl c #c0c9c3",
"ag c #c0ecc0",
".R c #c1c1c1",
".S c #c1c1c2",
"dP c #c1d4c3",
".T c #c2c2c3",
"da c #c2c4c2",
".U c #c3c3c4",
"eN c #c3ccc6",
".L c #c5c5c5",
".2 c #c5c5c6",
"bX c #c5c6c5",
".M c #c6c6c7",
"es c #c6cdc7",
"cz c #c6ddc8",
".N c #c7c7c8",
"aG c #c7c8c7",
"dS c #c7cac9",
"d9 c #c7d2ca",
".3 c #c8c8c8",
".O c #c8c8c9",
".P c #c9c9ca",
"eR c #c9cecc",
"bI c #c9daca",
"#h c #cacacb",
"em c #cacecc",
"dI c #cad6cc",
".H c #cbcbcb",
"br c #cbcdcc",
"cy c #cbcdcd",
"bC c #cbe4cc",
"bh c #cbe6cc",
"#P c #cbf1cc",
".I c #cccccd",
"dd c #ccdace",
"cJ c #ccdcce",
".J c #cdcdce",
"ca c #cde0cf",
".K c #cececf",
".B c #cfcfd0",
".Q c #cfcfd1",
"b. c #cfd0cf",
"## c #d0d0d0",
".V c #d0d0d1",
"d4 c #d0d8d2",
"cU c #d0ddd2",
"#1 c #d0f0d0",
".C c #d1d1d1",
"#r c #d1d2d1",
"dz c #d1dad3",
".D c #d2d2d3",
"cP c #d2d5d4",
".E c #d3d3d4",
"a4 c #d3d4d3",
".w c #d4d4d5",
".x c #d5d5d6",
".F c #d6d6d7",
"bs c #d6d8d7",
".y c #d7d7d7",
".G c #d7d7d8",
".z c #d8d8d9",
"cD c #d8dad9",
"ci c #d8e3da",
".r c #d9d9da",
"#D c #d9dada",
"c8 c #d9dcda",
"dn c #d9dcdb",
".s c #dadadb",
"dk c #dadedc",
".t c #dbdbdc",
".A c #dbdbdd",
".u c #dcdcdd",
".v c #ddddde",
".l c #dddddf",
".m c #dfdfe0",
"a0 c #dfebdf",
".n c #e0e0e1",
"bx c #e0e2e1",
"b8 c #e0e5e1",
"aL c #e0ede1",
"#N c #e1e1e1",
".o c #e1e1e2",
".p c #e2e2e3",
".f c #e3e3e3",
".g c #e3e3e4",
"b4 c #e3e6e4",
"bO c #e4e6e5",
".q c #e5e5e5",
".h c #e5e5e6",
"#O c #e5f4e6",
".i c #e6e6e7",
"#Q c #e6e7e7",
"bl c #e6e8e7",
"bH c #e6e9e7",
"ax c #e7e7e7",
".j c #e7e7e8",
"#0 c #e8e8e8",
".d c #e8e8e9",
".k c #e9e9e9",
".e c #e9e9ea",
".a c #e9e9eb",
".c c #eaeaea",
".# c #eaeaeb",
".b c #ebebeb",
"aH c #ebefec",
"ad c #ecedec",
"at c #eeefef",
"#3 c #f0f4f0",
"#. c #f4f4f4",
"#t c #f5f6f5",
"#i c #f7f7f7",
"#E c #f7f8f8",
"#s c #f8f9f8",
"QtQtQtQtQtQtQtQtQtQtQtQtQtQtQtQtQtQtQtQtQtQtQtQtQtQtQtQtQtQtQtQtQtQtQtQtQtQtQtQtQtQtQtQtQtQtQtQtQtQtQtQtQtQtQtQtQtQtQtQtQtQtQtQt",
"QtQtQtQtQtQtQtQtQtQtQtQtQtQtQtQtQtQtQtQtQtQtQtQtQtQtQtQtQtQtQtQtQtQtQtQtQtQtQtQtQtQtQtQtQtQtQtQtQtQtQtQtQtQtQtQtQtQtQtQtQtQt.#Qt",
"QtQtQtQtQtQtQtQtQtQtQtQtQtQtQtQtQtQtQtQtQtQtQtQtQtQtQtQtQtQtQtQtQtQtQtQtQtQtQtQtQtQtQtQtQtQtQtQtQtQtQtQtQtQtQtQtQtQtQtQtQt.#QtQt",
"QtQtQtQtQtQtQtQtQtQtQtQtQtQtQtQtQtQtQtQtQtQtQtQtQtQtQtQtQtQtQtQtQtQtQtQtQtQtQtQtQtQtQtQtQtQtQtQtQtQtQtQtQtQtQtQtQtQtQtQt.a.bQtQt",
"QtQtQtQtQtQtQtQtQtQtQtQtQtQtQtQtQtQtQtQtQtQtQtQtQtQtQtQtQtQtQtQtQtQtQtQtQtQtQtQtQtQtQtQtQtQtQtQtQtQtQtQtQtQtQtQtQtQtQt.#.#QtQtQt",
"QtQtQtQtQtQtQtQtQtQtQtQtQtQtQtQtQtQtQtQtQtQtQtQtQtQtQtQtQtQtQtQtQtQtQtQtQtQtQtQtQtQtQtQtQtQtQtQtQtQtQtQtQtQtQtQtQt.#.#.#.#QtQtQt",
"QtQtQtQtQtQtQtQtQtQtQtQtQtQtQtQtQtQtQtQtQtQtQtQtQtQtQtQtQtQtQtQtQtQtQtQtQtQtQtQtQtQtQtQtQtQtQtQtQtQtQtQtQtQtQtQt.#.#.#.#QtQtQtQt",
"QtQtQtQtQtQtQtQtQtQtQtQtQtQtQtQtQtQtQtQtQtQtQtQtQtQtQtQtQtQtQtQtQtQtQtQtQtQtQtQtQtQtQtQtQtQtQtQtQtQtQtQtQtQtQt.c.#.#.#QtQtQtQtQt",
"QtQtQtQtQtQtQtQtQtQtQtQtQtQtQtQtQtQtQtQtQtQtQtQtQtQtQtQtQtQtQtQtQtQtQtQtQtQtQtQtQtQtQtQtQtQtQtQtQtQtQtQtQtQt.#.#.#.#.#QtQtQtQtQt",
"QtQtQtQtQtQtQtQtQtQtQtQtQtQtQtQtQtQtQtQtQtQtQtQtQtQtQtQtQtQtQtQtQtQtQtQtQtQtQtQtQtQtQtQtQtQtQtQtQtQtQtQtQt.d.e.#.#.aQtQtQtQtQtQt",
"QtQtQtQtQtQtQtQtQtQtQtQtQtQtQtQtQtQtQtQtQtQtQtQtQtQtQtQtQtQtQtQtQtQtQtQtQtQtQtQtQtQtQtQtQtQtQtQtQtQtQt.f.g.h.i.j.d.kQtQtQtQtQtQt",
"QtQtQtQtQtQtQtQtQtQtQtQtQtQtQtQtQtQtQtQtQtQtQtQtQtQtQtQtQtQtQtQtQtQtQtQtQtQtQtQtQtQtQtQtQtQtQtQtQtQt.l.m.n.o.p.g.qQtQtQtQtQtQtQt",
"QtQtQtQtQtQtQtQtQtQtQtQtQtQtQtQtQtQtQtQtQtQtQtQtQtQtQtQtQtQtQtQtQtQtQtQtQtQtQtQtQtQtQtQtQtQtQtQtQt.r.s.t.u.v.m.nQtQtQtQtQtQtQtQt",
"QtQtQtQtQtQtQtQtQtQtQtQtQtQtQtQtQtQtQtQtQtQtQtQtQtQtQtQtQtQtQtQtQtQtQtQtQtQtQtQtQtQtQtQtQtQtQtQt.w.x.y.z.r.s.t.AQtQtQtQtQtQtQtQt",
"QtQtQtQtQtQtQtQtQtQtQtQtQtQtQtQtQtQtQtQtQtQtQtQtQtQtQtQtQtQtQtQtQtQtQtQtQtQtQtQtQtQtQtQtQtQtQt.B.C.D.E.w.x.F.GQtQtQtQtQtQtQtQtQt",
"QtQtQtQtQtQtQtQtQtQtQtQtQtQtQtQtQtQtQtQtQtQtQtQtQtQtQtQtQtQtQtQtQtQtQtQtQtQtQtQtQtQtQtQtQtQt.H.I.J.K.B.C.D.EQtQtQtQtQtQtQtQtQtQt",
"QtQtQtQtQtQtQtQtQtQtQtQtQtQtQtQtQtQtQtQtQtQtQtQtQtQtQtQtQtQtQtQtQtQtQtQtQtQtQtQtQtQtQtQt.L.M.N.O.P.H.I.J.K.QQtQtQtQtQtQtQtQtQtQt",
"QtQtQtQtQtQtQtQtQtQtQtQtQtQtQtQtQtQtQtQtQtQtQtQtQtQtQtQtQtQtQtQtQtQtQtQtQtQtQtQtQtQtQt.R.S.T.U.L.N.V.O.P.HQtQtQtQtQtQtQtQtQtQtQt",
"Qt.WQtQtQtQtQtQtQtQtQtQtQtQtQtQtQtQtQtQtQtQtQtQtQtQtQtQtQtQtQtQtQtQtQtQtQtQtQtQtQtQt.X.Y.Z.0.1.M.k.2.L.M.3QtQtQtQtQtQtQtQtQtQtQt",
"QtQt.4.5QtQtQtQtQtQtQtQtQtQtQtQtQtQtQtQtQtQtQtQtQtQtQtQtQtQtQtQtQtQtQtQtQtQtQtQtQt.6.7.8.9.X.N#.##.1.S.TQtQtQtQtQtQtQtQtQtQtQtQt",
"QtQt#a#b#cQtQtQtQtQtQtQtQtQtQtQtQtQtQtQtQtQtQtQtQtQtQtQtQtQtQtQtQtQtQtQtQtQtQtQt#d#e#f#g.6#h#i.q.X.Y.ZQtQtQtQtQtQtQtQtQtQtQtQtQt",
"QtQtQt#j#k#lQtQtQtQtQtQtQtQtQtQtQtQtQtQtQtQtQtQtQtQtQtQtQtQtQtQtQtQtQtQtQtQt#m#n#o#p#q#d#r#s#t.Y.7.8.9QtQtQtQtQtQtQtQtQtQtQtQtQt",
"QtQtQt#u#v#w#xQtQtQtQtQtQtQtQtQtQtQtQtQtQtQtQtQtQtQtQtQtQtQtQtQtQtQtQtQtQt#y#z#A#B#C#o#D#E#E###F#f#gQtQtQtQtQtQtQtQtQtQtQtQtQtQt",
"QtQtQtQt#G#H#I#vQtQtQtQtQtQtQtQtQtQtQtQtQtQtQtQtQtQtQtQtQtQtQtQtQtQtQtQt#J#K#L#M#y#m#N#O#P#Q#o#p#qQtQtQtQtQtQtQtQtQtQtQtQtQtQtQt",
"QtQtQtQt#R#S#T#U#HQtQtQtQtQtQtQtQtQtQtQtQtQtQtQtQtQtQtQtQtQtQtQtQtQtQt#V#W#X#Y#J#Z#0#1#2#3#4#B#C#5QtQtQtQtQtQtQtQtQtQtQtQtQtQtQt",
"QtQtQtQtQt#6#7#8#S#TQtQtQtQtQtQtQtQtQtQtQtQtQtQtQtQtQtQtQtQtQtQtQtQt#9a.a#aaabacadaeafag.Vahai#zQtQtQtQtQtQtQtQtQtQtQtQtQtQtQtQt",
"QtQtQtQtQtajakalam#7#8QtQtQtQtQtQtQtQtQtQtQtQtQtQtQtQtQtQtQtQtQtanaoapaqar#9asatauavawaxay#J#KazQtQtQtQtQtQtQtQtQtQtQtQtQtQtQtQt",
"QtQtQtQtQtQtaAaBamalalam#7QtQtQtQtQtQtQtQtQtQtQtQtQtQtQtQtQtQtaCaDaEaFanaoaGaHaIaJaKaLaMabaNaOQtQtQtQtQtQtQtQtQtQtQtQtQtQtQtQtQt",
"QtQtQtQtQtQtaPaQaRaSaTaUakalQtQtQtQtQtQtQtQtQtQtQtQtQtQtQtQt.4aVaWaXaYaZ#ra0a1a2a2a3a4a5a6a#QtQtQtQtQtQtQtQtQtQtQtQtQtQtQtQtQtQt",
"QtQtQtQtQtQtQta7a8a9b.b#aAaBbaQtQtQtQtQtQtQtQtQtQtQtQtQtQtbbbcbdbebfbg#DbhbibjbjbkblbmapaqbnQtQtQtQtQtQtQtQtQtQtQtQtQtQtQtQtQtQt",
"QtQtQtQtQtQtQtbobpbqbrbsbtaQaRaAQtQtQtQtQtQtQtQtQtQtQtQt#u#wbubvbbbwbxbybzbAbAbBbCbDaEbEanQtQtQtQtQtQtQtQtQtQtQtQtQtQtQtQtQtQtQt",
"QtQtQtQtQtQtQtQtbFbGbebHbIbJa8bKaQQtQtQtQtQtQtQtQtQtbL#T#UbtbM#ubNbObPbQbRbRbRbSbsbTaXaYQtQtQtQtQtQtQtQtQtQtQtQtQtQtQtQtQtQtQtQt",
"QtQtQtQtQtQtQtQtbUbVbWbXbYbZaWbqa7a8QtQtQtQtQtQtQtb0amb1bLb2#Tb3b4b5b6b6b6b6b7b8bwbebfaVQtQtQtQtQtQtQtQtQtQtQtQtQtQtQtQtQtQtQtQt",
"QtQtQtQtQtQtQtQtQtb9c.c#cacbcccdcebpbqQtQtQtQtQtcfcgajbaal#Schcicjckckckckclcmcnbvbb#lQtQtQtQtQtQtQtQtQtQtQtQtQtQtQtQtQtQtQtQtQt",
"QtQtQtQtQtQtQtQtQtcocpcqcrcsctcucvbFbGcecwQtQta8bKcxaRcf#UcyczcAcBcBcBcBcBcCcD#a#ucEcFQtQtQtQtQtQtQtQtQtQtQtQtQtQtQtQtQtQtQtQtQt",
"QtQtQtQtQtQtQtQtQtQtcGcHcIcJcKcLcM#ZbWbWbFbGcebobqcNcO#jcPcQcRcScScScScScTcUcVcW#UbtQtQtQtQtQtQtQtQtQtQtQtQtQtQtQtQtQtQtQtQtQtQt",
"QtQtQtQtQtQtQtQtQtQtcXcYcZc0c1c2c2c3c4bFc5c6bWbFbGcec7c8c9d.c2c2c2c2c2c2d#daamb1bLQtQtQtQtQtQtQtQtQtQtQtQtQtQtQtQtQtQtQtQtQtQtQt",
"QtQtQtQtQtQtQtQtQtQtQtdbdccfdddedfdfdgdhdib9c.c5c6djdkdldfdfdfdfdfdfdfdmdn#vajbaaTQtQtQtQtQtQtQtQtQtQtQtQtQtQtQtQtQtQtQtQtQtQtQt",
"QtQtQtQtQtQtQtQtQtQtQtdodpdqdrdsdtdtdtdudvbKdwdxdydzdAdtdtdtdtdtdtdtdBdCdDcxdEcfQtQtQtQtQtQtQtQtQtQtQtQtQtQtQtQtQtQtQtQtQtQtQtQt",
"QtQtQtQtQtQtQtQtQtQtQtQtdFdGdHdIdJdKdKdKdLdMdNdOdPdQdKdKdKdKdKdKdKdKdRdSa8cNcOcxQtQtQtQtQtQtQtQtQtQtQtQtQtQtQtQtQtQtQtQtQtQtQtQt",
"QtQtQtQtQtQtQtQtQtQtQtQtdTdUdVdWdXdYdYdYdYdZd0d1d2dYdYdYdYdYdYdYdYd3d4d5d6ceboQtQtQtQtQtQtQtQtQtQtQtQtQtQtQtQtQtQtQtQtQtQtQtQtQt",
"QtQtQtQtQtQtQtQtQtQtQtQtQtd7d8dxd9e.e#e#e#e#eaebe#e#e#e#e#e#e#e#e#ecedc5c6eeQtQtQtQtQtQtQtQtQtQtQtQtQtQtQtQtQtQtQtQtQtQtQtQtQtQt",
"QtQtQtQtQtQtQtQtQtQtQtQtQtefegeheiejekekekekekekekekekekekekekekelemencqeob9QtQtQtQtQtQtQtQtQtQtQtQtQtQtQtQtQtQtQtQtQtQtQtQtQtQt",
"QtQtQtQtQtQtQtQtQtQtQtQtQtQtepeqereseteueueueueueueueueueueueuevewexeycHezQtQtQtQtQtQtQtQtQtQtQtQtQtQtQtQtQtQtQtQtQtQtQtQtQtQtQt",
"QtQtQtQtQtQtQtQtQtQtQtQtQtQteAeBeCeDeEeFeFeFeFeFeFeFeFeFeFeFeFeGeHdceIeJQtQtQtQtQtQtQtQtQtQtQtQtQtQtQtQtQtQtQtQtQtQtQtQtQtQtQtQt",
"QtQtQtQtQtQtQtQtQtQtQtQtQtQtQteKeLeMeNeOePePePePePePePePePePeQeReSeTeUeVQtQtQtQtQtQtQtQtQtQtQtQtQtQtQtQtQtQtQtQtQtQtQtQtQtQtQtQt",
"QtQtQtQtQtQtQtQtQtQtQtQtQtQtQteWeXeYeZe0e1e1e1e1e1e1e1e1e1e2e3e4e5e6dGQtQtQtQtQtQtQtQtQtQtQtQtQtQtQtQtQtQtQtQtQtQtQtQtQtQtQtQtQt",
"QtQtQtQtQtQtQtQtQtQtQtQtQtQtQtQte7e8e9f.f#fafafafafafafafafbfcdUd8dTfdQtQtQtQtQtQtQtQtQtQtQtQtQtQtQtQtQtQtQtQtQtQtQtQtQtQtQtQtQt",
"QtQtQtQtQtQtQtQtQtQtQtQtQtQtQtQtfefffgfhfifjfjfjfjfjfjfjfkflfmfneffoQtQtQtQtQtQtQtQtQtQtQtQtQtQtQtQtQtQtQtQtQtQtQtQtQtQtQtQtQtQt",
"QtQtQtQtQtQtQtQtQtQtQtQtQtQtQtQtQtfpfqfrfsftfufufufufufufvfweAfxepQtQtQtQtQtQtQtQtQtQtQtQtQtQtQtQtQtQtQtQtQtQtQtQtQtQtQtQtQtQtQt",
"QtQtQtQtQtQtQtQtQtQtQtQtQtQtQtQtQtfyfzfAfBfCfDfDfDfDfDfEfFfGeKeLfHQtQtQtQtQtQtQtQtQtQtQtQtQtQtQtQtQtQtQtQtQtQtQtQtQtQtQtQtQtQtQt",
"QtQtQtQtQtQtQtQtQtQtQtQtQtQtQtQtQtQtfIfJfKfLfMfNfNfNfOfPfQe8eWfRQtQtQtQtQtQtQtQtQtQtQtQtQtQtQtQtQtQtQtQtQtQtQtQtQtQtQtQtQtQtQtQt",
"QtQtQtQtQtQtQtQtQtQtQtQtQtQtQtQtQtQtfSfTfUfVfWfXfXfXfYfZf0f0f1QtQtQtQtQtQtQtQtQtQtQtQtQtQtQtQtQtQtQtQtQtQtQtQtQtQtQtQtQtQtQtQtQt",
"QtQtQtQtQtQtQtQtQtQtQtQtQtQtQtQtQtQtQtf2f3f4f5f6f7f8f9e9fAfpfqQtQtQtQtQtQtQtQtQtQtQtQtQtQtQtQtQtQtQtQtQtQtQtQtQtQtQtQtQtQtQtQtQt",
"QtQtQtQtQtQtQtQtQtQtQtQtQtQtQtQtQtQtQtg.g#gagbgcgdgegffIfJfyQtQtQtQtQtQtQtQtQtQtQtQtQtQtQtQtQtQtQtQtQtQtQtQtQtQtQtQtQtQtQtQtQtQt",
"QtQtQtQtQtQtQtQtQtQtQtQtQtQtQtQtQtQtQtQtggghgigjgkglgmgnfTfUQtQtQtQtQtQtQtQtQtQtQtQtQtQtQtQtQtQtQtQtQtQtQtQtQtQtQtQtQtQtQtQtQtQt",
"QtQtQtQtQtQtQtQtQtQtQtQtQtQtQtQtQtQtQtQtQtgogpgqgrgsg#gaf2QtQtQtQtQtQtQtQtQtQtQtQtQtQtQtQtQtQtQtQtQtQtQtQtQtQtQtQtQtQtQtQtQtQtQt",
"QtQtQtQtQtQtQtQtQtQtQtQtQtQtQtQtQtQtQtQtQtgtgugvgwgpggghQtQtQtQtQtQtQtQtQtQtQtQtQtQtQtQtQtQtQtQtQtQtQtQtQtQtQtQtQtQtQtQtQtQtQtQt",
"QtQtQtQtQtQtQtQtQtQtQtQtQtQtQtQtQtQtQtQtQtQtgxgygtgugzgoQtQtQtQtQtQtQtQtQtQtQtQtQtQtQtQtQtQtQtQtQtQtQtQtQtQtQtQtQtQtQtQtQtQtQtQt",
"QtQtQtQtQtQtQtQtQtQtQtQtQtQtQtQtQtQtQtQtQtQtgAgBgCgxgyQtQtQtQtQtQtQtQtQtQtQtQtQtQtQtQtQtQtQtQtQtQtQtQtQtQtQtQtQtQtQtQtQtQtQtQtQt",
"QtQtQtQtQtQtQtQtQtQtQtQtQtQtQtQtQtQtQtQtQtQtQtgDgEgAQtQtQtQtQtQtQtQtQtQtQtQtQtQtQtQtQtQtQtQtQtQtQtQtQtQtQtQtQtQtQtQtQtQtQtQtQtQt",
"QtQtQtQtQtQtQtQtQtQtQtQtQtQtQtQtQtQtQtQtQtQtQtgFgGgDQtQtQtQtQtQtQtQtQtQtQtQtQtQtQtQtQtQtQtQtQtQtQtQtQtQtQtQtQtQtQtQtQtQtQtQtQtQt",
"QtQtQtQtQtQtQtQtQtQtQtQtQtQtQtQtQtQtQtQtQtQtQtQtgHQtQtQtQtQtQtQtQtQtQtQtQtQtQtQtQtQtQtQtQtQtQtQtQtQtQtQtQtQtQtQtQtQtQtQtQtQtQtQt",
"QtQtQtQtQtQtQtQtQtQtQtQtQtQtQtQtQtQtQtQtQtQtQtQtQtQtQtQtQtQtQtQtQtQtQtQtQtQtQtQtQtQtQtQtQtQtQtQtQtQtQtQtQtQtQtQtQtQtQtQtQtQtQtQt"};
