/* XPM */
static char *dummy[]={
"64 64 690 2",
"Qt c None",
".# c #181f1f",
"h8 c #192121",
"iT c #1a2121",
"iV c #1b2222",
"iU c #1b2323",
"it c #1d2525",
".a c #202828",
".c c #232a2a",
".M c #27302e",
".N c #28312f",
"hP c #293030",
".O c #2a3331",
".P c #2b3432",
".b c #2c3434",
"ah c #2c3533",
"#t c #2c3534",
"hW c #2d3434",
"ai c #2d3635",
"#F c #2d3735",
".L c #2d3736",
"#S c #2f3836",
"#3 c #303938",
"#B c #313837",
"#2 c #313939",
"bn c #313a39",
"a# c #313b39",
".d c #323939",
"h9 c #333939",
"#q c #333a3a",
"aj c #333c3a",
"ao c #343d3c",
"bC c #353e3d",
"aX c #353f3d",
"iu c #363d3d",
"bD c #36403e",
"bo c #37403e",
"#O c #383e3d",
"bt c #384140",
"bS c #394241",
"bx c #394341",
"bT c #3a4442",
"bE c #3b4442",
"#E c #3c4343",
"bK c #3c4544",
"#1 c #3d4343",
"ce c #3d4645",
"bP c #3d4745",
".J c #3e4646",
"c. c #3e4846",
"bU c #3e4847",
".Q c #3e4d4c",
"#u c #3f4e4d",
"b0 c #404948",
"#G c #404e4d",
"#T c #404f4e",
"b5 c #414a49",
"#4 c #41504f",
"cq c #424c4a",
"c# c #424c4b",
"aa c #42504f",
"ak c #425150",
"ap c #435251",
"cf c #444d4c",
"#s c #444e4d",
"aY c #445251",
"bp c #445352",
"cl c #454e4d",
"bu c #455453",
"cD c #46504e",
"cr c #46504f",
"by c #465453",
"bF c #465554",
"cE c #475150",
"bL c #475655",
"bQ c #475656",
"cv c #485150",
"bV c #485756",
"cy c #495251",
"b1 c #495857",
"b6 c #495858",
"cF c #4a5453",
"ca c #4a5958",
"#R c #4b5251",
"da c #4b5554",
"cg c #4b5a59",
"cm c #4b5a5a",
"cM c #4c5554",
"cs c #4c5b5a",
"db c #4d5655",
"cT c #4d5755",
"cw c #4d5c5b",
"cz c #4d5c5c",
"ex c #4e5757",
"dc c #4e5857",
"ey c #4e5858",
"cU c #4e5b5a",
"cG c #4e5d5c",
"cV c #4e6262",
"dd c #4f5958",
"ez c #4f5959",
"cN c #4f5e5d",
"eV c #505959",
"eA c #505a5a",
"fP c #505b5b",
"ei c #515a59",
"dJ c #515a5a",
"eB c #515b5b",
"cR c #515d5d",
"de c #516261",
"df c #516262",
"h7 c #525959",
"gk c #525b5b",
"dK c #525c5b",
"gv c #525c5c",
"dg c #526363",
"ew c #535a5a",
"dL c #535d5c",
"eC c #535d5d",
"cO c #535e5f",
"dh c #536363",
"di c #536463",
"c9 c #536565",
"eD c #545e5e",
"dj c #546464",
"dk c #546564",
"dl c #546565",
"es c #555e5d",
"dM c #555e5e",
"gi c #555f5e",
"eE c #555f5f",
"dm c #556666",
"dN c #56605f",
"eF c #566060",
"cW c #566263",
"dn c #566666",
"do c #566767",
"iS c #575f5f",
"hR c #576060",
"dO c #576160",
"eG c #576161",
"dp c #576767",
"dq c #576868",
"gG c #586261",
"c8 c #586262",
"dr c #586968",
"em c #596262",
"dP c #596362",
"eH c #596363",
"gU c #596464",
"ds c #596969",
"dt c #596a6a",
"dQ c #5a6463",
"eI c #5a6464",
"eJ c #5a6564",
"du c #5a6a6a",
"dv c #5a6b6b",
"hZ c #5b6262",
"ej c #5b6564",
"dR c #5b6565",
"hf c #5b6666",
"dw c #5b6c6c",
"eK c #5c6666",
"#j c #5c6767",
"#v c #5c6867",
"dx c #5c6d6d",
"fm c #5d6666",
"dS c #5d6766",
"eL c #5d6767",
"hy c #5d6868",
"dy c #5d6d6d",
"dz c #5d6e6e",
"he c #5e6767",
"dT c #5e6867",
"eM c #5e6868",
"gX c #5e6968",
"#H c #5e6969",
"dA c #5e6f6f",
"et c #5f6968",
"dU c #5f6969",
".k c #5f6a6a",
"#U c #5f6b6a",
"dB c #5f7070",
"iw c #606868",
"#k c #606a69",
"gj c #606a6a",
"#5 c #606b6b",
"ab c #606c6c",
"g7 c #606d6d",
"dC c #607070",
"dD c #607171",
"eu c #616a6a",
"dV c #616b6a",
"eN c #616b6b",
"dE c #617272",
"dF c #617273",
"#l c #626b6b",
"dW c #626c6b",
"eO c #626c6c",
"al c #626e6d",
"#I c #636a6a",
"#L c #636c6c",
"#m c #636d6c",
"dX c #636d6d",
"aT c #636e6e",
"bj c #636f6f",
"g6 c #637171",
"#6 c #646c6c",
"hJ c #646e6d",
"#n c #646e6e",
"eP c #646f6f",
"gu c #647373",
"dG c #647575",
"iv c #656d6d",
".C c #656e6e",
"dY c #656f6e",
"#V c #656f6f",
"bq c #657170",
"hq c #657474",
"#7 c #666e6e",
"eQ c #666f6f",
"#9 c #666f70",
"#w c #66706f",
"dZ c #667070",
"bv c #667272",
"#8 c #676e6f",
"iO c #676f6f",
"h3 c #676f70",
"iP c #677070",
"iQ c #677071",
"#x c #677170",
"d0 c #677171",
"bz c #677272",
"hp c #677676",
"#Z c #687071",
"iR c #687171",
"#o c #687271",
"ac c #687272",
"f7 c #687373",
"bG c #687473",
"gg c #687474",
"d1 c #697372",
"am c #697373",
"ad c #697473",
"gp c #697475",
"bM c #697575",
"gB c #697878",
"fh c #697979",
"gH c #697a7a",
"hz c #6a7473",
"d2 c #6a7474",
".j c #6a7575",
"gL c #6a7676",
"gC c #6a7a7a",
"#r c #6b7373",
"hI c #6b7474",
"ae c #6b7574",
"ef c #6b7575",
"d3 c #6b7675",
"g1 c #6b7676",
"bW c #6b7776",
"h# c #6b7777",
"bi c #6c7474",
"af c #6c7676",
"hj c #6c7778",
"b2 c #6c7878",
"aS c #6d7575",
"d4 c #6d7776",
"#i c #6d7777",
"b7 c #6d7979",
"hM c #6d797a",
"hY c #6e7877",
"d5 c #6e7878",
"cb c #6e7a7a",
"gN c #6e7e7e",
"gO c #6e7f7f",
"gW c #6e8080",
"#W c #6f7574",
"#D c #6f7676",
"bk c #6f7978",
"#y c #6f7979",
"d6 c #6f7a79",
"ch c #6f7b7b",
"gy c #6f8080",
"h4 c #707979",
"cX c #70797b",
"aU c #707a7a",
"cY c #707a7b",
"cn c #707c7c",
"gf c #708181",
".g c #717979",
".h c #717a79",
"cZ c #717a7b",
"bl c #717b7b",
"c0 c #717b7c",
"cH c #717b7d",
"ct c #717d7d",
"f6 c #718181",
"gK c #718383",
"#C c #727676",
".i c #727b7a",
"h5 c #727b7b",
"c1 c #727b7c",
".l c #727c7c",
".m c #727c7d",
"aZ c #727c7e",
"cx c #727e7e",
"g0 c #728383",
"h. c #728484",
"hC c #728585",
"c2 c #737b7c",
"fi c #737c7c",
".n c #737c7d",
".p c #737d7c",
"br c #737d7d",
"d7 c #737e7d",
"cA c #737f7f",
"hT c #738080",
"gV c #738585",
"hU c #738686",
"c3 c #747b7c",
".o c #747c7c",
".q c #747d7d",
".r c #747d7e",
"bw c #747e7e",
"aq c #747e80",
"cI c #748080",
"ht c #748484",
"iN c #757979",
"c7 c #757c7c",
"c4 c #757c7d",
".u c #757d7e",
".s c #757e7e",
".t c #757e7f",
"bA c #757f7f",
".R c #758182",
"cS c #758282",
"g3 c #758787",
"c5 c #767d7d",
".w c #767d7e",
".x c #767e7e",
".v c #767e7f",
".y c #767f7f",
"d8 c #768080",
"bX c #768181",
"ff c #768484",
"c6 c #777d7d",
".A c #777f7f",
"bH c #778181",
"d9 c #778282",
"gz c #778585",
".z c #787f80",
"bN c #788282",
"dH c #788484",
"gn c #788585",
"gJ c #788686",
"hu c #788687",
"g2 c #788989",
"hm c #788a8a",
"hh c #788b8b",
".B c #798080",
"bR c #798383",
"eR c #798384",
"iM c #7a7e7e",
"iL c #7a7f7f",
"e. c #7a8484",
"bY c #7a8585",
"hg c #7a8c8c",
"iK c #7b8080",
"e# c #7b8686",
"fM c #7b8e8e",
"iJ c #7c8181",
"b3 c #7c8686",
"i. c #7c8786",
"hl c #7c8f8f",
"iH c #7d8181",
"iI c #7d8282",
"b8 c #7d8787",
"hc c #7d8b8b",
"fg c #7d9191",
"iG c #7e8282",
"iD c #7e8383",
"i# c #7e8787",
".f c #7e8887",
"en c #7e8888",
"ea c #7e8889",
"cc c #7e8989",
"iF c #7f8282",
"iE c #7f8383",
"iC c #7f8484",
"d. c #7f8989",
"eb c #7f8a8a",
"hE c #7f8b8c",
"iB c #808585",
"ia c #808a89",
"ci c #808a8a",
"gM c #808a8b",
"iA c #818686",
"ib c #818a8a",
"co c #818b8b",
"iz c #828787",
".D c #828c8c",
"eg c #828c8d",
"cu c #828d8d",
"iy c #838888",
"gP c #838d8e",
"ec c #838e8e",
"ix c #848989",
"#A c #848e8e",
"hk c #848f90",
"#z c #858e8e",
"cB c #858f8f",
".e c #869090",
"ep c #869091",
"#N c #869190",
"cJ c #869191",
".E c #879190",
"a. c #879191",
"an c #879291",
"aW c #879292",
".F c #889191",
"bs c #889292",
"bJ c #889392",
"fe c #898f8f",
"#K c #899091",
".G c #899191",
"gb c #899292",
"bO c #899393",
"d# c #899394",
"b9 c #899493",
"cd c #899494",
"ck c #8a9494",
"fj c #8a9495",
"cC c #8a9594",
"dI c #8a9595",
"#J c #8b9091",
"cL c #8b9595",
"ed c #8b9696",
"hH c #8c9595",
"el c #8c9696",
"gq c #8c9697",
"eU c #8c9796",
"fl c #8c9797",
".K c #8d9797",
"eh c #8d9798",
"gt c #8d9897",
"gF c #8d9898",
"fd c #8e9393",
"gT c #8e9898",
"eS c #8e9899",
"hx c #8e9998",
"ek c #8e9999",
"hn c #8e999a",
"fc c #8f9494",
".H c #8f9998",
"eo c #8f9a9a",
"fb c #909595",
"f8 c #909b9c",
"fa c #919696",
"#M c #919a9a",
"eq c #919b9c",
"f9 c #929c9d",
"ev c #929d9d",
"f# c #939898",
"id c #939c9c",
"eT c #939e9e",
"f. c #949999",
"#0 c #949d9d",
"ag c #949e9e",
"aV c #949f9f",
"ha c #949fa0",
"e9 c #959a9a",
".I c #959e9e",
"bm c #959f9f",
"fk c #959fa0",
"bB c #95a0a0",
"bI c #96a0a0",
"hb c #96a0a1",
"fN c #96a1a1",
"gQ c #96a2a2",
"e8 c #979c9c",
"bZ c #97a0a0",
"b4 c #97a1a1",
"g. c #97a2a2",
"g4 c #97a3a4",
"e7 c #989d9d",
"cj c #98a1a2",
"hQ c #98a2a1",
"cp c #98a2a2",
"gr c #98a3a4",
"e6 c #999e9e",
"hX c #99a2a2",
"cK c #99a3a3",
"gh c #99a3a4",
"e5 c #9a9f9f",
"#p c #9aa2a2",
"ee c #9aa4a4",
"hs c #9aa4a5",
"gs c #9aa5a5",
"fL c #9b9d9d",
"e4 c #9ba0a0",
"er c #9ba5a5",
"hD c #9ba6a6",
"gD c #9ba6a7",
"e3 c #9ca1a1",
"fO c #9ca5a5",
"g# c #9ca6a6",
"gE c #9ca6a7",
"gR c #9ca7a8",
"gS c #9da7a7",
"ie c #9da8a8",
"e2 c #9ea3a3",
"hO c #9ea7a7",
"hw c #9ea8a8",
"g5 c #9ea8a9",
"if c #9ea9aa",
"e1 c #9fa4a4",
"hF c #9faaaa",
"hd c #9faaab",
"e0 c #a0a5a5",
"eW c #a0a6a6",
"ig c #a0aaaa",
"ho c #a0abac",
"ih c #a1abab",
"ii c #a1acad",
"eZ c #a2a7a7",
"hv c #a2acad",
"eY c #a3a8a8",
"ij c #a3aeae",
"hG c #a3aeaf",
"eX c #a4a9a9",
"ik c #a4aeaf",
"hN c #a4afb0",
"il c #a5afb0",
"hV c #a5b0b1",
"is c #a6b0b0",
"im c #a6b1b1",
".S c #a6b3b5",
"in c #a7b1b2",
".T c #a7b3b5",
"h6 c #a8b2b2",
"io c #a8b2b3",
".U c #a8b4b6",
".V c #a8b5b7",
"ip c #a9b4b5",
".W c #a9b6b8",
"fU c #aaacac",
"iq c #aab5b5",
".X c #aab6b8",
"fT c #abadad",
"ir c #abb6b7",
".Y c #acb7b9",
"fS c #adb0b0",
".Z c #adb8ba",
"fV c #aeb0b0",
".0 c #aebabb",
".1 c #afbbbc",
".2 c #b1bcbd",
".3 c #b1bdbe",
".4 c #b2bdbe",
"ic c #b3b3b3",
"fn c #b3b5b5",
".5 c #b3bebf",
"h2 c #b4b4b4",
".6 c #b4bebf",
"hL c #b5b5b5",
".7 c #b5bfc0",
".8 c #b5c0c1",
"gZ c #b6b6b6",
"go c #b7b7b7",
".9 c #b7c1c2",
"fK c #b8b8b8",
"#. c #b8c2c3",
"f5 c #b9b9b9",
"## c #b9c3c4",
"fJ c #bababa",
"f4 c #bbbbbb",
"#a c #bbc4c5",
"fI c #bcbcbc",
"#b c #bcc5c6",
"f3 c #bdbdbd",
"fH c #bebebe",
"#c c #bec6c6",
"#d c #bec7c7",
"fG c #bfbfbf",
"#e c #bfc7c8",
"ge c #c0c0c0",
"#f c #c0c7c8",
"fF c #c1c1c1",
"#g c #c1c9c9",
"ar c #c1cdd0",
"f2 c #c2c2c2",
"as c #c2cdd0",
"fE c #c3c3c3",
"#h c #c3caca",
"at c #c3cfd1",
"f1 c #c4c4c4",
"fD c #c5c5c5",
"au c #c5d0d2",
"av c #c5d0d3",
"f0 c #c6c6c6",
"fC c #c7c7c7",
"aw c #c7d0d3",
"ax c #c7d1d4",
"fB c #c8c8c8",
"az c #c8d3d5",
"gd c #c9c9c9",
"#Q c #c9d0d3",
"ay c #c9d2d4",
"fA c #cacaca",
"aA c #cad3d5",
"aB c #cad4d6",
"fZ c #cbcbcb",
"aC c #cbd5d7",
"fz c #cccccc",
"aD c #ccd5d7",
"fY c #cdcdcd",
"fy c #cecece",
"aE c #ced6d8",
"fx c #cfcfcf",
"#P c #cfd4d3",
"aF c #cfd6d8",
"aG c #cfd7d8",
"gc c #d0d0d0",
"aH c #d0d8d9",
"fw c #d1d1d1",
"aI c #d1d9da",
"fX c #d2d2d2",
"aJ c #d2d9da",
"fv c #d3d3d3",
"aK c #d3d9da",
"aL c #d3dadb",
"fW c #d4d4d4",
"fu c #d5d5d5",
"aM c #d5dbdc",
"gA c #d6d6d6",
"aN c #d6dcdd",
"#Y c #d6dde0",
"ft c #d7d7d7",
"aO c #d7dcdd",
"aP c #d7ddde",
"fs c #d8d8d8",
"g9 c #d9d9d9",
"aQ c #d9dfdf",
"fr c #dadada",
"#X c #dadfe0",
"gl c #dbdbdb",
"aR c #dbdfdf",
"fq c #dcdcdc",
"gw c #dddddd",
"fp c #dedede",
"fR c #dfdfdf",
"fo c #e0e0e0",
"fQ c #e1e1e1",
"ga c #e2e2e2",
"gm c #e3e3e3",
"gx c #e4e4e4",
"gI c #e5e5e5",
"gY c #e6e6e6",
"g8 c #e7e7e7",
"hi c #e8e8e8",
"cP c #e9f3f8",
"hr c #eaeaea",
"hB c #ebebeb",
"a0 c #ebf5fa",
"hA c #ececec",
"a1 c #ecf5fa",
"hK c #ededed",
"a2 c #edf6fa",
"h1 c #eeeeee",
"a3 c #eef6fa",
"hS c #efefef",
"a4 c #eff7fb",
"h0 c #f0f0f0",
"a5 c #f0f7fb",
"a6 c #f1f8fb",
"a7 c #f2f8fb",
"a8 c #f3f9fc",
"a9 c #f4f9fc",
"b. c #f5fafc",
"b# c #f6fafc",
"ba c #f7fbfd",
"cQ c #f8f8f8",
"bb c #f8fbfd",
"bc c #f9fcfd",
"bd c #fafcfd",
"be c #fbfdfe",
"bf c #fcfdfe",
"bg c #fdfefe",
"bh c #fefefe",
"QtQtQtQtQtQtQtQtQtQtQtQtQtQtQtQtQtQtQtQtQtQtQtQtQtQtQtQtQtQtQtQtQtQtQtQtQtQtQtQtQtQtQtQtQtQtQtQtQtQtQtQtQtQtQtQtQtQtQtQtQtQtQtQt",
"QtQtQtQtQtQtQtQtQtQtQtQtQtQtQtQtQtQtQtQtQtQtQtQtQtQtQtQtQtQtQtQtQtQtQtQtQtQtQtQtQtQtQtQtQtQtQtQtQtQtQtQtQtQtQtQtQtQtQtQtQtQtQtQt",
"QtQtQtQtQtQtQtQtQtQtQtQtQtQtQtQtQtQtQtQtQtQtQtQtQtQtQtQtQtQtQtQtQtQtQtQtQtQtQtQtQtQtQtQtQtQtQtQtQtQtQtQtQtQtQtQtQtQtQtQtQtQtQtQt",
"Qt.#.#.#.a.b.b.b.b.b.b.b.b.b.b.b.b.b.b.b.b.b.b.b.b.b.b.b.b.b.b.b.b.b.b.b.b.b.b.b.b.b.b.b.b.b.b.b.b.b.c.#.#.#QtQtQtQtQtQtQtQtQtQt",
"Qt.#.d.e.f.g.h.i.j.k.l.l.m.m.m.n.n.n.n.n.o.o.p.q.r.q.q.s.t.u.u.v.v.w.w.x.x.x.y.v.z.z.A.A.B.C.D.E.F.G.H.I.J.#QtQtQtQtQtQtQtQtQtQt",
".#.c.K.L.M.N.O.P.Q.R.S.S.T.U.V.W.X.X.Y.Z.0.0.1.1.2.3.4.5.6.7.8.9#.#.###a#a#b#c#d#e#f#g#g#h#i#j#k#l#m#n#o#p#q.#QtQtQtQtQtQtQtQtQt",
".##r#s.M.N.O.P#t#u.R.S.S.T.U.V.W.X.X.Y.Z.0.0.1.1.2.3.4.5.6.7.8.9#.#.###a#a#b#c#d#e#f#g#g#h#i#v#l#m#n#w#x#y#z.#QtQtQtQtQtQtQtQtQt",
".##A#B#C#D#E#t#F#G.R.S.S.T.U.V.W.X.X.Y.Z.0.0.1.1.2.3.4.5.6.7.8.9#.#.###a#a#b#c#d#e#f#g#g#h#i#H#m#n#I#J#K#L#M.#QtQtQtQtQtQtQtQtQt",
".##N#O#P#Q#R#F#S#T.R.S.S.T.U.V.W.X.X.Y.Z.0.0.1.1.2.3.4.5.6.7.8.9#.#.###a#a#b#c#d#e#f#g#g#h#i#U#n#V#W#X#Y#Z#0.#QtQtQtQtQtQtQtQtQt",
".##N.P#1#1#2#S#3#4.R.S.S.T.U.V.W.X.X.Y.Z.0.0.1.1.2.3.4.5.6.7.8.9#.#.###a#a#b#c#d#e#f#g#g#h#i#5#V#x#6#7#8#9#0.#QtQtQtQtQtQtQtQtQt",
".#a..P#t#F#S#3a#aa.R.S.S.T.U.V.W.X.X.Y.Z.0.0.1.1.2.3.4.5.6.7.8.9#.#.###a#a#b#c#d#e#f#g#g#h#iab#xacadaeaf#iag.#QtQtQtQtQtQtQtQtQt",
".#a.ahai#S#3a#ajak.R.S.S.T.U.V.W.X.X.Y.Z.0.0.1.1.2.3.4.5.6.7.8.9#.#.###a#a#b#c#d#e#f#g#g#h#ialacamaeaf#i#yag.#QtQtQtQtQtQtQtQtQt",
".#anai#S#3a#ajaoapaqarasasatatauauavawaxayazaAaBaCaDaDaEaEaFaGaHaIaJaKaLaLaMaNaOaPaPaQaQaRaSaTamaeaf#i#yaUaV.#QtQtQtQtQtQtQtQtQt",
".#aW#S#3a#ajaoaXaYaZa0a1a1a2a2a3a3a4a5a5a6a6a7a7a8a8a9b.b.b#b#bababbbbbcbcbdbebebfbfbgbgbhbibjaeaf#ibkaUblbm.#QtQtQtQtQtQtQtQtQt",
".#aW#3bnajaoaXbobpaZa0a1a1a2a2a3a3a4a5a5a6a6a7a7a8a8a9b.b.b#b#bababbbbbcbcbdbebebfbfbgbgbhbibqaf#ibkaUblbrbm.#QtQtQtQtQtQtQtQtQt",
".#bsbnajaoaXbobtbuaZa0a1a1a2a2a3a3a4a5a5a6a6a7a7a8a8a9b.b.b#b#bababbbbbcbcbdbebebfbfbgbgbhbibv#ibkaUblbrbwbm.#QtQtQtQtQtQtQtQtQt",
".#bsajaoaXbobtbxbyaZa0a1a1a2a2a3a3a4a5a5a6a6a7a7a8a8a9b.b.b#b#bababbbbbcbcbdbebebfbfbgbgbhbibzbkaUbl.pbwbAbB.#QtQtQtQtQtQtQtQtQt",
".#bsaobCbDbtbxbEbFaZa0a1a1a2a2a3a3a4a5a5a6a6a7a7a8a8a9b.b.b#b#bababbbbbcbcbdbebebfbfbgbgbhbibGaUbl.pbwbAbHbI.#QtQtQtQtQtQtQtQtQt",
".#bJbCbDbtbxbEbKbLaZa0a1a1a2a2a3a3a4a5a5a6a6a7a7a8a8a9b.b.b#b#bababbbbbcbcbdbebebfbfbgbgbhbibMbl.pbwbAbHbNbI.#QtQtQtQtQtQtQtQtQt",
".#bObDbtbxbEbKbPbQaZa0a1a1a2a2a3a3a4a5a5a6a6a7a7a8a8a9b.b.b#b#bababbbbbcbcbdbebebfbfbgbgbhbi.j.pbwbAbHbNbRbI.#QtQtQtQtQtQtQtQtQt",
".#bObtbSbTbKbPbUbVaZa0a1a1a2a2a3a3a4a5a5a6a6a7a7a8a8a9b.b.b#b#bababbbbbcbcbdbebebfbfbgbgbhbibWbwbAbXbNbRbYbZ.#QtQtQtQtQtQtQtQtQt",
".#bObSbTbKbPbUb0b1aZa0a1a1a2a2a3a3a4a5a5a6a6a7a7a8a8a9b.b.b#b#bababbbbbcbcbdbebebfbfbgbgbhbib2bAbXbNbRbYb3b4.#QtQtQtQtQtQtQtQtQt",
".#bObTbKbPbUb0b5b6aZa0a1a1a2a2a3a3a4a5a5a6a6a7a7a8a8a9b.b.b#b#bababbbbbcbcbdbebebfbfbgbgbhbib7bXbNbRbYb3b8b4.#QtQtQtQtQtQtQtQtQt",
".#b9bKbPc.b0b5c#caaZa0a1a1a2a2a3a3a4a5a5a6a6a7a7a8a8a9b.b.b#b#bababbbbbcbcbdbebebfbfbgbgbhbicbbNbRbYb3b8ccb4.#QtQtQtQtQtQtQtQtQt",
".#cdcec.b0b5c#cfcgaZa0a1a1a2a2a3a3a4a5a5a6a6a7a7a8a8a9b.b.b#b#bababbbbbcbcbdbebebfbfbgbgbhbichbRbYb3b8cccicj.#QtQtQtQtQtQtQtQtQt",
".#ckc.b0b5c#cfclcmaZa0a1a1a2a2a3a3a4a5a5a6a6a7a7a8a8a9b.b.b#b#bababbbbbcbcbdbebebfbfbgbgbhbicnbYb3b8cccicocp.#QtQtQtQtQtQtQtQtQt",
".#ckb0b5cqcfclcrcsaZa0a1a1a2a2a3a3a4a5a5a6a6a7a7a8a8a9b.b.b#b#bababbbbbcbcbdbebebfbfbgbgbhbictb3b8cccicocucp.#QtQtQtQtQtQtQtQtQt",
".#ckb5cqcfclcrcvcwaZa0a1a1a2a2a3a3a4a5a5a6a6a7a7a8a8a9b.b.b#b#bababbbbbcbcbdbebebfbfbgbgbhbicxb8cccicocu#Acp.#QtQtQtQtQtQtQtQtQt",
".#ckcqcfclcrcvcyczaZa0a1a1a2a2a3a3a4a5a5a6a6a7a7a8a8a9b.b.b#b#bababbbbbcbcbdbebebfbfbgbgbhbicAcccicocu#AcBcp.#QtQtQtQtQtQtQtQtQt",
".#cCcfclcDcEcycFcGcHa0a1a1a2a2a3a3a4a5a5a6a6a7a7a8a8a9b.b.b#b#bababbbbbcbcbdbebebfbfbgbgbh#rcIcicocu#AcBcJcK.#QtQtQtQtQtQtQtQtQt",
".#cLclcDcEcycFcMcNcOcPa1a1a2a2a3a3a4a5a5a6a6a7a7a8a8a9b.b.b#b#bababbbbbcbcbdbebebfbfbgbgcQcRcScocu#AcBcJbscK.#QtQtQtQtQtQtQtQtQt",
".#cLcDcEcycFcMcTcUcVcWcXcYcYcYcZcZc0c1c1c2c2c2c2c2c2c2c3c3c3c3c4c4c4c4c4c4c4c5c5c5c5c6c7c8c9d.cu#AcBcJbsd#cK.#QtQtQtQtQtQtQtQtQt",
".#cLcEcycFdadbdcddcRdedfdgdhdidjdkdldmdndodpdqdqdrdsdtdudvdvdwdwdxdydzdzdAdAdBdCdDdDdEdFdGdHcu#AcBcJaWd#dIcK.#QtQtQtQtQtQtQtQtQt",
".#cLcycFdadbdcdddJdKdLdMdNdOdPdQdRdSdTdUdVdWdXdYdZd0d1d2d3d4d5d6bl.ld7bAd8d9bRe.e#b8eaebcocueccBcJaWd#dIedee.#QtQtQtQtQtQtQtQtQt",
".#cLcFdadbdcdddJdKdLdMdNdOdPdQdRdSdTdUdVdWdXdYdZd0d1d2efd4d5d6bl.ld7bAd8d9bRe.e#b8eaebcoegeccBcJaWd#dIedehee.#QtQtQtQtQtQtQtQtQt",
".#eddadbdcddeidKdLdMdNdOdPdQejdSdTdUdVdWdXdYdZd0d1d2efd4d5d6bl.ld7bAd8d9bRe.e#b8eaebcoegeccBcJaWd#dIedehekee.#QtQtQtQtQtQtQtQtQt",
".#eldbdcddeidKdLdMdNdOemdQejdSdTdUdVdWdXdY#wd0d1d2efd4d5d6bl.ld7bAd8d9bRe.e#b8enebcoegeccBcJaWbOdIedehekeoee.#QtQtQtQtQtQtQtQtQt",
".#eldcddeidKdLdMdNdOemdQejdSdTdUdVdWdXdY#wd0d1d2efd4d5#ybl.ld7bAd8d9bRe.e#b8enebcoegeccBepaWbOdIedehekeoeqer.#QtQtQtQtQtQtQtQtQt",
".#elddeidKdLesdNdOemdQejdSdTeteudWdXdY#wd0d1d2efd4d5#ybl.ld7bAd8bHbRe.e#b8enebcoegeccBepaWbOdIedehekeoeqever.#QtQtQtQtQtQtQtQtQt",
".#eleidKdLesdNdOemdQejewexeyezeAeBdKdLeCeDeEeFdOeGc8eHeIeJeKeKeLeMdU.k#5eNeOdX#nePeQeRaWbOdIed.KeSeoeqeveTer.#QtQtQtQtQtQtQtQtQt",
".#eUdKdLesdNdOemdQejeVcIeWeXeYeZe0e1e1e2e3e4e5e6e7e8e9f.f.f#fafbfcfdfefffgfgfgfgfgfgfhfifjed.KeSeoeqeveTfker.#QtQtQtQtQtQtQtQtQt",
".#fldLesdNdOc8dQejfmeDfnfofpfqfrfsftfufvfwfxfyfzfAfBfCfDfEfFfGfHfIfJfKfLfMfgfgfgfgfgfgbved.KeSeoeqeveTfkfNfO.#QtQtQtQtQtQtQtQtQt",
".#.KesdNdOc8dQejfmdTfPfufQfRfrfSfTfUfVfWfXfwfxfYfZfAfBf0f1f2fFfGf3f4f5fKf6fgfgfgfgfgfgf7.KeSeof8f9eTfkfNg.g#.#QtQtQtQtQtQtQtQtQt",
".#.KdNdOc8dQejfmdTeteBfsgafocifgfgfgfMgbfWfXgcfyfzfZgdfCfDfEf2gefHfIf4fKgffgfgfgfgfgfgggeSeof8f9eTfkfNg.ghg#.#QtQtQtQtQtQtQtQtQt",
".#.KdOc8dQgieFdTetgjgkglgmglgffgfgfgfggnfufvfwfxfYfzfAfBf0fDfEfFfGf3fIgogffgfgfgfgfgfggpeof8f9ckgqfNg.grgsg#.#QtQtQtQtQtQtQtQtQt",
".#gtc8dQejguguetgjdWgvgwgxglgyfgfgfgfggzgAfWfXgcfxfYfZgdfCf0f1f2gefGf3gogffgfgfgfgfgfgbMf8f9eTgBgCg.grgsgDgE.#QtQtQtQtQtQtQtQtQt",
".#gFdQgGgkgHgHdMet#meCfogIfqgyfgfgfgfggJftfufvfwgcfyfzfAgdfCfDfEfFgefHgogKfgfgfgfgfgfggLf9gFgMgNgOgPgQgDgRgS.#QtQtQtQtQtQtQtQtQt",
".#gTejgUgVfgfggWgX#neCgmgYgwgyfgfgfgfggJfsgAfWfvfwfxfYfZfAfBf0f1fEfFfGgZg0fgfgfgfgfgfgg1eTedg2fgfgg3g4gRg5gS.#QtQtQtQtQtQtQtQtQt",
".#gTeKdTg6fgfgg7#n#weCgxg8fpgyfgfgfgfggJg9ftfufWfXgcfyfYfZgdfCfDf1f2gegoh.fgfgfgfgfgfgh#hahbgJfgfghcgRg5hdgS.#QtQtQtQtQtQtQtQtQt",
".#gTheethfhghheK#wd0eDg8hifogyfgfgfgfggJfrfsftfufvfwfxfyfzfAfBfCfDfEfFgZh.fgfgfgfgfgfghjhbg.hkhlhmhng5hdhogS.#QtQtQtQtQtQtQtQtQt",
".#gTetgjdWhphq#w#xacgihrhrfQgyfgfgfgfggJglg9fsgAfWfXfwfxfYfZgdfBf0f1f2gZh.fgfgfgfgfgfgb2g.grhshthug5hdhohvhw.#QtQtQtQtQtQtQtQtQt",
".#hxgjdW#mhygX#xachzeDhAhBgagyfgfgfgfggJfqglg9ftfufvfXgcfyfzfZgdfCfDfEgohCfgfgfgfgfgfgb7grhshDhE.ehFhohvhGhw.#QtQtQtQtQtQtQtQtQt",
".#hHhI#m#nhJdYachzefeEhKhAgmgyfgfgfgfggJgwfqfrfsgAfufvfwfxfYfzfAfBf0fDhLgVfgfgfgfgfgfghMhshDgRgrhFhohvhGhNhO.#QtQtQtQtQtQtQtQtQt",
".#hPhQef#w#xacadefafhRhShKgxgBg3g3g3g3hTfRgwglg9ftgAfWfXgcfxfYfZgdfCf0hLhUfgfgfgfgfgfgcbhDgRg5hFhohvhGhNhVag.#QtQtQtQtQtQtQtQtQt",
"Qt.#hWhXd3acadefafhYhZh0h1hAfWfvfwfxfyfyfofpfqfrg9ftfufvfwgcfyfzfAfBfCh2h3h4aUh5fibr.rcJgRg5hFhohvhGhNhVh6h7h8QtQtQtQtQtQtQtQtQt",
"QtQt.#h9cpi.i#eniaib.xh0hShKhBhrhigYgxgmfQfRgwglfrfsgAfWfXfwfxfYfZfAfBicidieifigihiiijikiliminioipiqiris.s.#itQtQtQtQtQtQtQtQtQt",
"QtQtQt.#iuiviv.C.CiviwixiyiyiziAiAiAiBiBiCiDiEiEiFiEiGiHiIiJiKiKiLiMiMiN#6iOiOiOh3iPiPiPiPiPiPiPiQiRiShW.#iTQtQtQtQtQtQtQtQtQtQt",
"QtQtQtQt.#.#.#.#.#.#.#.#h8iUiUiUiUiUiUiUiUiUiUiUiUiUiUiUiUiUiUiUiUiUiUiUiUiUiUiUiUiUiUiUiUiUiUiUiUiUiUiVQtQtQtQtQtQtQtQtQtQtQtQt",
"QtQtQtQtQtQtQtQtQtQtQtQtQtQtQtQtQtQtQtQtQtQtQtQtQtQtQtQtQtQtQtQtQtQtQtQtQtQtQtQtQtQtQtQtQtQtQtQtQtQtQtQtQtQtQtQtQtQtQtQtQtQtQtQt",
"QtQtQtQtQtQtQtQtQtQtQtQtQtQtQtQtQtQtQtQtQtQtQtQtQtQtQtQtQtQtQtQtQtQtQtQtQtQtQtQtQtQtQtQtQtQtQtQtQtQtQtQtQtQtQtQtQtQtQtQtQtQtQtQt",
"QtQtQtQtQtQtQtQtQtQtQtQtQtQtQtQtQtQtQtQtQtQtQtQtQtQtQtQtQtQtQtQtQtQtQtQtQtQtQtQtQtQtQtQtQtQtQtQtQtQtQtQtQtQtQtQtQtQtQtQtQtQtQtQt",
"QtQtQtQtQtQtQtQtQtQtQtQtQtQtQtQtQtQtQtQtQtQtQtQtQtQtQtQtQtQtQtQtQtQtQtQtQtQtQtQtQtQtQtQtQtQtQtQtQtQtQtQtQtQtQtQtQtQtQtQtQtQtQtQt",
"QtQtQtQtQtQtQtQtQtQtQtQtQtQtQtQtQtQtQtQtQtQtQtQtQtQtQtQtQtQtQtQtQtQtQtQtQtQtQtQtQtQtQtQtQtQtQtQtQtQtQtQtQtQtQtQtQtQtQtQtQtQtQtQt",
"QtQtQtQtQtQtQtQtQtQtQtQtQtQtQtQtQtQtQtQtQtQtQtQtQtQtQtQtQtQtQtQtQtQtQtQtQtQtQtQtQtQtQtQtQtQtQtQtQtQtQtQtQtQtQtQtQtQtQtQtQtQtQtQt"};
