/* XPM */
static char *dummy[]={
"64 64 566 2",
"Qt c None",
"ek c #0b0b0b",
"eC c #111312",
"ev c #131515",
"ay c #141414",
"eq c #171717",
"d8 c #191919",
"er c #202222",
"d9 c #232323",
"ej c #232626",
"ee c #252525",
"az c #262626",
"dQ c #282828",
"aT c #2a2a2a",
"aY c #2e2e2e",
".T c #2f2f2f",
"aU c #333636",
"d0 c #353535",
"dR c #363636",
"aA c #383838",
"aS c #3c3c3c",
"aZ c #3d3d3d",
".1 c #404040",
".N c #404242",
"bc c #414141",
".2 c #424242",
"dZ c #434343",
"dw c #434545",
"ax c #434947",
"ef c #434948",
"e. c #444747",
"dY c #474747",
"dH c #484949",
"ed c #484c4b",
"aB c #4a4a4a",
"bj c #4a4c4b",
"dx c #4b4b4b",
"dS c #4c4d4d",
"ep c #4d5453",
"aR c #4e4e4e",
"el c #4e5454",
"d7 c #505756",
".# c #505a5a",
"de c #515151",
"fq c #515b5b",
"bk c #525252",
"dX c #525454",
"fr c #525c5c",
"#. c #535353",
".q c #535d5d",
"fv c #545e5e",
"## c #555555",
"fw c #555e5e",
".a c #565f5f",
"fy c #566060",
"bp c #575757",
"bd c #585e5c",
"fz c #586262",
"dz c #5b5b5b",
"fF c #5b6464",
"aC c #5c5c5c",
"dp c #5d6262",
"fH c #5d6666",
".l c #5d6767",
"cY c #5e5e5e",
"aQ c #5f5f5f",
"d1 c #5f6968",
"do c #606060",
"fQ c #606969",
"dE c #616161",
".e c #616b6b",
"a0 c #626262",
"dd c #636968",
"fT c #636c6c",
"ew c #646d6c",
"fU c #646d6d",
"dD c #656565",
"dG c #656766",
"bw c #656868",
"#a c #656967",
"#j c #666666",
"fY c #666f6f",
"aX c #67706e",
"eB c #67706f",
"fX c #677070",
"bo c #6a6a6a",
"f1 c #6a7373",
"eX c #6a7574",
"#g c #6b6e6d",
"bD c #6b6e6e",
"dW c #6b7372",
"eM c #6b7775",
"eS c #6b7776",
"c8 c #6c7473",
"eQ c #6c7674",
"ec c #6c7675",
"fI c #6c7676",
"ey c #6c7877",
"eN c #6c7977",
"aD c #6d6d6d",
"cJ c #6d6e6e",
"eF c #6d7877",
"e0 c #6d7878",
"eo c #6d7978",
"c7 c #6e6e6e",
"dC c #6e7574",
"f5 c #6e7676",
"eb c #6e7a79",
"fP c #6f7878",
"eW c #6f7a79",
"eD c #707a79",
"dV c #707b7a",
"dI c #707c7a",
"en c #707c7b",
"aP c #717171",
".H c #717676",
"eK c #717b7a",
"dJ c #717d7b",
"f9 c #727a7a",
"#4 c #727d7a",
"e1 c #727d7c",
"dq c #727e7c",
"c9 c #727f7d",
"#h c #737373",
"es c #737e7d",
"eE c #737e7e",
"bE c #737f7d",
"#s c #747474",
".M c #747979",
"dA c #747a79",
".3 c #747c79",
"bq c #747c7a",
"g. c #747c7c",
"#5 c #747e7b",
"fb c #747e7e",
"cP c #747f7e",
"cQ c #74807f",
"dK c #74817f",
".9 c #757d7a",
"fG c #757d7d",
"dT c #757e7d",
"eL c #75817f",
"ez c #758180",
"cB c #75827f",
"di c #767676",
"gb c #767e7e",
".v c #767f7f",
"dP c #76807f",
"fa c #768080",
"am c #76817f",
"eP c #768180",
"cp c #768380",
"cq c #768381",
"fR c #777f7f",
"f# c #778080",
"eR c #778381",
"ea c #778382",
"cb c #778581",
"bT c #787878",
"ga c #787f7f",
"#6 c #78827f",
"fc c #788282",
"bZ c #788482",
"cC c #788582",
"b0 c #788583",
"#v c #797979",
"bS c #79807e",
"al c #798380",
"eu c #798483",
"eO c #798583",
"eg c #798684",
"eZ c #7a8483",
"go c #7a8484",
"cX c #7a8582",
"cR c #7a8684",
"cO c #7b7b7b",
"bY c #7b7e7e",
"gf c #7b8383",
"fA c #7b8484",
"#7 c #7b8582",
"e6 c #7b8584",
"f. c #7b8585",
"e# c #7b8684",
"eY c #7b8685",
"gp c #7b8686",
"dr c #7b8785",
"d. c #7b8885",
"bF c #7b8886",
"bG c #7b8986",
"dj c #7c7f7f",
"fd c #7c8686",
"ak c #7c8784",
"e5 c #7c8786",
"bH c #7c8987",
"bC c #7d7d7d",
"f8 c #7d8484",
"fE c #7d8585",
"e7 c #7d8787",
"ex c #7d8887",
"e2 c #7d8888",
"bI c #7d8a87",
"b1 c #7d8a88",
"bJ c #7d8b88",
"aE c #7e7e7e",
"dh c #7e7f7f",
"cv c #7e8381",
"fm c #7e8787",
"eT c #7e8888",
"eG c #7e8989",
"eJ c #7e8a88",
"bK c #7e8b89",
"#X c #7e8d89",
"dl c #7f8080",
"dk c #7f8382",
"#8 c #7f8986",
"dU c #7f8988",
"d3 c #7f8989",
"aj c #7f8a87",
"eA c #7f8a89",
"dL c #7f8a8a",
"cc c #7f8d89",
"ca c #808785",
"gi c #808787",
"gg c #808888",
"ds c #808a8a",
"em c #808b8a",
"d# c #808b8b",
"bL c #808d8a",
"#K c #808e8b",
"gc c #818888",
"cT c #818b8b",
"d2 c #818c8b",
"cE c #818c8c",
"#y c #81908b",
"aO c #828282",
"ce c #828c8c",
"#9 c #828d8a",
"aq c #828e8a",
"ap c #828e8b",
"d6 c #828e8c",
"#W c #82918d",
"cA c #838685",
"gh c #838b8b",
"bN c #838d8d",
"an c #838e8b",
"br c #838e8e",
"ao c #838f8b",
"cr c #83908d",
"#Y c #83928e",
".b c #848c8c",
"gq c #848d8d",
"bf c #848e8e",
"dO c #848f8e",
"as c #848f8f",
"aV c #84908d",
"dB c #84908e",
"cw c #858585",
"co c #858b8a",
"gm c #858c8c",
"b5 c #858f8c",
"#Z c #858f8f",
"#M c #859090",
"dv c #85918f",
"#l c #85948f",
"#m c #859490",
"#E c #868686",
"b6 c #868786",
"gn c #868c8c",
"ci c #868e8c",
"#n c #869090",
"cD c #86928f",
"dc c #869290",
"a. c #87918e",
"f2 c #879292",
"cS c #879391",
"cW c #879491",
"bx c #888989",
"f4 c #889292",
"g# c #889393",
"cI c #889492",
"ar c #889591",
".i c #899090",
"gr c #899191",
"#c c #899494",
"cH c #899593",
"#3 c #899692",
"gs c #8a9191",
"gy c #8a9292",
"#w c #8a9390",
"gz c #8a9393",
"bv c #8a9693",
"cu c #8a9794",
"bl c #8b8c8c",
"#D c #8b9391",
"fh c #8b9393",
"a# c #8b9492",
"gA c #8b9494",
"ff c #8b9594",
"b2 c #8b9795",
"ch c #8b9895",
"cd c #8b9995",
"#J c #8b9996",
"#I c #8c908e",
"gB c #8c9494",
".0 c #8c9995",
"bM c #8c9996",
"#L c #8c9a96",
"c3 c #8d8d8d",
"dF c #8d918f",
"gC c #8d9595",
"e9 c #8d9696",
"bR c #8d9a97",
"#b c #8d9d98",
"#H c #8e8e8e",
"fS c #8e9494",
"e4 c #8e9797",
"aa c #8e9895",
"bQ c #8e9b98",
"aF c #8f8f8f",
"#Q c #8f9291",
"eV c #8f9897",
"f3 c #8f9898",
"be c #8f9c98",
"bu c #8f9c99",
"cj c #909090",
"fZ c #909696",
"eI c #909a98",
".5 c #909a9a",
"bi c #909e9a",
"dy c #919593",
"gx c #919797",
"gD c #919898",
"ai c #919b99",
"et c #919b9a",
"#r c #919e9a",
"aw c #919f9b",
"aN c #929292",
"ei c #929c9b",
"cZ c #939695",
"ab c #939c99",
"d5 c #939d9c",
".U c #93a09b",
"av c #93a19d",
"#x c #93a29d",
".V c #949d9d",
"fV c #949e9e",
"fW c #949f9f",
"#2 c #94a29e",
"#z c #94a39e",
"gE c #959b9b",
"dN c #959e9d",
"#k c #95a29e",
"#P c #95a49f",
"#i c #969696",
"gF c #969c9c",
".C c #969f9f",
"du c #96a09e",
"db c #97a19f",
"cV c #97a2a0",
".4 c #97a5a0",
"#C c #97a5a1",
"b7 c #989898",
"f0 c #989e9e",
".O c #98a0a0",
"#q c #98a7a2",
"#V c #999999",
"gw c #999e9e",
"cG c #99a3a2",
"fJ c #99a3a3",
"#f c #99a8a3",
"f6 c #9aa0a0",
"ah c #9aa19f",
"ct c #9aa5a2",
".8 c #9aaaa4",
"c# c #9b9b9b",
".I c #9ba4a4",
"cg c #9ba6a3",
"cN c #9c9e9d",
"fK c #9ca5a5",
"b4 c #9ca7a4",
".Z c #9caba6",
"gG c #9da3a3",
"bP c #9da8a6",
"#R c #9e9e9e",
"c4 c #9e9f9f",
"gM c #9ea3a3",
"fB c #9ea8a8",
"bt c #9ea9a7",
"ac c #9f9f9f",
"gN c #9fa4a4",
"bh c #9faba7",
"c2 c #a0a3a2",
"gO c #a0a5a5",
"aW c #a0aca8",
"gP c #a1a6a6",
"aM c #a2a2a2",
"gQ c #a2a7a7",
"au c #a2adaa",
"#1 c #a2aeab",
".S c #a2b0ab",
"cn c #a3a3a3",
"fx c #a3adad",
"#O c #a3b0ac",
"fC c #a4aeae",
"fL c #a5afaf",
"#B c #a5b1ad",
"c6 c #a6aaa8",
"#p c #a6b2ae",
"a1 c #a7a8a8",
"df c #a7aba9",
"#e c #a7b4b0",
".7 c #a7b6b1",
"bB c #a8a9a8",
"bX c #a9a9a9",
"gL c #a9aeae",
"fs c #a9b3b3",
"fM c #a9b4b4",
".Y c #a9b7b3",
"ag c #ababab",
"#t c #acacac",
"bb c #acadac",
"dm c #acb1af",
".c c #acb3b3",
"aG c #adadad",
".G c #adb6b6",
"gR c #aeb2b2",
"fN c #aeb8b8",
".R c #aebbb7",
"aL c #afafaf",
"fD c #b0b9b9",
"fO c #b0baba",
"bn c #b1b2b2",
"a2 c #b1b3b2",
"dg c #b1b6b3",
"fn c #b1bbbb",
".d c #b2b8b8",
"ft c #b2bcbc",
"fu c #b3bdbd",
"fi c #b4bebe",
"#U c #b5b5b5",
"fj c #b5bfbf",
"ba c #b6b8b7",
"cM c #b6b9b7",
"dn c #b6bcb9",
"fg c #b6c0c0",
"fe c #b7c1c1",
"gl c #b8bcbc",
"e8 c #b8c2c2",
"cL c #b9bdbb",
"e3 c #b9c3c3",
"a3 c #babbbb",
"ck c #babdbb",
"eU c #bac4c4",
"aK c #bbbbbb",
"gt c #bbbfbf",
"eH c #bbc5c5",
"eh c #bcc6c6",
"c5 c #bdc3c0",
"d4 c #bdc7c7",
"gK c #bec1c1",
"dM c #bec8c8",
"c1 c #bfc5c2",
"dt c #bfc9c9",
"b# c #c0c2c1",
".B c #c0c9c9",
"da c #c0caca",
"b8 c #c1c3c2",
"gS c #c1c4c4",
"c0 c #c1c7c4",
"cU c #c1cbcb",
"ad c #c2c3c3",
"a4 c #c2c4c3",
"cx c #c2c7c5",
"cF c #c2cccc",
"cs c #c3cdcd",
"bU c #c4c7c5",
".o c #c4caca",
"cf c #c4cece",
"f7 c #c5c9c9",
"cK c #c5cbc8",
"b3 c #c5cfcf",
"gd c #c6c9c9",
"bO c #c6d0d0",
"cm c #c7cac8",
"bs c #c7d1d1",
"cz c #c8cdcb",
"bg c #c8d2d2",
"b. c #c9cbca",
"cy c #c9cecc",
"at c #c9d3d3",
"a5 c #cacccb",
"#0 c #cad4d4",
"#u c #cbcccc",
"#N c #cbd5d5",
"#A c #ccd6d6",
"c. c #cdd0ce",
"#o c #cdd7d7",
"cl c #ced2d0",
"#d c #ced8d8",
"by c #cfd1d0",
".6 c #cfd9d9",
"bW c #d0d3d2",
".X c #d0dada",
"a6 c #d1d3d2",
".Q c #d1dbdb",
"b9 c #d2d6d4",
".L c #d2dcdc",
"gJ c #d3d5d5",
"ge c #d3d6d6",
".W c #d3dcdc",
".F c #d3dddd",
"af c #d4d5d5",
".f c #d4d8d8",
".E c #d4dddd",
".A c #d4dede",
"gj c #d5d7d7",
"gT c #d5d8d8",
"bV c #d6dad8",
"#F c #d8d8d8",
"bA c #d8dbda",
"aH c #d9dcdb",
".z c #d9e1e1",
"a9 c #dadbdb",
"bz c #dbdedd",
".K c #dbe3e3",
"gv c #dddfdf",
".y c #dde5e5",
"gH c #dee0e0",
".P c #dee5e5",
"bm c #dfe2e1",
".D c #dfe6e6",
"gk c #e1e3e3",
"gu c #e2e3e3",
"a7 c #e2e5e4",
"a8 c #e3e6e5",
".J c #e3e9e9",
"aJ c #e4e6e6",
"aI c #e7eae9",
".x c #e7ecec",
".m c #e9eded",
".w c #eaeeee",
".r c #eaefef",
".u c #ebf0f0",
"ae c #eceded",
"fk c #ecefef",
".t c #ecf1f1",
".j c #edf0f0",
".s c #edf1f1",
"#G c #eeefef",
"#S c #eff0f0",
"#T c #f0f1f1",
".p c #f0f3f3",
"gV c #f2f2f2",
".n c #f2f5f5",
"fo c #f3f5f5",
"gI c #f4f5f5",
"gZ c #f5f5f5",
"gU c #f5f6f6",
".k c #f5f7f7",
".g c #f6f8f8",
"fl c #f7f7f7",
".h c #f7f9f9",
"gW c #f8f8f8",
"gX c #f9f9f9",
"gY c #f9fafa",
"fp c #ffffff",
"QtQtQtQtQtQtQtQtQtQtQtQtQtQtQtQtQtQtQtQtQtQtQtQtQtQtQtQtQtQtQtQtQtQtQtQtQtQtQtQtQtQtQtQtQtQtQtQtQtQtQtQtQtQtQtQtQtQtQtQtQtQtQtQt",
"QtQtQtQtQtQtQtQtQtQtQtQtQtQtQtQtQtQtQtQtQtQtQtQtQtQtQtQtQtQtQtQtQtQtQtQtQtQtQtQtQtQtQtQtQtQtQtQtQtQtQtQtQtQtQtQtQtQtQtQtQtQtQtQt",
"QtQtQtQtQtQtQtQtQtQtQtQtQtQtQtQtQtQtQtQtQtQtQtQtQtQtQtQtQtQtQtQtQtQtQtQtQtQtQtQtQtQtQtQtQtQtQtQtQtQtQtQtQtQtQtQtQtQtQtQtQtQtQtQt",
"QtQtQtQtQtQtQtQtQtQtQtQtQtQtQtQtQtQtQtQtQtQtQtQtQtQtQtQtQtQtQtQtQtQtQtQtQtQtQtQtQtQtQtQtQtQtQtQtQtQtQtQtQtQtQtQtQtQtQtQtQtQtQtQt",
"QtQtQtQtQtQt.#.#.#.#.#.#.#.#.#.#.#.#.#.#.#.#.#.#.#.#.#.#.#.#.#.#.#.#.#.#.#.#.#.#.#.#.#.#.#.#.#.#.#.#.#.#.#.#.#.#.#.#QtQtQtQtQtQt",
"QtQtQtQt.#.#.#.#.#.#.#.#.#.#.#.#.#.#.#.#.#.#.#.#.#.#.#.#.#.#.#.#.#.#.#.#.#.#.#.#.#.#.#.#.#.#.#.#.#.#.#.#.#.#.#.#.#.#.#.#QtQtQtQt",
"QtQt.#.#.#.#.#.#.#.#.#.#.#.#.#.#.#.#.#.#.#.#.#.#.#.#.#.#.#.#.#.#.#.#.#.#.#.#.#.#.#.#.#.#.#.#.#.#.#.#.#.#.#.#.#.#.#.#.#.#.#.#QtQt",
"QtQt.#.#.#.#.#.#.a.b.c.d.d.d.d.d.d.d.d.d.d.d.d.d.d.d.d.d.d.d.d.d.d.d.d.d.d.d.d.d.d.d.d.d.d.d.d.d.d.d.d.d.d.c.b.a.#.#.#.#.#.#QtQt",
"Qt.#.#.#.#.#.e.f.g.h.h.h.h.h.h.h.h.h.h.h.h.h.h.h.h.h.h.h.h.h.h.h.h.h.h.h.h.h.h.h.h.h.h.h.h.h.h.h.h.h.h.h.h.h.h.g.f.e.#.#.#.#.#Qt",
".#.#.#.#.#.i.j.k.k.k.k.k.k.k.k.k.k.k.k.k.k.k.k.k.k.k.k.k.k.k.k.k.k.k.k.k.k.k.k.k.k.k.k.k.k.k.k.k.k.k.k.k.k.k.k.k.k.j.i.#.#.#.#.#",
".#.#.#.#.l.m.n.n.n.n.n.n.n.n.n.n.n.n.n.n.n.n.n.n.n.n.n.n.n.n.n.n.n.n.n.n.n.n.n.n.n.n.n.n.n.n.n.n.n.n.n.n.n.n.n.n.n.n.m.l.#.#.#.#",
".#.#.#.#.o.p.p.p.p.p.p.p.p.p.p.p.p.p.p.p.p.p.p.p.p.p.p.p.p.p.p.p.p.p.p.p.p.p.p.p.p.p.p.p.p.p.p.p.p.p.p.p.p.p.p.p.p.p.p.o.#.#.#.#",
".#.#.#.q.r.s.s.s.s.s.t.u.u.u.u.u.u.u.u.u.u.u.u.u.u.u.u.u.u.u.u.u.u.u.u.u.u.u.u.u.u.u.u.u.u.u.u.u.u.u.u.u.u.t.s.s.s.s.s.r.q.#.#.#",
".#.#.#.v.w.w.w.x.y.z.A.A.A.A.A.A.A.A.A.A.A.A.A.A.A.A.B.A.A.A.A.A.A.A.A.A.A.A.A.A.A.A.A.A.A.A.A.A.A.A.A.A.A.A.z.y.x.w.w.w.v.#.#.#",
".#.#.#.C.x.x.D.E.F.F.F.F.F.F.F.F.F.F.F.F.F.F.F.F.F.G.H.F.F.F.F.F.F.F.F.F.F.F.F.F.F.F.F.F.F.F.F.F.F.F.F.F.F.F.F.F.E.D.x.x.C.#.#.#",
".#.#.#.I.J.K.L.L.L.L.L.L.L.L.L.L.L.L.L.L.L.L.L.L.L.M.N.L.L.L.L.L.L.L.L.L.L.L.L.L.L.L.L.L.L.L.L.L.L.L.L.L.L.L.L.L.L.L.K.J.I.#.#.#",
".#.#.#.O.P.Q.Q.Q.R.S.S.S.S.S.S.S.S.S.S.S.S.S.S.S.S.N.T.U.S.S.S.S.S.S.S.S.S.S.S.S.S.S.S.S.S.S.S.S.S.S.S.S.S.S.S.R.Q.Q.Q.P.O.#.#.#",
".#.#.#.V.W.X.X.X.Y.Z.Z.Z.Z.Z.Z.Z.Z.Z.Z.Z.Z.Z.Z.Z.0.1.2.3.Z.Z.Z.Z.4.4.Z.Z.Z.Z.Z.Z.Z.Z.Z.Z.Z.Z.Z.Z.Z.Z.Z.Z.Z.Z.Z.Y.X.X.X.W.V.#.#.#",
".#.#.#.5.6.6.6.6.7.8.8.8.8.8.8.8.8.8.8.8.8.8.8.8.9#.###a.8.8.8.8#b#b.8.8.8.8.8.8.8.8.8.8.8.8.8.8.8.8.8.8.8.8.8.7.6.6.6.6.5.#.#.#",
".#.#.##c#d#d#d#d#e#f#f#f#f#f#f#f#f#f#f#f#f#f#f#f#g#h#i#j#k#f#f#f#l#m#f#f#f#f#f#f#f#f#f#f#f#f#f#f#f#f#f#f#f#f#f#e#d#d#d#d#c.#.#.#",
".#.#.##n#o#o#o#o#p#q#q#q#q#q#q#q#q#q#q#q#q#q#q#r#s#t#u#v#w#q#q#x#y#y#z#q#q#q#q#q#q#q#q#q#q#q#q#q#q#q#q#q#q#q#q#p#o#o#o#o#n.#.#.#",
".#.#.##n#A#A#A#A#B#C#C#C#C#C#C#C#C#C#C#C#C#C#C#D#E#F#G#H#I#C#C#J#K#K#L#C#C#C#C#C#C#C#C#C#C#C#C#C#C#C#C#C#C#C#C#B#A#A#A#A#n.#.#.#",
".#.#.##M#N#N#N#N#O#P#P#P#P#P#P#P#P#P#P#P#P#P#P#Q#R#S#T#U#V#z#P#W#X#X#Y#P#P#P#P#P#P#P#P#P#P#P#P#P#P#P#P#P#P#P#P#O#N#N#N#N#M.#.#.#",
".#.#.##Z#0#0#0#0#1#2#2#2#3#4#5#6#7#8#9a.a#aaabacadaeaeafagahaiajakalamanaoapaqar#2#2#2#2#2#2#2#2#2#2#2#2#2#2#2#1#0#0#0#0#Z.#.#.#",
".#.#.#asatatatatauavavavawaxayazaAaBaCaDaEaF#RaGaHaIaIaJaKaLaMaNaOaPaQaRaSaTaUaVavavavavavavavavavavavavavavavauatatatatas.#.#.#",
".#.#.#asatatatataWawawawawawaXaYaZa0a1a2a3a4a5a6a7a8a8a8a9a6b.b#babbaO#.bcbdbeawawawawawawawawawawawawawawawawaWatatatatas.#.#.#",
".#.#.#bfbgbgbgbgbhbibibibibibiajbjbkblaHbmbmbmbmbmbmbmbmbmbmbmbmbmbnbobpbqbibibibibibibibibibibibibibibibibibibhbgbgbgbgbf.#.#.#",
".#.#.#brbsbsbsbsbtbubububububububvbw#jbxbybzbzbzbzbzbzbzbzbzbzbAbBbCbDbEbFbGbHbHbIbJbJbKbKbLbMbububububububububtbsbsbsbsbr.#.#.#",
".#.#.#bNbObObObObPbQbQbQbQbQbQbQbQbRbSbT#HbUbVbVbVbVbVbVbVbVbWbX#HbYbZb0b0b0b0b0b0b0b0b0b1b2bQbQbQbQbQbQbQbQbQbPbObObObObN.#.#.#",
".#.#.#bNb3b3b3b3b4#L#L#L#L#L#L#L#L#L#Lb5b6b7b8b9b9b9b9b9b9c.aLc#cacbcbcbcbcbcbcbcbcbcbcccd#L#L#L#L#L#L#L#L#L#Lb4b3b3b3b3bN.#.#.#",
".#.#.#cecfcfcfcfcgchchchchchchchchchchchcicjckclclclclclclcmcncocpcpcpcpcpcpcpcpcpcqcrchchchchchchchchchchchchcgcfcfcfcfce.#.#.#",
".#.#.#cecscscscsctcucucucucucucucucucucucvcwcxcycycycycycycz#VcAcBcBcBcBcBcBcBcBcCcDcucucucucucucucucucucucucuctcscscscsce.#.#.#",
".#.#.#cEcFcFcFcFcGcHcHcHcHcHcHcHcHcHcHcIcJb6cKcKcKcLcMcKcKcKcNcOcPcQcQcQcQcQcQcRcScHcHcHcHcHcHcHcHcHcHcHcHcHcHcGcFcFcFcFcE.#.#.#",
".#.#.#cTcUcUcUcUcVcWcWcWcWcWcWcWcWcWcWcXcYcZc0c1c2c3aFc4c5c0c6c7c8c9c9c9c9c9d.cWcWcWcWcWcWcWcWcWcWcWcWcWcWcWcWcVcUcUcUcUcT.#.#.#",
".#.#.#d#dadadadadbdcdcdcdcdcdcdcdcdcdcdddedfdgdhdidjdkcOdldmdndodpdqdqdqdqdqdrdcdcdcdcdcdcdcdcdcdcdcdcdcdcdcdcdbdadadadad#.#.#.#",
".#.#.#dsdtdtdtdtdudvdvdvdvdvdvdvdvdvdvdwdxdydzcYdAdBdvdCdDdEdFdGdHdIdJdJdJdJdKdvdvdvdvdvdvdvdvdvdvdvdvdvdvdvdvdudtdtdtdtds.#.#.#",
".#.#.#dLdMdMdMdMdNdOdOdOdOdOdOdOdOdOdPdQdRaZdSdTdOdOdUdVdWdXdYdZd0d1dVdVdVdVdVd2dOdOdOdOdOdOdOdOdOdOdOdOdOdOdOdNdMdMdMdMdL.#.#.#",
".#.#.#d3d4d4d4d4d5d6d6d6d6d6d6d6d6d6d7d8d9e.e#d6d6d6eaebebecedaYeeefebebebebebegd6d6d6d6d6d6d6d6d6d6d6d6d6d6d6d5d4d4d4d4d3.#.#.#",
".#.#.#d3eheheheheid2d2d2d2d2d2d2d2d2ejekelemd2d2d2d2eneoeoeoeoepeqereneoeoeoeoesd2d2d2d2d2d2d2d2d2d2d2d2d2d2d2eiehehehehd3.#.#.#",
".#.#.#d3ehehehehetememememememememeuevewemememememexeyeyeyeyezeAeBeCeDeEeyeyeyeFeAememememememememememememememetehehehehd3.#.#.#",
".#.#.#eGeHeHeHeHeIeJeJeJeJeJeJeJeJeKameJeJeJeJeJeJeLeMeMeNeOeJeJeJePeQeJeReSeMeMb0eJeJeJeJeJeJeJeJeJeJeJeJeJeJeIeHeHeHeHeG.#.#.#",
".#.#.#eTeUeUeUeUeVexexexexexexexexexexexexexexexexeWeXeWeYexexexexexexexexeZe0eXe1exexexexexexexexexexexexexexeVeUeUeUeUeT.#.#.#",
".#.#.#e2e3e3e3e3e4e5e5e5e5e5e5e5e5e5e5e5e5e5e5e5e6eXese5e5e5e5e5e5e5e5e5e5e5eYdVeSe5e5e5e5e5e5e5e5e5e5e5e5e5e5e4e3e3e3e3e2.#.#.#",
".#.#.#e7e8e8e8e8e9f.f.f.f.f.f.f.f.f.f.f.f.f.f.f.f#faf.f.f.f.f.f.f.f.f.f.f.f.f.f.fbfcf.f.f.f.f.f.f.f.f.f.f.f.f.e9e8e8e8e8e7.#.#.#",
".#.#.#fdfefefefeffeueueueueueueueueueueueueueueueueueueueueueueueueueueueueueueueueueueueueueueueueueueueueueufffefefefefd.#.#.#",
".#.#.#e7fgfgfgfgfhfcfcfcfcfcfcfcfcfcfcfcfcfcfcfcfcfcfcfcfcfcfcfcfcfcfcfcfcfcfcfcfcfcfcfcfcfcfcfcfcfcfcfcfcfcfcfhfgfgfgfge7.#.#.#",
".#.#.#e2fifjfjfjfkflflflflflflflflflflflflflflflflflflflflflflflflflflflflflflflflflflflflflflflflflflflflflflfkfjfjfjfie2.#.#.#",
".#.#.#fmfnfifififofpfpfpfpfpfpfpfpfpfpfpfpfpfpfpfpfpfpfpfpfpfpfpfpfpfpfpfpfpfpfpfpfpfpfpfpfpfpfpfpfpfpfpfpfpfpfofifififneTfqfqfq",
"frfrfreTfsftfufufgfefefefefefefefefefefefefefefefefefefefefefefefefefefefefefefefefefefefefefefefefefefefefefefgfufuftfsd3.q.q.q",
"fvfvfwd3fxfsftftftftftftftftftftftftftftftftftftftftftftftftftftftftftftftftftftftftftftftftftftftftftftftftftftftftfsfxdsfyfyfy",
"fzfzfzfAfBfBfCfDfnfnfnfnfnfnfnfnfnfnfnfnfnfnfnfnfnfnfnfnfnfnfnfnfnfnfnfnfnfnfnfnfnfnfnfnfnfnfnfnfnfnfnfnfnfnfnfnfDfCfBfBfEfFfFfF",
"fGfHfHfIfJfJfJfKfLfMfNfOfOfOfOfOfOfOfOfOfOfOfOfOfOfOfOfOfOfOfOfOfOfOfOfOfOfOfOfOfOfOfOfOfOfOfOfOfOfOfOfOfOfNfMfLfKfJfJfJfPfQfQfR",
"fSfTfTfUfVfWfWfWfWfWfWfWfWfWfWfWfWfWfWfWfWfWfWfWfWfWfWfWfWfWfWfWfWfWfWfWfWfWfWfWfWfWfWfWfWfWfWfWfWfWfWfWfWfWfWfWfWfWfWfVfXfYfYfZ",
"f0f1f1f1f2f3f3f3f3f3f3f3f3f3f3f3f3f3f3f3f3f3f3f3f3f3f3f3f3f3f3f3f3f3f3f3f3f3f3f3f3f3f3f3f3f3f3f3f3f3f3f3f3f3f3f3f3f3f3f4f5f5f5f6",
"f7f8f9f9g.g#f4f4f4f4f4f4f4f4f4f4f4f4f4f4f4f4f4f4f4f4f4f4f4f4f4f4f4f4f4f4f4f4f4f4f4f4f4f4f4f4f4f4f4f4f4f4f4f4f4f4f4f4g#gagbgbgcgd",
"QtgegfgfgfggbNcTcTcTcTcTcTcTcTcTcTcTcTcTcTcTcTcTcTcTcTcTcTcTcTcTcTcTcTcTcTcTcTcTcTcTcTcTcTcTcTcTcTcTcTcTcTcTcTcTcTbNghgigigigjQt",
"Qtgkglgmgmgngmghf.gogogogogogogogogogogogogogogogogogogogogogogogogogogogogogogogogogogogogogogogogogogogogogogpgqgrgsgsgsgtguQt",
"QtQt#GgvgwgxgxgxfZfSgygygygygygygygygygygygygzfhfhfhfhfhfhfhfhfhfhfhfhfhfhfhfhfhfhfhgAgAgBgBgBgBgBgBgBgBgBgCgDgEgFgFgFgGgH#GQtQt",
"QtQtQt#TgIgJgKgLgGgGgGgGgGgGgGgMgMgNgNgNgNgNgNgNgNgNgNgNgOgOgOgOgOgOgOgOgOgOgPgPgPgPgPgPgPgPgPgPgQgQgQgQgQgQgQgQgRgSgTgUgVQtQtQt",
"QtQtQtQtQtgWgIgXfpfpfpfpfpfpfpfpfpfpfpfpfpfpfpfpfpfpfpfpfpfpfpfpfpfpfpfpfpfpfpfpfpfpfpfpfpfpfpfpfpfpfpfpfpfpfpfpgYgZgXQtQtQtQtQt",
"QtQtQtQtQtQtQtQtQtQtQtQtQtQtQtQtQtQtQtQtQtQtQtQtQtQtQtQtQtQtQtQtQtQtQtQtQtQtQtQtQtQtQtQtQtQtQtQtQtQtQtQtQtQtQtQtQtQtQtQtQtQtQtQt",
"QtQtQtQtQtQtQtQtQtQtQtQtQtQtQtQtQtQtQtQtQtQtQtQtQtQtQtQtQtQtQtQtQtQtQtQtQtQtQtQtQtQtQtQtQtQtQtQtQtQtQtQtQtQtQtQtQtQtQtQtQtQtQtQt",
"QtQtQtQtQtQtQtQtQtQtQtQtQtQtQtQtQtQtQtQtQtQtQtQtQtQtQtQtQtQtQtQtQtQtQtQtQtQtQtQtQtQtQtQtQtQtQtQtQtQtQtQtQtQtQtQtQtQtQtQtQtQtQtQt",
"QtQtQtQtQtQtQtQtQtQtQtQtQtQtQtQtQtQtQtQtQtQtQtQtQtQtQtQtQtQtQtQtQtQtQtQtQtQtQtQtQtQtQtQtQtQtQtQtQtQtQtQtQtQtQtQtQtQtQtQtQtQtQtQt"};
