/* XPM */
static char *dummy[]={
"64 64 434 2",
".M c None",
"#1 c #001621",
"eC c #001721",
"ch c #001722",
".L c #293942",
".K c #293943",
".J c #293a43",
".I c #293a44",
".H c #2a3b44",
".G c #2a3b45",
".F c #2a3c45",
".E c #2a3c46",
".D c #2b3d47",
".C c #2b3e48",
".B c #2b3f49",
"ac c #2c3e48",
".A c #2c3f49",
".z c #2c404a",
".y c #2c404b",
".x c #2c414b",
".w c #2d414c",
".v c #2d424c",
".u c #2d424d",
".t c #2d434d",
"#W c #2e414a",
".s c #2e434e",
".r c #2e434f",
".q c #2e444f",
".p c #2e4450",
".o c #2e4550",
"#o c #2f4048",
"#r c #2f404b",
".1 c #2f414b",
"eH c #2f424a",
"eF c #2f434b",
"#E c #2f434e",
"#5 c #2f4450",
".n c #2f4551",
".m c #2f4651",
".l c #2f4652",
".k c #2f4753",
"eD c #30434b",
"a# c #30434d",
".Q c #304650",
".j c #304753",
".i c #304854",
".h c #304955",
".4 c #31434d",
".R c #314750",
".g c #314a56",
".f c #314a57",
".e c #314b57",
".d c #314b58",
".U c #324753",
"## c #324852",
".c c #324c58",
".b c #324c59",
".a c #324d59",
".# c #324d5a",
"aB c #33444d",
".2 c #33454f",
"az c #33464f",
"#T c #334851",
"aA c #34444d",
"af c #34454d",
"#0 c #34454e",
"#N c #344a56",
"b. c #35464f",
"a8 c #35474f",
".N c #354b59",
".Z c #364853",
".Y c #364a54",
"#9 c #364b57",
"#a c #364c58",
"#B c #364d58",
".3 c #384c56",
"ae c #384c57",
"ak c #384e57",
"as c #384f5a",
"ao c #394d58",
".0 c #394e57",
".X c #394e5a",
"#l c #394f58",
"at c #39505b",
"#6 c #39505c",
"#u c #39515b",
".W c #3a4f5a",
".V c #3a505a",
"#x c #3a515b",
"#8 c #3a515c",
"#L c #3b4e58",
"ab c #3b505a",
".S c #3c525d",
"#f c #3c535d",
".T c #3c535e",
".P c #3d5461",
".O c #3d5661",
"av c #3e5460",
"al c #3e555f",
".6 c #3e5762",
"aa c #3f5560",
"#A c #3f5661",
"#v c #405663",
"ap c #405964",
"ad c #415762",
"ax c #415862",
"ay c #425762",
"an c #425763",
"#H c #445a66",
"aw c #445c66",
"#k c #445d67",
"ar c #455d6a",
"#Z c #465b67",
"#V c #465d69",
"au c #465e6a",
"am c #465f6a",
"ag c #46606c",
"#n c #475e6a",
"aq c #47616d",
"#y c #47626d",
"#R c #4a6370",
"#w c #4a6571",
"#X c #4b636f",
"#p c #4b646f",
"#q c #4b656f",
"#K c #4b6571",
"#7 c #4b6572",
"#J c #4c626d",
"#2 c #4c646f",
"#Y c #4c6672",
"#I c #4c6673",
"#M c #4d646f",
"#s c #4d6470",
".5 c #4d6570",
"#D c #4d6671",
"#m c #4d6772",
"#U c #4d6773",
"#j c #4d6774",
"a. c #4d6775",
"#b c #4d6874",
"#h c #4d6875",
"#P c #4d6876",
"#d c #4d6976",
"Qt c #4e6570",
"#G c #4e6773",
"#. c #4e6875",
"#e c #4e6876",
"#S c #4e6a75",
"#c c #4e6a77",
"ai c #4e6a78",
"#F c #4f6975",
"#C c #4f6976",
"#4 c #4f6a78",
"#g c #4f6b77",
"#z c #4f6b78",
".9 c #4f6b79",
"aj c #4f6c78",
"ah c #4f6c7a",
"#i c #506976",
".8 c #506c79",
".7 c #506c7a",
"#O c #506e7b",
"#t c #516d7a",
"#3 c #516d7b",
"#Q c #526d79",
"bd c #536268",
"bv c #5e6c73",
"bh c #5f6d74",
"cT c #5f6d75",
"br c #606e76",
"b2 c #607076",
"cB c #616e76",
"cS c #617077",
"cO c #617178",
"dI c #627076",
"bs c #627178",
"ca c #627279",
"bo c #63727a",
"bT c #637379",
"ct c #63737b",
"cy c #647178",
"bW c #64737b",
"cY c #64747b",
"bn c #64747c",
"cX c #64757d",
"bw c #64767d",
"cp c #65747c",
"bl c #65757c",
"bR c #65767e",
"bJ c #65767f",
"bu c #65777e",
"cr c #65777f",
"cf c #657780",
"cH c #66767e",
"bq c #66777f",
"bt c #667780",
"ce c #667880",
"bL c #677880",
"bp c #677881",
"bm c #677980",
"bH c #687982",
"cU c #687b83",
"bX c #687c84",
"bE c #697a83",
"b0 c #697b83",
"cP c #697c85",
"c. c #697c86",
"bc c #6a777d",
"c0 c #6a7c86",
"cR c #6a7d85",
"cn c #6a7d86",
"bZ c #6a7e85",
"c1 c #6a7e86",
"cW c #6a7e87",
"a6 c #6b777d",
"a5 c #6b777e",
"a4 c #6b787e",
"cZ c #6b7d87",
"b1 c #6b7e87",
"co c #6b8087",
"a3 c #6c787e",
"a2 c #6c787f",
"a1 c #6c797f",
"a0 c #6c7980",
"eo c #6c7a80",
"bY c #6c7e88",
"bD c #6c7f88",
"cV c #6c7f89",
"cQ c #6c8089",
"bK c #6c808a",
"bN c #6c818a",
"aZ c #6d7a80",
"aY c #6d7a81",
"aX c #6d7b81",
"aW c #6d7c82",
"aV c #6d7c83",
"cF c #6d808a",
"bA c #6d808b",
"c# c #6d818a",
"bU c #6d818b",
"cs c #6d828a",
"aU c #6e7c83",
"aT c #6e7d83",
"aS c #6e7d84",
"aR c #6e7e84",
"cb c #6e838d",
"bS c #6e848c",
"cE c #6e848e",
"aQ c #6f7e85",
"aP c #6f7e86",
"aO c #6f7f86",
"aN c #6f7f87",
"aM c #6f8087",
"aL c #6f8088",
"b5 c #6f848f",
"cD c #6f858e",
"bG c #6f858f",
"b3 c #6f8590",
"bV c #6f8591",
"cu c #6f8692",
"cc c #6f878f",
"cG c #6f8891",
"bC c #6f8892",
"aK c #708088",
"aJ c #708189",
"b6 c #708690",
"b4 c #708691",
"bF c #708792",
"cC c #708892",
"bI c #708991",
"en c #717e84",
"dJ c #717f84",
"c5 c #717f85",
"aI c #71828a",
"aH c #71828b",
"aG c #71838b",
"aF c #71838c",
"eV c #718487",
"aE c #71848c",
"aD c #71848d",
"cI c #718791",
"cd c #718792",
"bM c #718892",
"bB c #718893",
"cq c #718992",
"cJ c #727f85",
"cv c #727f86",
"cg c #738086",
"dM c #748086",
"b7 c #748187",
"ez c #758288",
"bO c #768389",
"bx c #778389",
"bi c #77838a",
"dB c #77848a",
"cz c #78858a",
"dL c #79868b",
"dx c #7a878c",
"dP c #7c8a8e",
"be c #7e898e",
"aC c #7e8f97",
"cL c #828e93",
"ck c #838e93",
"eU c #849597",
"eR c #87989a",
"eQ c #899a9c",
"dQ c #8c989c",
"eP c #8c9c9e",
"eO c #8d9d9f",
"et c #8f9b9e",
"eN c #8f9ea0",
"eM c #90a0a3",
"eL c #93a1a4",
"eT c #93a3a5",
"eK c #95a3a6",
"eJ c #96a6a7",
"dA c #98a3a6",
"ew c #98a8a9",
"cM c #99a2a7",
"eI c #99a7a8",
"es c #9aa6a9",
"eG c #9aa8aa",
"ev c #9babac",
"eE c #9caaac",
"eS c #9cabac",
"ex c #9dacae",
"eq c #9dadae",
"eB c #9eabad",
"dF c #9fa9ac",
"eu c #9fadae",
"ek c #a0afb0",
"c9 c #a1a9ad",
"er c #a1b1b2",
"ep c #a2afb1",
"ei c #a2b1b2",
"dC c #a3adb0",
"ej c #a4b0b2",
"ef c #a4b2b3",
"el c #a4b3b3",
"eh c #a6b1b4",
"ec c #a6b4b5",
"ee c #a8b4b6",
"e# c #a8b6b7",
"c8 c #a9b1b5",
"eb c #a9b5b6",
"eg c #a9b6b7",
"eA c #aab6b8",
"ed c #aab8b8",
"d8 c #aab8b9",
"e. c #abb7b8",
"d5 c #acbaba",
"cj c #adb6b8",
"d7 c #adb8ba",
"ea c #adb9ba",
"dE c #aeb6ba",
"d2 c #afbbbc",
"d9 c #afbcbd",
"d4 c #b0b9bb",
"dU c #b0bbbd",
"ey c #b0bcbd",
"d6 c #b0bdbd",
"d0 c #b1bdbe",
"d1 c #b2bbbd",
"em c #b2bfbf",
"dZ c #b3bdbf",
"dX c #b3bfc0",
"d3 c #b4bec0",
"dW c #b5bec0",
"dT c #b5c1c2",
"dS c #b6bfc2",
"dH c #b7c3c3",
"dO c #b8c1c4",
"dY c #b8c3c3",
"dV c #b9c4c5",
"dG c #b9c5c5",
"cl c #bbc3c5",
"dR c #bbc7c7",
"dy c #bcc5c6",
"dz c #bcc6c7",
"dK c #bec8c8",
"du c #bec8c9",
"dt c #bfc7c8",
"dq c #c0c8c9",
"dD c #c0c9cb",
"dr c #c0cacb",
"c4 c #c1c8ca",
"dn c #c2c9cb",
"cN c #c2cacc",
"do c #c2cccc",
"dN c #c3cbcc",
"dv c #c3cccd",
"dk c #c4cbcd",
"ds c #c4cdce",
"dl c #c4cece",
"cA c #c5cccd",
"dh c #c5ccce",
"cm c #c6cdce",
"di c #c6cfd0",
"dp c #c6d0d0",
"b9 c #c7cecf",
"df c #c8ced0",
"c3 c #c9d1d2",
"dm c #c9d2d2",
"bQ c #cad0d2",
"c7 c #cad2d3",
"dj c #cad3d3",
"bz c #cbd1d2",
"dd c #cbd3d4",
"da c #ccd2d3",
"bk c #ccd3d4",
"bb c #cdd2d3",
"db c #cdd5d5",
"dg c #ced4d5",
"bg c #cfd5d6",
"d. c #cfd7d7",
"de c #cfd7d8",
"dw c #d0d7d7",
"dc c #d1d8d8",
"c6 c #d1d8d9",
"c2 c #d3dadb",
"d# c #d4dadb",
"cx c #d5dbdb",
"cK c #d6dcdd",
"cw c #d8dede",
"ci c #dae0e0",
"b8 c #dce2e2",
"bP c #dee3e4",
"by c #e0e5e5",
"ba c #e1e5e6",
"bj c #e2e7e7",
"bf c #e5e9e9",
"b# c #e7ebeb",
"a9 c #e9eced",
"a7 c #ebeeee",
"Qt.#.a.b.c.d.e.f.g.h.h.i.i.j.k.l.m.n.o.p.q.r.s.t.u.v.w.x.y.z.A.B.C.C.D.D.E.F.G.H.I.J.K.L.M.M.M.M.M.M.M.M.M.M.M.M.M.M.M.M.M.M.M.M",
"Qt.#.a.b.c.d.e.f.g.h.h.i.i.j.k.l.m.n.o.N.O.P.Q.t.u.R.S.T.U.z.A.V.W.X.Y.E.Z.0.1.H.2.3.4.L.M.M.M.M.M.M.M.M.M.M.M.M.M.M.M.M.M.M.M.M",
".5.#.a.b.c.d.e.f.g.h.h.i.i.j.k.l.m.n.6.7.8.9#.###a#b#c#d#e#f.C#g#h#i#j#k#l#m#n#o#p#q#r.L.M.M.M.M.M.M.M.M.M.M.M.M.M.M.M.M.M.M.M.M",
"#s.#.a.b.c.d.e.f.g.h.h.i.i.j.k.l.m.n.9#t#u#v#w#x#y#z#A#B#e#C.A#g#D#E#F#G.E#H#I#J#K#L.K.L.M.M.M.M.M.M.M.M.M.M.M.M.M.M.M.M.M.M.M.M",
"#M.#.a.b.c.d.e.f.g.h.h.i.i.j.k.l.m#N#O#P.q.r.s.t#h#Q.u.x#R#S#T#g#b#U#j#V.E#W#X#Y#Z.J.K.L#0#1#1#1.M.M.M.M.M.M.M.M.M.M.M.M.M.M.M.M",
"#2.#.a.b.c.d.e.f.g.h.h.i.i.j.k.l.m.l#3#4#5#6#7#8#7.8#9.ua.#ga##g#Iaaabac.E.Fad#Yae.J.K.Laf#1#1#1.M.M.M.M.M.M.M.M.M.M.M.M.M.M.M.M",
"#2.#.a.b.c.d.e.f.g.h.h.i.i.j.k.l.m.nagah#4aiajakal#c#c#h#dam.C#g#D.C.D.D.E.Fan#Yao.J.K.Laf#1#1#1.M.M.M.M.M.M.M.M.M.M.M.M.M.M.M.M",
"#2.#.a.b.c.d.e.f.g.h.h.i.i.j.k.l.m.n.oapaqaras.t.uat#Vauav.x.Aawax.C.D.D.E.Faoayaz.J.K.LaA#1#1#1.M.M.M.M.M.M.M.M.M.M.M.M.M.M.M.M",
"#X.#.a.b.c.d.e.f.g.h.h.i.i.j.k.l.m.n.o.p.q.r.s.t.u.v.w.x.y.z.A.B.C.C.D.D.E.F.G.H.I.J.K.LaB#1#1#1.M.M.M.M.M.M.M.M.M.M.M.M.M.M.M.M",
"aCaDaEaFaGaGaGaHaIaJaJaJaJaKaLaMaMaNaOaPaQaQaQaRaSaTaUaVaVaWaXaXaYaYaZaZa0a1a2a3a4a4a5a6#0#1#1#1.M.M.M.M.M.M.M.M.M.M.M.M.M.M.M.M",
"a7a7a7a7a7a7a7a7a7a7a7a7a7a7a7a7a7a7a7a7a7a7a7a7a7a7a7a7a7a7a7a7a7a7a7a7a7a7a7a7a7a7a7a7a8#1#1#1.M.M.M.M.M.M.M.M.M.M.M.M.M.M.M.M",
"a9a9a9a9a9a9a9a9a9a9a9a9a9a9a9a9a9a9a9a9a9a9a9a9a9a9a9a9a9a9a9a9a9a9a9a9a9a9a9a9a9a9a9a9b.#1#1#1.M.M.M.M.M.M.M.M.M.M.M.M.M.M.M.M",
"b#b#b#b#b#b#b#b#b#b#b#b#b#b#b#babbbbbbbbbbbbbbbbbbbbbbbbbbbbbbbbbbbbbbbbbbbbbbbbbbbbbbbbbcbdbdbdbe.M.M.M.M.M.M.M.M.M.M.M.M.M.M.M",
"bfbfbfbfbfbfbfbfbfbfbfbfbfbfbfbgbhbhbhbhbhbhbhbhbhbhbhbhbhbhbhbhbhbhbhbhbhbhbhbhbhbhbhbhbhbhbhbhbhbhbhbhbhbhbhbhbhbhbhbi.M.M.M.M",
"bjbjbjbjbjbjbjbjbjbjbjbjbjbjbjbkbhbhbhbhbhbhbhbhbhbhbhbhbhbhbhbhbhbhbhblbmbnbhbhbhbobpbqbrbhbsbqbqbqbobhbtbubvbhbwbqbrbx.M.M.M.M",
"bybybybybybybybybybybybybybybybzbhbhbhbhbhbhbhbhbhbhbhbhbhbhbhbhbhbhbAbBbCbBbDbhbEbFbFbFbGbsbHbFbBbBbIbJbKbFbpbLbMbNbhbO.M.M.M.M",
"bPbPbPbPbPbPbPbPbPbPbPbPbPbPbPbQbhbhbhbhbhbhbhbhbhbhbhbhbhbhbhbhbhbRbFbSbTbDbUbsbMbVbWbXbFbYbHbFbZb0bFb1b2b3b4b5b6bsbhb7.M.M.M.M",
"b8b8b8b8b8b8b8b8b8b8b8b8b8b8b8b9bhbhbhbhbhbhbhbhbhbhbhbhbhbhbhbhbhbEbFc.bhbhbhblbFc#bhcabMcbbHbFcccdbMcebhcfbMbFbmbhbhcgchchchch",
"cicicjckclcicicicicicicicicicicmbhbhbhbhbhbhbhbhbhbhbhbhbhbhbhbhbhcebFb1bhcncocpcqcbbhcrbFcsbHbFbUbEctbhbhbhb6cubhbhbhcvchchchch",
"cwcxcybhczcwcwcwcwcwcwcwcwcwcwcAbhbhbhbhbhbhbhbhbhbhbhbhbhbhbhbhbhcBb3cCcDbFcEbvcFbFbGcGbMcHbHbFbZbhbhbhbhbhcIbFbhbhbhcJchchchch",
"cKcKcLbhcMcKcKcKcKcKcKcKcKcKcKcNbhbhbhbhbhbhbhbhbhbhbhbhbhbhbhbhbhbhcOcPcQcRcSbhcTcUcVcWcXbhcYcZbJbhbhbhbhbhc0c1bhbhbhcJchchchch",
"c2c2c2c3c2c2c2c2c2c2c2c2c2c2c2c4bhbhbhbhbhbhbhbhbhbhbhbhbhbhbhbhbhbhbhbhbhbhbhbhbhbhbhbhbhbhbhbhbhbhbhbhbhbhbhbhbhbhbhc5chchchch",
"c6c6c6c6c6c6c6c6c6c6c6c6c6c6c6c7c8c8c8c8c8c8c8c8c8c8c8c8c8c8c8c8c8c8c8c8c8c8c8c8c8c8c8c8c8c8c8c8c8c8c8c8c8c8c8c8c8c8c8c9chchchch",
"d.d.d.d.d.d.d.d.d.d.d.d.d.d.d.d#a9a9a9a9a9a9a9a9a9a9a9a9a9a9a9a9a9a9a9a9a9a9a9a9a9a9a9a9a9a9a9a9a9a9a9a9a9a9a9a9a9a9a9dachchchch",
"dbdbdbdbdbdbdbdbdbdbdbdbdbdbdbdcb#b#b#b#b#b#b#b#b#b#b#b#b#b#b#b#b#b#b#b#b#b#b#b#b#b#b#b#b#b#b#b#b#b#b#b#b#b#b#b#b#b#b#c3chchchch",
"dddddddddddddddddddddddddddddddebfbfbfbfbfbfbfbfbfbfbfbfbfbfbfbfbfbfbfbfbfbfbfbfbfbfbfbfbfbfbfbfbfbfbfbfbfbfbfbfbfbfbfdfchchchch",
"c3c3c3c3c3c3c3c3c3c3c3c3c3c3c3dgbjbjbjbjbjbjbjbjbjbjbjbjbjbjbjbjbjbjbjbjbjbjbjbjbjbjbjbjbjbjbjbjbjbjbjbjbjbjbjbjbjbjbjdhchchchch",
"didididididididididididididididjbybybybybybybybybybybybybybybybybybybybybybybybybybybybybybybybybybybybybybybybybybybydkchchchch",
"dldldldldldldldldldldldldldldldmbPbPbPbPbPbPbPbPbPbPbPbPbPbPbPbPbPbPbPbPbPbPbPbPbPbPbPbPbPbPbPbPbPbPbPbPbPbPbPbPbPbPbPdnchchchch",
"dodododododododododododododododpb8b8b8b8b8b8b8b8b8b8b8b8b8b8b8b8b8b8b8b8b8b8b8b8b8b8b8b8b8b8b8b8b8b8b8b8b8b8b8b8b8b8b8dqchchchch",
"drdrdrdrdrdrdrdrdrdrdrdrdrdrdrdscicicicicicicicicicicicicicicicicicicicicicicicicicicicicicicicicicicicicicicicicicicidtchchchch",
"dudududududududududududududududvcwdwdxb7b9cwcwcwcwcwcwcwcwcwcwcwcwcwcwcwcwcwcwcwcwcwcwcwcwcwcwcwcwcwcwcwcwcwcwcwcwcwcwdychchchch",
"dzdzdAdBdCdzdzdzdzdzdzdzdzdzdzdDcKdEbhbhdFcKcKcKcKcKcKcKcKcKcKcKcKcKcKcKcKcKcKcKcKcKcKcKcKcKcKcKcKcKcKcKcKcKcKcKcKcKcKclchchchch",
"dGdHdIbhdJdGdGdGdGdGdGdGdGdGdGdKc2dddLdMdNc2c2c2c2c2c2c2c2c2c2c2c2c2c2c2c2c2c2c2c2c2c2c2c2c2c2c2c2c2c2c2c2c2c2c2c2c2c2dOchchchch",
"dHdHdPbhdQdHdHdHdHdHdHdHdHdHdHdRc6c6c6c6c6c6c6c6c6c6c6c6c6c6c6c6c6c6c6c6c6c6c6c6c6c6c6c6c6c6c6c6c6c6c6c6c6c6c6c6c6c6c6dSchchchch",
"dTdTdTdUdTdTdTdTdTdTdTdTdTdTdTdVd.d.d.d.d.d.d.d.d.d.d.d.d.d.d.d.d.d.d.d.d.d.d.d.d.d.d.d.d.d.d.d.d.d.d.d.d.d.d.d.d.d.d.dWchchchch",
"dXdXdXdXdXdXdXdXdXdXdXdXdXdXdXdYdbdbdbdbdbdbdbdbdbdbdbdbdbdbdbdbdbdbdbdbdbdbdbdbdbdbdbdbdbdbdbdbdbdbdbdbdbdbdbdbdbdbdbdZchchchch",
"d0d0d0d0d0d0d0d0d0d0d0d0d0d0d0dTddddddddddddddddddddddddddddddddddddddddddddddddddddddddddddddddddddddddddddddddddddddd1chchchch",
"d2d2d2d2d2d2d2d2d2d2d2d2d2d2d2d3c3c3c3c3c3c3c3c3c3c3c3c3c3c3c3c3c3c3c3c3c3c3c3c3c3c3c3c3c3c3c3c3c3c3c3c3c3c3c3c3c3c3c3d4chchchch",
"d5d5d5d5d5d5d5d5d5d5d5d5d5d5d5d6dididididididididididididididididididididididididididididididididididididididididididid7chchchch",
"d8d8d8d8d8d8d8d8d8d8d8d8d8d8d8d9dldldldldldldldldldldldldldldldldldldldldldldldldldldldldldldldldldldldldldldldldldldle.chchchch",
"e#e#e#e#e#e#e#e#e#e#e#e#e#e#e#eadododododododododododododododododododododododododododododododododododododododododododoebchchchch",
"ecececececececececececececececeddrdrdrdrdrdrdrdrdrdrdrdrdrdrdrdrdrdrdrdrdrdrdrdrdrdrdrdrdrdrdrdrdrdrdrdrdrdrdrdrdrdrdreechchchch",
"efefefefefefefefefefefefefefefegdududududududududududududududududududududududududududududududududududududududududududuehchchchch",
"eieieieieieieieieieieieieieieiecdzdzdzdzdzdzdzdzdzdzdzdzdzdzdzdzdzdzdzdzdzdzdzdzdzdzdzdzdzdzdzdzdzdzdzdzdzdzdzdzdzdzdzejchchchch",
"ekekekekekekekekekekekekekekekeldGemeneoe.dGdGdGdGdGdGdGdGdGdGdGdGdGdGdGdGdGdGdGdGdGdGdGdGdGdGdGdGdGdGdGdGdGdGdGdGdGdGepchchchch",
"eqeqeqeqeqeqeqeqeqeqeqeqeqeqeqerdHesbhbhetdHdHdHdHdHdHdHdHdHdHdHdHdHdHdHdHdHdHdHdHdHdHdHdHdHdHdHdHdHdHdHdHdHdHdHdHdHdHeuchchchch",
"evevevevewewewewewewewewewewewexdTeyezeneAdTdTdTdTdTdTdTdTdTdTdTdTdTdTdTdTdTdTdTdTdTdTdTdTdTdTdTdTdTdTdTdTdTdTdTdTdTdTeBchchchch",
".M.M.M.MeC#1#1#1#1#1#1#1#1#1#1eDdXdXdXdXdXdXdXdXdXdXdXdXdXdXdXdXdXdXdXdXdXdXdXdXdXdXdXdXdXdXdXdXdXdXdXdXdXdXdXdXdXdXdXeEchchchch",
".M.M.M.MeC#1#1#1#1#1#1#1#1#1#1eFd0d0d0d0d0d0d0d0d0d0d0d0d0d0d0d0d0d0d0d0d0d0d0d0d0d0d0d0d0d0d0d0d0d0d0d0d0d0d0d0d0d0d0eGchchchch",
".M.M.M.MeC#1#1#1#1#1#1#1#1#1#1eHd2d2d2d2d2d2d2d2d2d2d2d2d2d2d2d2d2d2d2d2d2d2d2d2d2d2d2d2d2d2d2d2d2d2d2d2d2d2d2d2d2d2d2eIchchchch",
".M.M.M.M.M.M.M.M.M.M.M.M.M.M.M.Md5d5d5d5d5d5d5d5d5d5d5d5d5d5d5d5d5d5d5d5d5d5d5d5d5d5d5d5d5d5d5d5d5d5d5d5d5d5d5d5d5d5d5eJchchchch",
".M.M.M.M.M.M.M.M.M.M.M.M.M.M.M.Md8d8d8d8d8d8d8d8d8d8d8d8d8d8d8d8d8d8d8d8d8d8d8d8d8d8d8d8d8d8d8d8d8d8d8d8d8d8d8d8d8d8d8eKchchchch",
".M.M.M.M.M.M.M.M.M.M.M.M.M.M.M.Me#e#e#e#e#e#e#e#e#e#e#e#e#e#e#e#e#e#e#e#e#e#e#e#e#e#e#e#e#e#e#e#e#e#e#e#e#e#e#e#e#e#e#eLchchchch",
".M.M.M.M.M.M.M.M.M.M.M.M.M.M.M.MecececececececececececececececececececececececececececececececececececececececececececeMchchchch",
".M.M.M.M.M.M.M.M.M.M.M.M.M.M.M.MefefefefefefefefefefefefefefefefefefefefefefefefefefefefefefefefefefefefefefefefefefefeNchchchch",
".M.M.M.M.M.M.M.M.M.M.M.M.M.M.M.MeieieieieieieieieieieieieieieieieieieieieieieieieieieieieieieieieieieieieieieieieieieieOchchchch",
".M.M.M.M.M.M.M.M.M.M.M.M.M.M.M.MekekekekekekekekekekekekekekekekekekekekekekekekekekekekekekekekekekekekekekekekekekekePchchchch",
".M.M.M.M.M.M.M.M.M.M.M.M.M.M.M.MeqeqeqeqeqeqeqeqeqeqeqeqeqeqeqeqeqeqeqeqeqeqeqeqeqeqeqeqeqeqeqeqeqeqeqeqeqeqeqeqeqeqeqeQchchchch",
".M.M.M.M.M.M.M.M.M.M.M.M.M.M.M.MeveveveveveveveveveveveveveveveveveveveveveveveveveveveveveveveveveveveveveveveveveveveRchchchch",
".M.M.M.M.M.M.M.M.M.M.M.M.M.M.M.MeSeSeSeTeUeUeUeUeUeUeUeUeUeUeUeUeUeUeUeUeUeUeUeUeUeUeUeUeUeUeUeUeUeUeUeUeUeUeUeUeUeUeUeVchchchch",
".M.M.M.M.M.M.M.M.M.M.M.M.M.M.M.M.M.M.M.Mchchchchchchchchchchchchchchchchchchchchchchchchchchchchchchchchchchchchchchchchchchchch",
".M.M.M.M.M.M.M.M.M.M.M.M.M.M.M.M.M.M.M.Mchchchchchchchchchchchchchchchchchchchchchchchchchchchchchchchchchchchchchchchchchchchch",
".M.M.M.M.M.M.M.M.M.M.M.M.M.M.M.M.M.M.M.Mchchchchchchchchchchchchchchchchchchchchchchchchchchchchchchchchchchchchchchchchchchchch"};
