/* XPM */
static char *dummy[]={
"32 32 167 2",
"Qt c None",
"#S c #252f2f",
"#M c #273131",
"#D c #2a3434",
"#x c #2c3636",
"#w c #2d3737",
"#q c #2f3939",
"#l c #313b3b",
"#k c #323c3c",
"#d c #343e3e",
"## c #364040",
"#. c #374141",
".6 c #394343",
".5 c #3a4444",
".0 c #3c4646",
".W c #3e4848",
".V c #3f4949",
".P c #414b4b",
".K c #444e4e",
".Q c #454f4f",
".C c #465050",
".L c #4b5555",
".D c #505959",
".# c #505a5a",
"#1 c #535d5d",
"#8 c #555e5e",
".x c #576060",
"#e c #596161",
".i c #5a6464",
".d c #5d6767",
".a c #5f6969",
"#m c #606868",
"#9 c #616a6a",
"ae c #636c6c",
".J c #656d6d",
"ag c #666f6f",
"#P c #667070",
"#H c #667171",
"#u c #677171",
"#r c #686f6f",
"#h c #687272",
".2 c #697373",
"#2 c #697575",
"aj c #6a7373",
".S c #6a7474",
"#7 c #6a7575",
".F c #6b7575",
"#L c #6d7474",
".z c #6f7979",
"#y c #727878",
"#Y c #757c7c",
".t c #757f7f",
"#R c #767d7d",
"am c #767e7e",
".n c #767f7f",
"af c #7b8282",
"ar c #7b8383",
"#E c #7d8383",
"ak c #7d8585",
"an c #808888",
".b c #808989",
"ax c #818b8b",
".c c #828b8b",
"ay c #828c8c",
"aq c #838b8b",
"ao c #848d8d",
"ap c #848e8e",
"aw c #858e8e",
"az c #858f8f",
"#N c #888e8e",
"av c #898f8f",
".7 c #8b9292",
".I c #8b9393",
".B c #8c9494",
"au c #8d9393",
".w c #8f9797",
"ah c #909b9b",
"ai c #919c9c",
"aA c #929898",
"#a c #929999",
"#T c #969b9b",
".1 c #969e9e",
"a. c #9ca7a7",
".X c #9fa7a7",
".r c #a1a8a8",
"#Z c #a3a7a7",
"a# c #a3adad",
"#C c #a6aeae",
".R c #a8b0b0",
"#p c #a9b1b1",
"#j c #abb3b3",
"#3 c #abb5b5",
"#c c #acb6b6",
"aa c #adb7b7",
".9 c #aeb6b6",
"al c #afb3b3",
".4 c #afb8b8",
".M c #b0b8b8",
"ab c #b0baba",
"as c #b1b5b5",
".Z c #b1baba",
"ac c #b1bbbb",
"#4 c #b3bdbd",
".U c #b4bcbc",
"#W c #b4bfbf",
".O c #b5bdbd",
"#X c #b5bfbf",
"#Q c #b6c0c0",
".E c #b7bfbf",
"#V c #b7c1c1",
"#I c #b8c2c2",
"#B c #bac4c4",
"ad c #bcc5c5",
"#v c #bcc6c6",
".y c #bdc5c5",
"#G c #bec7c7",
"#o c #bec8c8",
"#i c #c0caca",
"#A c #c1caca",
".H c #c1cbcb",
"#b c #c2cccc",
".s c #c3cbcb",
".8 c #c3cdcd",
"at c #c4c7c7",
"#t c #c5cece",
".3 c #c5cfcf",
"aB c #c7caca",
".Y c #c7d1d1",
"#K c #c9cbcb",
"#J c #c9cccc",
"#g c #c9d2d2",
".T c #c9d3d3",
".g c #cad0d0",
".N c #cbd5d5",
"#5 c #ccd1d1",
".G c #cdd7d7",
".A c #cfd9d9",
".v c #d0dada",
".q c #d2dcdc",
".u c #d4dddd",
".e c #d5dada",
".p c #d5dede",
"aF c #d8dbdb",
"aE c #d9dada",
"aD c #d9dbdb",
"aG c #dadcdc",
"aH c #dadddd",
"aI c #dbdddd",
"aJ c #dbdede",
"#6 c #dbe0e0",
"aC c #dee0e0",
".m c #dee6e6",
".l c #dfe6e6",
"aK c #e0e1e1",
"#0 c #e1e5e5",
".o c #e2e9e9",
".k c #e3eaea",
"#U c #e6e9e9",
"#f c #e8e9e9",
"#O c #eaeded",
".j c #eaefef",
"#n c #ebeded",
"#F c #eceeee",
"#z c #edefef",
"#s c #edf0f0",
".h c #f1f4f4",
".f c #f6f8f8",
"QtQtQtQtQtQtQtQtQtQtQtQtQtQtQtQtQtQtQtQtQtQtQtQtQtQtQtQtQtQtQtQt",
"QtQtQtQtQtQtQtQtQtQtQtQtQtQtQtQtQtQtQtQtQtQtQtQtQtQtQtQtQtQtQtQt",
"QtQt.#.#.#.#.#.#.#.#.#.#.#.#.#.#.#.#.#.#.#.#.#.#.#.#.#.#.#.#QtQt",
"Qt.#.#.#.a.b.c.c.c.c.c.c.c.c.c.c.c.c.c.c.c.c.c.c.c.c.b.a.#.#.#Qt",
".#.#.d.e.f.f.f.f.f.f.f.f.f.f.f.f.f.f.f.f.f.f.f.f.f.f.f.f.e.d.#.#",
".#.#.g.h.h.h.h.h.h.h.h.h.h.h.h.h.h.h.h.h.h.h.h.h.h.h.h.h.h.g.#.#",
".#.i.j.j.k.l.m.m.m.m.m.m.m.m.m.m.m.m.m.m.m.m.m.m.m.m.l.k.j.j.i.#",
".#.n.o.p.q.q.q.q.q.q.q.q.q.q.q.q.r.s.q.q.q.q.q.q.q.q.q.q.p.o.n.#",
".#.t.u.v.v.v.v.v.v.v.v.v.v.v.v.v.w.x.y.v.v.v.v.v.v.v.v.v.v.u.t.#",
".#.z.A.A.A.A.A.A.A.A.A.A.A.A.A.A.B.C.D.E.A.A.A.A.A.A.A.A.A.A.z.#",
".#.F.G.G.G.G.G.H.I.I.I.I.I.I.I.I.J.K.K.L.M.G.G.G.G.G.G.G.G.G.F.#",
".#.F.N.N.N.N.N.O.P.P.P.P.P.P.P.P.P.P.P.P.Q.R.N.N.N.N.N.N.N.N.F.#",
".#.S.T.T.T.T.T.U.V.V.V.V.V.V.V.V.V.W.W.W.W.V.X.T.T.T.T.T.T.T.S.#",
".#.S.Y.Y.Y.Y.Y.Z.0.0.0.0.0.0.0.0.0.0.0.0.0.0.0.1.Y.Y.Y.Y.Y.Y.S.#",
".#.2.3.3.3.3.3.4.5.5.5.5.5.6.6.6.6.6.6.6.6.6.6.6.7.3.3.3.3.3.2.#",
".#.2.8.8.8.8.8.9#.#.#.#.#.#.#.#.#.#.#.#.#.#.#.#.###a.8.8.8.8.2.#",
".#.2#b#b#b#b#b#c#d#d#d#d#d#d#d#d#d#d#d#d#d#d#d#d#e#f#g#b#b#b.2.#",
".##h#i#i#i#i#i#j#k#k#k#k#k#k#k#k#k#k#k#l#l#l#l#m#n#g#i#i#i#i#h.#",
".##h#o#o#o#o#o#p#q#q#q#q#q#q#q#q#q#q#q#q#q#q#r#s#t#o#o#o#o#o#h.#",
".##u#v#v#v#v#v.R#w#w#w#w#w#w#w#x#x#x#x#x#x#y#z#A#v#v#v#v#v#v#u.#",
".##u#B#B#B#B#B#C#D#D#D#D#D#D#D#D#D#D#D#D#E#F#G#B#B#B#B#B#B#B#u.#",
".##H#I#I#I#I#I#G#J#J#K#K#K#K#K#K#L#M#M#N#O#B#I#I#I#I#I#I#I#I#H.#",
".##P#Q#Q#Q#Q#Q#Q#Q#Q#Q#Q#Q#Q#Q#Q#R#S#T#U#V#Q#Q#Q#Q#Q#Q#Q#Q#Q#P.#",
".##h#W#X#X#X#X#X#X#X#X#X#X#X#X#X#Y#Z#0#X#X#X#X#X#X#X#X#X#X#W#h.#",
"#1#2#3#4#4#4#4#4#4#4#4#4#4#4#4#4#5#6#4#4#4#4#4#4#4#4#4#4#4#3#7#8",
"#9#ua.a#aaabacacacacacacacacacacadacacacacacacacacacabaaa#a..2ae",
"afagahaiaiaiaiaiaiaiaiaiaiaiaiaiaiaiaiaiaiaiaiaiaiaiaiaiaiahajak",
"alamanaoapapapapapapapapapapapapapapapapapapapapapapapapaoaqaras",
"Qtatauavawaxaxaxaxaxaxaxaxaxaxaxaxaxaxaxax.c.c.c.c.cayazauaAaBQt",
"QtQtaCaDaEaFaFaFaDaDaDaDaDaDaDaGaGaGaGaGaGaGaHaHaIaIaIaIaJaKQtQt",
"QtQtQtQtQtQtQtQtQtQtQtQtQtQtQtQtQtQtQtQtQtQtQtQtQtQtQtQtQtQtQtQt",
"QtQtQtQtQtQtQtQtQtQtQtQtQtQtQtQtQtQtQtQtQtQtQtQtQtQtQtQtQtQtQtQt"};
