/* XPM */
static char *dummy[]={
"64 64 289 2",
"Qt c None",
".# c #323737",
"cw c #343939",
"cA c #343a3a",
".h c #353a3a",
".e c #373c3c",
"cu c #3c4242",
".x c #434949",
"c# c #454f4f",
"aC c #485252",
"aN c #495353",
"cC c #4a5050",
"c. c #4a5454",
"bN c #4b5555",
"au c #4c5656",
"bg c #4e5858",
"aO c #4f5959",
"bM c #505959",
"al c #505a5a",
"#u c #515454",
"bL c #515b5b",
"am c #535d5d",
"ab c #545e5e",
"bo c #555f5f",
"ak c #565f5f",
"bI c #566060",
"ac c #576161",
"bf c #586262",
"cs c #596060",
"b9 c #596363",
"av c #5a6464",
"#Z c #5b6565",
".a c #5c6262",
"#Y c #5c6666",
"a9 c #5c6767",
"aL c #5d6767",
"#0 c #5e6868",
"a6 c #5e6969",
"cv c #5f6767",
"b1 c #5f6969",
"bE c #606a6a",
"cD c #616969",
"aA c #616b6b",
"cg c #616c6c",
"#1 c #626c6c",
"a2 c #636d6d",
"bY c #646e6e",
"bD c #656e6e",
"ad c #656f6f",
"#M c #667070",
"aK c #677171",
"bR c #677272",
"as c #687272",
"#j c #696e6e",
"#N c #697373",
"aB c #6a7474",
"cr c #6b7373",
"bb c #6b7474",
"aM c #6b7575",
"an c #6c7676",
"cB c #6d7575",
"a1 c #6d7676",
"#O c #6d7777",
"a4 c #6e7878",
"bz c #6f7878",
"ai c #6f7979",
".D c #707777",
"#L c #707a7a",
"bU c #707b7b",
"bx c #717a7a",
"#P c #717b7b",
"af c #727c7c",
"ce c #727d7d",
"bX c #737c7c",
"aJ c #737d7d",
"b0 c #737e7e",
"#Q c #747e7e",
"bO c #747f7f",
"cb c #757e7e",
"bq c #757f7f",
"cn c #758080",
"b8 c #767f7f",
"#X c #768080",
"cE c #777f7f",
"bP c #778080",
"ae c #778181",
"aP c #778282",
"at c #788181",
"#2 c #788282",
"cc c #788383",
"#I c #798383",
"b3 c #798484",
"bt c #7a8383",
"#J c #7a8484",
"bC c #7b8484",
"#3 c #7b8585",
"bm c #7b8686",
"aH c #7c8585",
"aI c #7c8686",
".s c #7d8484",
"cq c #7d8686",
"bu c #7d8787",
"cx c #7e8787",
"ag c #7e8888",
"#z c #7f8989",
"aD c #7f8a8a",
"aw c #808989",
"#7 c #808a8a",
"bl c #808b8b",
"a# c #818b8b",
"ca c #818c8c",
"#9 c #828b8b",
"#4 c #828c8c",
"ax c #838d8d",
"aV c #838e8e",
"bw c #838f8f",
"#p c #848c8c",
"aj c #848d8d",
"#A c #848e8e",
".b c #858d8d",
"aG c #858e8e",
"#6 c #858f8f",
"aE c #859090",
"bn c #868f8f",
"#y c #869090",
"a. c #869191",
"bJ c #879090",
"#U c #879191",
"#a c #889090",
"cj c #889191",
"#5 c #889292",
"bA c #889393",
"by c #899292",
"#B c #899393",
"b6 c #899494",
"bQ c #8a9393",
"b7 c #8a9494",
"aF c #8a9595",
".I c #8b9393",
"cf c #8b9494",
"a7 c #8b9595",
"br c #8c9595",
"aS c #8c9696",
"aR c #8c9797",
"bp c #8d9696",
"ao c #8d9797",
"#8 c #8d9898",
"#V c #8e9797",
"#K c #8e9898",
"bT c #8e9999",
"b5 c #8f9898",
"#C c #8f9999",
"bH c #909999",
"ap c #909a9a",
"bB c #909b9b",
"bs c #919b9b",
"aY c #929b9b",
"#H c #929c9c",
"bS c #939c9c",
".o c #939d9d",
"bV c #939e9e",
"#R c #949d9d",
".n c #949e9e",
"bG c #959e9e",
".v c #959f9f",
"cl c #95a0a0",
"#D c #969f9f",
".B c #96a0a0",
"aQ c #97a0a0",
".G c #97a1a1",
"#T c #97a2a2",
".f c #98a0a0",
"bv c #98a1a1",
".L c #98a2a2",
"cd c #98a3a3",
"a3 c #99a2a2",
".P c #99a3a3",
"bW c #99a4a4",
".C c #9aa3a3",
".p c #9aa4a4",
"b2 c #9aa5a5",
".A c #9ba4a4",
".m c #9ba5a5",
"be c #9ca5a5",
".W c #9ca6a6",
"b# c #9da6a6",
".Z c #9da7a7",
"#r c #9ea7a7",
".X c #9ea8a8",
"#x c #9ea9a9",
"aZ c #9fa8a8",
".V c #9fa9a9",
"aa c #9faaaa",
".9 c #a0aaaa",
"#s c #a0abab",
"aT c #a1aaaa",
"#g c #a1abab",
".w c #a1acac",
"ay c #a2abab",
"#o c #a2acac",
".u c #a2adad",
"aq c #a3acac",
".7 c #a3adad",
"aX c #a3aeae",
"ah c #a4adad",
"#f c #a4aeae",
"bZ c #a4afaf",
".M c #a5aeae",
"#W c #a5afaf",
".8 c #a6afaf",
"#E c #a6b0b0",
"#S c #a6b1b1",
".T c #a7b0b0",
".S c #a7b1b1",
"aW c #a7b2b2",
"#v c #a8b1b1",
"ar c #a8b2b2",
".q c #a9b2b2",
".2 c #a9b3b3",
".H c #a9b4b4",
".c c #aab3b3",
".F c #aab4b4",
"#. c #abb4b4",
"#i c #abb5b5",
".0 c #acb5b5",
".6 c #acb6b6",
"b. c #acb7b7",
".Y c #adb6b6",
"a0 c #adb7b7",
".U c #aeb7b7",
"a5 c #aeb8b8",
".Q c #afb8b8",
".O c #afb9b9",
"bc c #b0b9b9",
"#h c #b0baba",
"ci c #b0bbbb",
"#e c #b1bbbb",
".i c #b2bbbb",
"bd c #b2bcbc",
".3 c #b2bdbd",
"bi c #b3bdbd",
"bk c #b3bebe",
"bF c #b4bdbd",
"#b c #b4bebe",
"#n c #b5bfbf",
"bj c #b6bfbf",
"ba c #b6c0c0",
".d c #b7c0c0",
"a8 c #b7c1c1",
".r c #b8c2c2",
".l c #b9c3c3",
"bh c #b9c4c4",
"#m c #bac4c4",
"b4 c #bbc4c4",
"aU c #bbc5c5",
"ct c #bbc6c6",
"ck c #bcc5c5",
"#l c #bcc6c6",
"cy c #bcc7c7",
"bK c #bdc6c6",
"az c #bdc7c7",
".4 c #bec8c8",
"cp c #bfc8c8",
"#t c #bfc9c9",
"#G c #c0caca",
".K c #c1cbcb",
".5 c #c2cccc",
"#c c #c3cdcd",
"#w c #c4cece",
"#q c #c5cfcf",
"co c #c5d0d0",
"cm c #c6cfcf",
"ch c #c6d0d0",
"#F c #c6d1d1",
"#d c #c7d1d1",
"## c #c8d2d2",
".1 c #c9d3d3",
".y c #cad4d4",
".t c #cbd5d5",
".R c #ccd6d6",
"#k c #cdd7d7",
".N c #ced8d8",
".J c #cfd9d9",
".E c #d0dada",
".z c #d1dbdb",
".k c #d2dcdc",
"cz c #d3dddd",
".j c #d4dede",
".g c #d5dfdf",
"QtQtQtQtQtQt.#.#.#.#.#.#.#.#.#.#.#.#.#.#.#.#.#.#.#.#.#.#.#.#.#.#.#.#.#.#.#.#.#.#.#.#.#.#.#.#.#.#.#.#.#.#.#.#.#.#.#.#QtQtQtQtQtQt",
"QtQtQtQt.#.#.#.#.#.#.#.#.#.#.#.#.#.#.#.#.#.#.#.#.#.#.#.#.#.#.#.#.#.#.#.#.#.#.#.#.#.#.#.#.#.#.#.#.#.#.#.#.#.#.#.#.#.#.#.#QtQtQtQt",
"QtQtQt.#.#.#.a.b.c.d.d.d.d.d.d.d.d.d.d.d.d.d.d.d.d.d.d.d.d.d.d.d.d.d.d.d.d.d.d.d.d.d.d.d.d.d.d.d.d.d.d.d.d.d.d.c.b.a.#.#.#QtQtQt",
"QtQt.#.#.e.f.g.g.g.g.g.g.g.g.g.g.g.g.g.g.g.g.g.g.g.g.g.g.g.g.g.g.g.g.g.g.g.g.g.g.g.g.g.g.g.g.g.g.g.g.g.g.g.g.g.g.g.g.f.e.#.#QtQt",
"QtQt.#.h.i.j.j.k.l.c.m.n.n.n.n.n.o.o.o.o.o.o.o.o.o.o.o.o.o.o.o.o.o.o.o.o.o.o.o.o.o.o.o.o.o.o.o.o.o.o.o.o.o.p.q.r.k.j.j.i.h.#QtQt",
"Qt.#.#.s.k.k.t.u.v.v.v.v.v.v.v.v.v.v.v.v.v.v.v.v.v.v.v.n.n.n.n.n.n.n.n.n.n.n.n.n.n.n.n.n.n.n.n.n.n.n.n.n.n.n.n.n.w.t.k.k.s.#.#Qt",
"Qt.#.x.y.z.y.A.B.B.B.B.B.B.B.B.B.B.B.B.B.B.B.B.B.B.B.B.B.B.B.B.B.B.B.B.B.B.B.B.B.B.B.B.B.B.v.v.v.v.v.v.v.v.v.v.v.v.C.y.z.y.x.#Qt",
".#.#.D.E.E.F.G.G.G.G.G.G.G.G.G.G.G.G.G.G.G.G.G.G.G.G.G.G.G.G.G.G.G.G.G.G.G.G.G.G.G.G.G.G.G.G.G.G.G.G.G.G.G.G.G.G.G.B.H.E.E.D.#.#",
".#.#.I.J.K.L.L.L.L.L.L.L.L.L.L.L.L.L.L.L.L.L.L.L.L.L.L.L.L.L.L.L.L.L.L.L.L.L.L.L.L.L.L.L.L.L.L.L.L.L.L.L.L.L.L.L.L.L.L.K.J.I.#.#",
".#.#.M.N.O.P.P.P.P.P.P.P.P.P.P.P.P.P.P.P.P.P.P.P.P.P.P.P.P.P.P.P.P.P.P.P.P.P.P.P.P.P.P.P.P.P.P.P.P.P.P.P.P.P.P.P.P.P.P.O.N.M.#.#",
".#.#.Q.R.S.m.m.m.m.m.m.m.p.p.p.p.p.p.p.p.p.p.p.p.p.p.p.p.p.p.p.p.p.p.p.p.p.p.p.p.p.p.p.p.p.p.p.p.p.p.p.p.p.p.p.p.p.p.p.T.R.Q.#.#",
".#.#.U.t.V.W.W.W.W.W.W.W.W.W.W.W.W.W.W.W.W.W.W.W.m.m.m.m.m.m.m.m.m.m.m.m.m.m.m.m.m.m.m.m.m.m.m.m.m.m.m.m.m.m.m.m.m.m.m.X.t.U.#.#",
".#.#.Y.y.Z.Z.Z.Z.Z.Z.Z.Z.Z.Z.Z.Z.Z.Z.Z.Z.Z.Z.Z.Z.Z.Z.Z.X.Z.Z.Z.Z.Z.Z.Z.Z.W.W.W.W.W.W.W.W.W.W.W.W.W.W.W.W.W.W.W.W.W.W.W.W.y.Y.#.#",
".#.#.0.1.X.X.X.X.X.X.X.X.X.X.X.X.X.X.X.X.X.X.X.X.X.2.3.l.4.5.6.X.X.X.X.X.X.X.7.8.7.9.Z.X.X.X.X.Z.Z.Z.Z.Z.Z.Z.Z.Z.Z.Z.Z.Z.1.0.#.#",
".#.##.##.V.V.V.V.V.V.V.V.V.V.V.V.V.V.V.V.V.V.V.V#a.O#b.l.4#c#d#e#f#g.V.V.V.F#b#h#i.S#g.W.V.V.V.V.V.V.V.V.V.V.V.V.V.V.V.V###..#.#",
".#.#.F#d.9.9.9.9.9.9.9.9.9.9.9.9.9.9.9.9.9.9.9.9#j.O#b.l.4#c###k.z#k#d.K#l#m#n#h#i.S#o#p.9.9.9.9.9.9.9.9.9.9.9.9.9.9.9.9#d.F.#.#",
".#.#.q#q#g#g#g#g#g#g#g#g#g#g#g.B.G#r#g#g#g#s#s#f.2#h#b.l.4#c###k.z#k###c#t#m#n#h#i.S#o#u#g#g#g#g#g#g#g#g#g#g#g#g#g#g#g#g#q.q.#.#",
".#.##v#w.7.7.7.7.7.7.7.7.7#x#y#z#A#B#C#D.p.W#g#E#i#h#b.l.4#c#q#F#d#G#t.5#t#m#n#h#i.S#o.C.W.9#o#o#o#o#o#o#o#o#o#o#o#o#o#o#w#v.#.#",
".#.#.T#c#f#f#f#f#f#f#f#f#H#I#J#z#A#B#K#H.G.W#g#E#i#h.3#v#C#L#M#N#O#P#Q#J#y#R#S.O#i.S#o.Z.L.o#T.P.n#K#U#V.7.7.7.7.7.7.7.7#c.T.#.#",
".#.#.8.5#W#W#W#W#W#W#W#C#I#X#J#z#A#B#K#H.G.W#g#E.F#V#Y#Z#0#1#M#N#O#L#Q#2#3#z#4#5.P#W#o.Z.L.o#K#B#6#7#3#X#4#o#f#f#f#f#f#f.5.8.#.#",
".#.#.8.K#E#E#E#E#E#E#E#8#X#9a.a##A#B#K.o.G.W#gaa#Mabac#Z#0#1ad#N#O#L#Qae#3#z#4#y#B#K.V.Z.L.o#K#B#6#7#3#Xafag#f#E#W#W#W#W.K.8.#.#",
".#.#ah#t.S.S.S.S.S.S.S#Hai#2#7aj#A#B#K.o.G.W.9akalamac#Z#0#1ad#Nan#L#Qae#3ag#4#y#Baoap.G.L.o#K#B#6#7#3#X#I#J.n.S.S.S.S.S#tah.#.#",
".#.#aq.4ararararararar.Pas#P#I#z#A#B#K.o.G.Wataualamacav#0#1ad#Nan#L#Qae#3ag#4#6#Baoap.v.L.o#K#B#6#7awax#I#O.Pararararar.4aq.#.#",
".#.#ayaz.F.F.F.F.F.F.F#gaAaB#I#z#A#B#K.o.G.maCaualamacav#0#N#2aDaEaFaG#zaHag#4#6#Baoap.n.C.o#K#B#6#7aI#zaJaK.7.2.2.2.2.2azay.#.#",
".#.#ay#l#i#i#i#i#i#i#i.FaLaM#J#z#A#B#K.o.G.WaNauaOamavaPaQ.2.F.F.F.F.F.F.2.ZaR#6#BaSap.n.C.o#K#B#6#7#3#2#Oad.F.F.F.F.F.F#lay.#.#",
".#.#aTaU.6.6.6.6#W.oaVae#P#X#J#z#A#B#K.o.G.WaOauaO#IaW.6.6.6.6.6.6.6#i#i#i#i#iaXaYaSap.o.p.o#K#B#6#7#3#Q#M#N#i#i#i#i#i#iaUaT.#.#",
".#.#aZ.la0a0a0a1#0a2aKan#P#X#J#z#A#B#K.o.G.W#yau#7a0a0a0a0a0a0a0a0a0a0a0a0a0a0a0.6#Tap.oa3.o#K#B#6#7#3#Xaia4#o.6.6.6.6.6.laZ.#.#",
".#.##r.ra5a5a5a6#0a2aKan#P#X#J#z#A#B#K.o.G.WaT#Ha5a5a5a5a5a5a5a5a5a5a5a5a5a5a5a5a5a5.W.W.L.o#K#B#6#7#3#Xaf#Oasafa7a5a5a5.r#r.#.#",
".#.#.Za8.O.O.Oa9#0a2aKan#P#X#J#z#A#B#K.o.G.W#g#Eb..Q.O.O.O.O.O.O.O.O.O.O.O.O.O.O.Oa5#f.Z.L.o#K#B#6#7#3#Xaf#Oasa2as.O.O.Oa8.Z.#.#",
".#.#b#ba#h#h#hbb#0a2aKan#P#X#J#z#A#B#K.o.G.W#g#E#ibcbd#h#h#h#h#h#h#h#h#h#h#h#h.Ob.#E#o.Z.L.o#K#B#6#7#3#Xaf#Oasa2ai#h#h#hbab#.#.#",
".#.#be#nbdbdbd#XaAaB#OaMaAbfbgaS#A#B#K.o.G.W#g#E#i#h#n.r.l#mbha8bi#bbj.da8bjbk#h#i#E#o.Z.L.o#K#B#6bl#3#Xaf#Oasa2bm#e#e#e#nbe.#.#",
".#.#.CbibibibibnaJ#OaKaA#ZboaOaoao#B#K.o.G.W#g#E#i#h#n.l.4#c###k.k#k###c#t#m#n#h#i#E#g.Z.L.o#K#B#Ubp#O#X#JaIbqaK#7bdbdbdbi.C.#.#",
".#.#a3bd#b#b#bbr#IaJ#OaKaA#Zboaj#ybs#K.o.L.W#g#E#i#h#n.l.4#c###k.k#k###c#t#m#n#h#i#E#g.Z.L.o#KaS#8a#aK#P#JaxaSap#Vbibibibda3.#.#",
".#.#a3#e#n#n#nap#z#IaJ#OaKaA#Zbt#Ja#ao#R.L.W#g#E#i#h#n.l.4#c###k.k#k###c#t#m#n#h#i#E#g.Z.L#H.oa#agat#1aM#Qbu#U#B.p#b#b#b#ea3.#.#",
".#.#bv#hbababa.Gbw#z#IaJ#OaKaAbxa4bqby.o.L.W#g#E#i#h#n.l.4#c###k.k#k###c#t#m#n#h#i#E#g.Z.LaQ#QaJaJbz#Yadai#2a#axarbababa#hbv.#.#",
".#.#aQ.Oa8a8a8#WbA#6#z#IaJ#OaK#N#1anbB.o.L.W#g#E#i#h#n.l.4#c###k.k#k###c.4#m#n#h#i#E#g.Z.L.obCaKaKbDacbE#Naf#3aDbFa8a8a8.OaQ.#.#",
".#.#bGa0.l.l.la8bHa7#6#z#2afana2bIbJ#K.o.L.W#g#E#i#h#n.laU.K#F#k.k#k#d.KbK#m#n#h#i#E#g.Z.L.obB#Y#ZavbLava2#O#X#4.r.r.r.ra0bG.#.#",
".#.#bG.6#m#m#m#m.7.m.W.X#g#E.6#Wad#5#K.o.L.W#g#E#i#h#na0#I.n#CaSa7#AaIae#2.l#n#h#i#E#g.Z.L.o#KaJaObMbNbo#0aK#L#V.l.l.l.l.6bG.#.#",
".#.##R#iaUaUaUaUaUaUaUaUaUaUaU.laF#B#K.o.L.W#g#E#i#ha0abbO#K#B#A#z#Jbq#L#ObP#b#h#i#E#g.Z.L.o#Kao#Qa8#gbQ#XbRaMaZ#m#m#m#m#i#R.#.#",
".#.#bS.F#l#l#l#l#l#l#l#l#l#l#l.raS#HbT.o.L.W#g#E#i.6#0am#Q#5axag#I#QaiaBbUaObV#h#i#E#g.Z.L.o.n.L#n#l#laUaUaUa0baaUaUaUaU.FbS.#.#",
".#.#aY.2azazazazazazazazazazazazaV#5aobGbW.W#g#E.2aB#YacbX#4bu#2aJa4#NbYbOacal#E#i#E#g#r.V.L#Kaoa8azazazazazazazazazazaz.2aY.#.#",
".#.#ap.S.4.4.4.4.4.4.4.4.4.4.4.4#Aa##UaSbs.L#gbZb0#MaA#YaJ#3aeaf#Oasa2#0aPb1acav#E.V#Ha7#B#5#y#6.r.4.4.4.4.4.4.4.4.4.4.4.Sap.#.#",
".#.#bH#E#G#G#G#t#t#t#t#t#t#t#t#t#6#3#7#6a7ap.Bb2aiaB#MaAb0bq#LaM#MaA#Yacb3asbEac#5#y#6ax#4#7#zagb4#t#t#t#t#t#t#t#t#t#t#t#EbH.#.#",
".#.#b5#W.K.K.K.K.K.K.K.K.K.K.K.Kb6#Q#J#z#Ab7#C.G#QaiaB#MbOaiaBadbE#ZbIbLbm#LasbE#AagbuaI#J#Iae#Xaz#G#G#G#G#G#G#G#G#G#G#G#Wb5.#.#",
".#.##V#f.5.5.5.5.5.5.5.5.5.5.5.5#Ka4aJ#Iagax#B#H#I#QaiaBb8#NbYb1avboalbNag#2#Lasagae#X#QaJ#P#Lai#G.K.K.K.K.K.K.K.K.K.K.K#f#V.#.#",
".#.#bp.7#c#c#c#c#c#c#c#c#c#c#c#c.naK#Oafaebu#4aFbu#I#Qaiata2#0b9abaOc.c##7#7#2#L#Iaia4#OaMaBas#N.5.5.5.5.5.5.5.5.5.5.5.5.7bp.#.#",
".#.#br#g#w#w#w#w#w#w#w#w#w#w#w#w.WaA#Man#P#XaIca#4bu#I#Qao#Caxcb#NaMbUcccd#5#7#2ceasaKadbY#1aAad#w#w#w#w#w#c#c#c#c#c#c#c#gbr.#.#",
".#.#cf.9#q#q#q#q#q#q#q#q#q#q#q#q#hcgbEadaB#Lbq#3#U#4bu#R#w#q#q#q#q#q#q#q#q.9#5#7anbEb1#0#Y#Zb9bD#q#q#q#q#q#q#q#q#q#q#q#q.9cf.#.#",
".#.#bQ.Vchchchchchchchchchchchchch.4#6b1bY#Nai#Qa7#U.G#wchchchchchchchchch#c.G#5bYb9bfbIbobI#6#lchchchchchchchchchchchch.VbQ.#.#",
".#.#by.X#########d#d#d#d#d#d#d#d#d#d#dci#3a2asa4ap.m#q#d#d#d#d#d#d#d#d#d#d#d.4bs#0bLalboag.l#d#d#d#d#d#d#d#d#d#d#d#d#d#d.Xby.#.#",
".#.#cj.Z.1.1.1.1.1.1.1.1.1.1.1.1.1.1.1.1##ckclaJ#rcm##########################baa9cnaT#w################################.Zcj.#.#",
".#.#cj.W.y.y.y.y.y.y.y.y.y.y.y.y.y.y.y.y.y.y.y.1#F.y.y.y.y.y.y.y.y.y.y.y.y.y.1.1#F.1.1.1.1.1.1.1.1.1.1.1.1.1.1.1.1.1.1.1.Wcj.#.#",
".#.#bn.pch.t.t.t.t.t.t.t.t.t.t.t.t.t.t.t.t.t.t.t.t.t.t.t.t.t.t.t.t.t.t.t.t.t.t.t.t.t.t.t.t.t.t.t.t.t.y.y.y.y.y.y.y.y.yco.pbn.#.#",
".#.#aG.Pcp.R.R.R.R.R.R.R.R.R.R.R.R.R.R.R.R.R.R.R.R.R.R.R.R.R.R.R.R.R.R.R.R.R.R.R.R.R.R.R.R.R.R.R.R.R.R.R.R.R.R.R.R.R.Rcp.PaG.#.#",
".#.#cq.Lba#k#k#k#k#k#k#k#k#k#k#k#k#k#k#k#k#k#k#k#k#k#k#k#k#k#k#k#k#k#k#k#k#k#k#k#k#k#k#k#k#k#k#k#k#k#k#k#k#k#k#k#k#k#kba.Lcq.#.#",
".#.#cr.G#f.N.N.N.N.N.N.N.N.N.N.N.N.N.N.N.N.N.N.N.N.N.N.N.N.N.N.N.N.N.N.N.N.N.N.N.N.N.N.N.N.N.N.N.N.N.N.N.N.N.N.N.N.N.N#f.Gcr.#.#",
".#.#cs.B.Bct.E.E.E.E.E.E.E.E.E.E.E.J.J.J.J.J.J.J.J.J.J.J.J.J.J.J.J.J.J.J.J.J.J.J.J.J.J.J.J.J.J.J.J.J.J.J.J.J.J.J.J.JaU.B.Bcs.#.#",
"Qt.#cubH.n.p.t.z.z.z.z.z.z.z.z.z.z.z.z.z.z.z.z.z.z.z.z.z.E.E.E.E.E.E.E.E.E.E.E.E.E.E.E.E.E.E.E.E.E.E.E.E.E.E.E.E.E.y.p.nbHcu.#Qt",
"Qt.#.#cv.o.o.P#c.k.k.k.k.k.k.k.k.k.k.k.k.k.k.k.k.k.k.k.k.k.k.k.k.k.k.k.k.k.k.k.k.z.z.z.z.z.z.z.z.z.z.z.z.z.z.z.z.5.P.o.ocv.#.#Qt",
"QtQt.#cwcx#H#HbSa0cy.tczczczczczczczczczczczczczczczczczczczczczczczczczczczczczczczczczczczczczczczczczcz.tcya0bS#H#Hcxcw.#QtQt",
"QtQt.#.#cAcBbsbsbsbsbsbsbsbsbsbsbsbsbsbsbsbsbsbsbsbsbsbsbsbsbsbsbsbsbsbsbsbsbsbsbsbsbsbsbsbsbsbsbsbsbsbsbsbsbsbsbsbscBcA.#.#QtQt",
"QtQtQt.#.#.#cCcDcEcxcxcxcxcxcxcxcxcxcxcxcxcxcxcxcxcxcxcxcxcxcxcxcxcxcxcxcxcxcxcxcxcxcxcxcxcxcxcxcxcxcxcxcxcxcxcEcDcC.#.#.#QtQtQt",
"QtQtQtQt.#.#.#.#.#.#.#.#.#.#.#.#.#.#.#.#.#.#.#.#.#.#.#.#.#.#.#.#.#.#.#.#.#.#.#.#.#.#.#.#.#.#.#.#.#.#.#.#.#.#.#.#.#.#.#.#QtQtQtQt",
"QtQtQtQtQtQt.#.#.#.#.#.#.#.#.#.#.#.#.#.#.#.#.#.#.#.#.#.#.#.#.#.#.#.#.#.#.#.#.#.#.#.#.#.#.#.#.#.#.#.#.#.#.#.#.#.#.#.#QtQtQtQtQtQt"};
