/* XPM */
static char *dummy[]={
"16 16 90 2",
".d c #4c606a",
".h c #50636d",
".# c #50646d",
"Qt c #556872",
".l c #5a6c75",
".i c #5a6d76",
".e c #5b6d76",
".a c #61727b",
".n c #6e7f87",
".m c #75858c",
".j c #7f9096",
".k c #8899a0",
".f c #889aa0",
".b c #93a5ab",
"#p c #953535",
"#w c #988f90",
".p c #98a4a9",
"#v c #998e8f",
".o c #99a5aa",
"#u c #9a9798",
"#x c #9caaab",
"#r c #9d7374",
"#t c #9dadae",
"#h c #9f3637",
"#l c #9f393a",
"#q c #9f8283",
"#s c #9f8d8e",
".q c #9faaaf",
".g c #9fb3b8",
"#i c #a03e3f",
"#o c #a08e8f",
"#m c #a36869",
"#g c #a46c6c",
"#n c #a4b2b3",
".r c #a6b1b5",
"#k c #a8a3a3",
"#a c #a93838",
"#d c #a94748",
"#j c #a9abab",
"## c #aa4b4c",
"#f c #aab8b9",
"#c c #ab5556",
"#b c #ab6161",
"#e c #b0b5b6",
".6 c #b13b3b",
"#. c #b1b7b8",
".9 c #b1bdbe",
".7 c #b23a3a",
".c c #b4cbce",
".8 c #b59f9f",
".5 c #b6a5a5",
".4 c #b7c3c3",
".2 c #bb3b3b",
".3 c #bc6c6c",
".1 c #bc6f6f",
".0 c #bec8c9",
".Y c #c44747",
".V c #c4bbbb",
".Z c #c4bfbf",
".U c #c4cece",
".X c #c53d3d",
".W c #c54444",
".O c #cbd2d3",
".N c #cbd3d4",
".P c #cd6262",
".T c #cd6767",
".Q c #ce3e3f",
".R c #ce4f4f",
".S c #ce5858",
".G c #d1d8d9",
".K c #d2babb",
".H c #d39293",
".J c #d3abac",
".M c #d49596",
".I c #d84040",
".L c #d84243",
".y c #d8dede",
".z c #d9c2c2",
".F c #d9c3c3",
".C c #dd7a7a",
".D c #dd8d8d",
".t c #dec1c2",
".v c #ded9da",
".w c #dedfe0",
".s c #dee3e4",
".u c #dfabac",
".x c #dfacad",
".B c #e14242",
".A c #e14646",
".E c #e24747",
"Qt.#.#.#.a.a.#.#.#.#.b.c.c.c.c.c",
".#.d.d.d.e.e.d.d.d.d.f.g.g.g.g.g",
".h.d.d.d.i.i.d.d.d.d.j.k.k.k.k.k",
".h.d.d.d.l.l.d.d.d.d.m.n.n.n.n.n",
".o.p.p.p.q.q.p.p.p.p.r.o.o.o.o.o",
".s.s.s.t.u.u.v.s.s.w.x.u.t.s.s.s",
".y.y.y.z.A.B.C.y.y.D.B.E.F.y.y.y",
".G.G.G.G.H.I.I.J.K.L.I.M.G.G.G.G",
".N.N.N.N.O.P.Q.R.S.Q.T.O.N.N.N.N",
".U.U.U.U.U.V.W.X.X.Y.Z.U.U.U.U.U",
".0.0.0.0.0.0.1.2.2.3.0.0.0.0.0.0",
".4.4.4.4.4.5.6.7.7.7.8.4.4.4.4.4",
".9.9.9.9#.###a#b#c#a#d#e.9.9.9.9",
"#f#f#f#f#g#h#i#j#k#l#h#m#f#f#f#f",
"#n#n#n#o#p#p#q#n#n#r#p#p#s#n#n#n",
"#t#t#t#u#v#w#t#t#t#x#v#v#u#t#t#t"};
